<svg width="165" height="132" viewBox="0 0 165 132" fill="none" xmlns="http://www.w3.org/2000/svg">
    <path fill="#C7E8DA" d="M.75.2h164v131.2H.75z"/>
    <path fill-rule="evenodd" clip-rule="evenodd" d="M135.23 67.539c0 28.997-23.601 52.48-52.685 52.48-29.083 0-52.685-23.483-52.685-52.48 0-28.998 23.602-52.48 52.685-52.48 29.084 0 52.685 23.482 52.685 52.48zm-52.685 49.523c27.466 0 49.731-22.172 49.731-49.523 0-27.351-22.265-49.524-49.73-49.524-27.466 0-49.731 22.173-49.731 49.524 0 27.35 22.265 49.523 49.73 49.523z" fill="#8BD6AD"/>
    <path fill-rule="evenodd" clip-rule="evenodd" d="M82.545 103.536c19.766 0 35.794-16.205 35.794-36.202 0-19.998-16.028-36.203-35.794-36.203S46.75 47.337 46.75 67.334c0 19.997 16.029 36.202 35.795 36.202zm0 .493c20.039 0 36.285-16.43 36.285-36.695 0-20.266-16.246-36.695-36.285-36.695-20.04 0-36.285 16.429-36.285 36.695 0 20.266 16.245 36.695 36.285 36.695z" fill="#8BD6AD"/>
    <path fill-rule="evenodd" clip-rule="evenodd" d="M82.135 90.005c12.521 0 22.672-10.15 22.672-22.672 0-12.521-10.15-22.672-22.672-22.672S59.463 54.81 59.463 67.333c0 12.521 10.15 22.672 22.672 22.672zm0 .493c12.793 0 23.165-10.371 23.165-23.165 0-12.794-10.372-23.165-23.165-23.165-12.794 0-23.165 10.371-23.165 23.165 0 12.794 10.371 23.165 23.165 23.165z" fill="#8BD6AD"/>
    <path fill-rule="evenodd" clip-rule="evenodd" d="M82.34 78.523c6.061 0 10.992-5.092 10.992-11.395s-4.93-11.394-10.992-11.394c-6.06 0-10.991 5.091-10.991 11.394s4.93 11.395 10.991 11.395zm0 .495c6.34 0 11.48-5.323 11.48-11.89 0-6.566-5.14-11.89-11.48-11.89-6.34 0-11.48 5.324-11.48 11.89 0 6.567 5.14 11.89 11.48 11.89z" fill="#8BD6AD"/>
    <path fill-rule="evenodd" clip-rule="evenodd" d="M82.75 127.398V9.318h.41v118.08h-.41z" fill="#8BD6AD"/>
    <path fill-rule="evenodd" clip-rule="evenodd" d="M133.332 97.893 31.366 39.023l.246-.426 101.966 58.87-.246.426z" fill="#8BD6AD"/>
    <path fill-rule="evenodd" clip-rule="evenodd" d="m32.105 97.893 101.965-58.87-.246-.426-101.966 58.87.247.426z" fill="#8BD6AD"/>
    <circle cx="82.75" cy="9.32" fill="#8BD6AD" r="1.64"/>
    <ellipse cx="82.75" cy="125.554" rx="1.64" ry="1.845" fill="#8BD6AD"/>
    <circle cx="133.59" cy="97.468" r="1.64" fill="#8BD6AD"/>
    <circle cx="31.5" cy="97.468" r="1.64" fill="#8BD6AD"/>
    <circle cx="133.59" cy="38.839" r="1.64" fill="#8BD6AD"/>
    <circle cx="31.5" cy="38.839" r="1.64" fill="#8BD6AD"/>
    <path fill-rule="evenodd" clip-rule="evenodd" d="m83.444 17.52 25.35 37.091 17.006 38.27-42.688 16.479L42.57 93.03l3.305-45.453L83.444 17.52zM48.724 49.078l-3.054 42.016 37.464 15.091 38.707-14.942-15.637-35.187-23.403-34.242-34.077 27.264z" fill="#6A9FEE"/>
    <path fill-rule="evenodd" clip-rule="evenodd" d="m122.11 44.168-5.285 44.537-33.748 4.253-27.642-8.303L52.41 50.18l30.73 9.491 38.97-15.504zm-3.511 4.586L83.263 62.813 55.73 54.309l2.464 28.08 25.132 7.548 30.847-3.887 4.426-37.296z" fill="#FF83A1"/>
</svg>
