<svg width="165" height="132" viewBox="0 0 165 132" fill="none" xmlns="http://www.w3.org/2000/svg">
    <g clip-path="url(#e081rptzka)">
        <path fill="#FDF5B0" d="M.25.2h164v131.2H.25z"/>
        <path d="M17.06 29.582c0-6.627 5.372-12 12-12h24.9v37.72h-24.9c-6.628 0-12-5.373-12-12v-13.72z" fill="#99D8B2"/>
        <path d="M58.06 5.53h24.9c6.627 0 12 5.372 12 12v18.64c0 6.627-5.373 12-12 12h-24.9V5.53z" fill="#94C9E8"/>
        <path d="M58.06 51.04h24.9c6.627 0 12 5.372 12 12v1.01c0 6.627-5.373 12-12 12h-24.9V51.04z" fill="#EEAD4C"/>
        <path d="M16.65 70.172c0-6.628 5.373-12 12-12h25.31v30.34H28.65c-6.627 0-12-5.373-12-12v-6.34z" fill="#EF8CF1"/>
        <path fill-rule="evenodd" clip-rule="evenodd" d="M23.227 36.097a2.58 2.58 0 0 1 2.58-2.58h18.666a2.58 2.58 0 1 1 0 5.159H25.807a2.58 2.58 0 0 1-2.58-2.58z" fill="#fff"/>
        <path fill-rule="evenodd" clip-rule="evenodd" d="M35.316 24.36a2.58 2.58 0 0 1 2.578 2.578v18.667a2.579 2.579 0 1 1-5.158 0V26.938a2.58 2.58 0 0 1 2.58-2.579zM68.047 18.337a2.58 2.58 0 0 1 3.648 0l13.199 13.2a2.58 2.58 0 0 1-3.648 3.647l-13.199-13.2a2.579 2.579 0 0 1 0-3.647z" fill="#fff"/>
        <path fill-rule="evenodd" clip-rule="evenodd" d="M84.894 18.587a2.579 2.579 0 0 1 0 3.647L71.695 35.433a2.579 2.579 0 1 1-3.647-3.647l13.199-13.2a2.58 2.58 0 0 1 3.647 0zM24.03 73.546c0-1.472 1.154-2.665 2.577-2.665h17.806c1.423 0 2.577 1.193 2.577 2.665s-1.154 2.665-2.577 2.665H26.607c-1.423 0-2.577-1.193-2.577-2.665zM67.076 63.821a2.58 2.58 0 0 1 2.58-2.579h13.91a2.58 2.58 0 1 1 0 5.158h-13.91a2.58 2.58 0 0 1-2.58-2.579z" fill="#fff"/>
        <circle cx="76.523" cy="57.481" fill="#fff" r="2.465"/>
        <circle cx="76.523" cy="70.161" r="2.465" fill="#fff"/>
        <ellipse cx="109.254" cy="90.678" rx="32.529" ry="29.389" fill="#7ECFBB"/>
        <path d="M66.405 114.681c7.852 0 13.161-8.898 12.787-13.236l11.217 7.179c.075 5.085-3.859 14.986-20.19 13.909-16.332-1.077-17.873-11.665-16.602-16.825-.074 1.421 1.87 8.973 12.788 8.973zM140.437 102.567c-7.852 0-12.936-2.841-12.562-7.178l-11.217 7.178c-.075 5.085 6.953 18.172 21.76 11.89 15.067-6.392 16.078-15.703 14.806-20.863 0 0-1.87 8.973-12.787 8.973z" fill="#7ECFBB"/>
        <path d="M111.151 117.822c-7.81-.802-14.609-7.329-14.235-11.666L85.7 113.335c-.075 5.085 2.636 10.98 18.947 12.339 10.768.897 12.563 6.954 12.563 6.954s7.056-13.46-6.058-14.806z" fill="#7ECFBB"/>
        <path d="M129.893 115.804c-7.851 0-13.161-8.898-12.787-13.236l-11.217 7.179c-.075 5.085 3.859 14.986 20.191 13.909 10.078-.664 12.758-.509 13.332-.292-.003.103-.009.19-.017.258-.044.022-.08.034-.08.034.011.22.055.184.08-.034.112-.053.273-.162.017-.258.045-1.676-.822-7.56-9.519-7.56z" fill="#7ECFBB"/>
        <path d="M137.97 75.871c-21.178 8.974-47.41 3.74-57.88 0l-1.57 4.263c20.28 12.024 50.326 7.253 62.815 3.365l-3.365-7.628z" fill="#ED7F93"/>
        <path d="M102.748 90.454a9.422 9.422 0 1 1-18.845 0 9.422 9.422 0 0 1 18.845 0z" fill="#fff"/>
        <path fill-rule="evenodd" clip-rule="evenodd" d="M93.326 97.416a6.962 6.962 0 1 0 0-13.925 6.962 6.962 0 0 0 0 13.925zm0 2.46a9.422 9.422 0 1 0 0-18.845 9.422 9.422 0 0 0 0 18.845z" fill="#5F5F5F"/>
        <path d="M126.079 91.35a9.422 9.422 0 0 1-9.422 9.422c-5.204 0-9.423-4.218-9.423-9.422a9.423 9.423 0 0 1 18.845 0z" fill="#fff"/>
        <path fill-rule="evenodd" clip-rule="evenodd" d="M116.657 98.312a6.962 6.962 0 0 0 0-13.924 6.962 6.962 0 1 0 0 13.924zm0 2.46a9.422 9.422 0 0 0 0-18.844c-5.204 0-9.423 4.218-9.423 9.422 0 5.204 4.219 9.422 9.423 9.422z" fill="#5F5F5F"/>
        <path fill-rule="evenodd" clip-rule="evenodd" d="M107.683 93.683h-5.832v-2.87h5.832v2.87z" fill="#5F5F5F"/>
        <circle cx="91.082" cy="90.004" r="1.795" fill="#6A7775"/>
        <circle cx="113.965" cy="90.004" fill="#6A7775" r="1.795"/>
        <path fill="#CCC8B0" d="m57.168 104.434 2.892 1.544-6.286 11.774-2.891-1.544z"/>
        <path d="m55.102 103.33 2.066 1.103-6.285 11.775-1.294-2.549 5.514-10.329zM62.126 107.08l-2.066-1.103-6.285 11.775 2.837-.343 5.514-10.329z" fill="#B7B2A0"/>
        <path fill="#fff" d="m56.315 101.059 7.024 3.75-1.213 2.272-7.024-3.75z"/>
        <path d="m56.557 117.512-6.92-3.694.479 7.556 6.441-3.862z" fill="#EECC73"/>
        <path fill="#7A7A7A" d="m50.068 119.225 1.86.992-1.214 2.273-1.859-.993z"/>
    </g>
    <defs>
        <clipPath id="e081rptzka">
            <path fill="#fff" transform="translate(.25 .2)" d="M0 0h164v131.2H0z"/>
        </clipPath>
    </defs>
</svg>
