<svg width="165" height="132" viewBox="0 0 165 132" fill="none" xmlns="http://www.w3.org/2000/svg">
    <g clip-path="url(#uu9cg47pua)">
        <path fill="#CCE9FA" d="M.75 0h164v131.2H.75z"/>
        <path d="M38.919 77.364c0-.63 0-.944.118-1.193.104-.22.27-.404.478-.53.237-.141.55-.173 1.176-.236l36.357-3.642c.75-.075 1.125-.113 1.415.01.255.108.465.299.598.541.151.277.151.653.151 1.407v21.5c0 .61 0 .915-.112 1.16a1.23 1.23 0 0 1-.46.525c-.228.144-.53.184-1.135.265l-36.358 4.853c-.77.103-1.154.155-1.452.036a1.23 1.23 0 0 1-.619-.542c-.157-.28-.157-.668-.157-1.444v-22.71z" fill="#464646"/>
        <path d="m54.29 108.419-15.42-6.097 40.343-5.379 15.061 5.379-39.984 6.097z" fill="#C1BBBB"/>
        <path d="M40.537 78.922a2 2 0 0 1 1.796-1.99l33.42-3.43a2 2 0 0 1 2.205 1.99v18.437a2 2 0 0 1-1.745 1.984l-33.42 4.307a2 2 0 0 1-2.256-1.983V78.922z" fill="#B0E2CA"/>
        <ellipse cx="5.883" cy="5.601" rx="5.883" ry="5.601" transform="rotate(.421 -11043.284 7285.404) skewX(.019)" fill="snow"/>
        <path d="m57.338 89.848.035-4.918 5.206 1.874-5.24 3.044z" fill="#5F5F5F"/>
        <path d="M38.87 103.219v-1.614l15.6 6.276v1.793l-15.6-6.455z" fill="#5C5757"/>
        <path d="m54.47 107.881 39.625-5.559v1.793l-39.625 5.559v-1.793z" fill="#969696"/>
        <path d="M93.417 58.588c-13.61 15.908-3.311 57.635 6.105 74.251 24.809-2.21 42.602.752 44.728-1.846-12.888-13.931-17.091-38.1-17.091-59.572 0-17.45-16.729-32.718-33.742-12.833z" fill="#E9ACFF"/>
        <ellipse cx="105.327" cy="72.185" rx="4.079" ry="5.064" transform="rotate(-4.584 105.327 72.185)" fill="#fff"/>
        <ellipse cx="103.772" cy="72.226" rx="2.474" ry="3.242" transform="rotate(-4.584 103.772 72.226)" fill="#A58E8E"/>
        <ellipse cx="90.15" cy="70.631" rx="3.633" ry="5.064" transform="rotate(-7.41 90.15 70.631)" fill="#fff"/>
        <ellipse cx="88.895" cy="70.712" rx="2.326" ry="3.242" transform="rotate(-7.41 88.895 70.712)" fill="#A58E8E"/>
        <path d="M120.238 55.978c-1.391-7.067-9.706-6.986-13.786-6.048 4.783-2.532 11.133-1.73 14.771 1.406 8.158 7.034 2.25 23.351-1.548 34.886l-5.064-.843c2.251-8.535 7.315-20.82 5.627-29.4z" fill="#7A7A7A"/>
        <path d="M125.166 81.337c-1.933 4.512-6.192 6.37-9.836 4.81-3.644-1.562-5.294-5.952-3.361-10.464 1.934-4.512 6.455-6.904 10.099-5.342 3.644 1.561 5.031 6.485 3.098 10.996z" fill="#7A7A7A"/>
        <ellipse cx="119.062" cy="78.238" rx="4.71" ry="5.901" transform="rotate(23.193 119.062 78.238)" fill="#6A6666"/>
        <ellipse cx="56.552" cy="36.09" rx="6.696" ry="6.404" fill="#fff"/>
        <circle cx="40.669" cy="40.195" r="2.803" fill="#fff"/>
        <circle cx="77.802" cy="38.793" r="2.803" fill="#fff"/>
        <ellipse cx="51.603" cy="43.367" rx="4.658" ry="4.367" fill="#fff"/>
        <ellipse cx="59.754" cy="42.785" rx="5.822" ry="5.531" fill="#fff"/>
        <ellipse cx="67.323" cy="42.203" rx="4.658" ry="4.367" fill="#fff"/>
        <ellipse cx="47.527" cy="39.002" rx="5.822" ry="5.24" fill="#fff"/>
        <ellipse cx="73.727" cy="41.62" rx="4.076" ry="3.784" fill="#fff"/>
        <ellipse cx="66.74" cy="36.963" rx="5.822" ry="5.531" fill="#fff"/>
        <ellipse cx="90.27" cy="18.779" rx="4.372" ry="4.154" fill="#fff"/>
        <circle cx="79.995" cy="20.964" fill="#fff" r="1.968"/>
        <ellipse cx="89.395" cy="21.84" rx="3.498" ry="3.279" fill="#fff"/>
        <ellipse cx="94.642" cy="21.402" rx="4.372" ry="4.154" fill="#fff"/>
        <ellipse cx="98.577" cy="19.652" rx="3.498" ry="3.279" fill="#fff"/>
        <ellipse cx="84.586" cy="20.09" rx="3.498" ry="3.279" fill="#fff"/>
        <ellipse cx="102.731" cy="20.309" rx="2.405" ry="2.186" fill="#fff"/>
    </g>
    <defs>
        <clipPath id="uu9cg47pua">
            <path fill="#fff" transform="translate(.75)" d="M0 0h164v131.2H0z"/>
        </clipPath>
    </defs>
</svg>
