<svg width="165" height="132" viewBox="0 0 165 132" fill="none" xmlns="http://www.w3.org/2000/svg">
    <path fill="#F9F1D5" d="M.25 0h164v131.2H.25z"/>
    <ellipse cx="127.262" cy="37.981" rx="5.845" ry="5.591" fill="#fff"/>
    <circle cx="113.397" cy="41.566" fill="#fff" r="2.447"/>
    <circle cx="145.814" cy="40.341" fill="#fff" r="2.447"/>
    <ellipse cx="122.942" cy="44.335" rx="4.066" ry="3.812" fill="#fff"/>
    <ellipse cx="130.057" cy="43.827" rx="5.083" ry="4.829" fill="#fff"/>
    <ellipse cx="136.665" cy="43.318" rx="4.066" ry="3.812" fill="#fff"/>
    <ellipse cx="119.384" cy="40.524" rx="5.083" ry="4.574" fill="#fff"/>
    <ellipse cx="142.256" cy="42.81" rx="3.558" ry="3.304" fill="#fff"/>
    <ellipse cx="136.157" cy="38.745" rx="5.083" ry="4.829" fill="#fff"/>
    <ellipse cx="101.52" cy="22.754" rx="4.1" ry="3.895" fill="#fff"/>
    <circle cx="91.885" cy="24.804" fill="#fff" r="1.845"/>
    <ellipse cx="100.7" cy="25.624" rx="3.28" ry="3.075" fill="#fff"/>
    <ellipse cx="105.621" cy="25.213" rx="4.1" ry="3.895" fill="#fff"/>
    <ellipse cx="109.31" cy="23.575" rx="3.28" ry="3.075" fill="#fff"/>
    <ellipse cx="96.19" cy="23.985" rx="3.28" ry="3.075" fill="#fff"/>
    <ellipse cx="113.205" cy="24.189" rx="2.255" ry="2.05" fill="#fff"/>
    <path d="M24.85 26.744a8 8 0 0 1 8-8h43.04a8 8 0 0 1 8 8v69.314H24.85V26.744z" fill="#fff"/>
    <path d="M24.85 26.744a8 8 0 0 1 8-8h43.04a8 8 0 0 1 8 8v.434H24.85v-.434z" fill="#5A5252"/>
    <path fill="#D9D9D9" d="M24.85 27.178h59.04v4.217H24.85z"/>
    <path d="M31.878 17.572a1.171 1.171 0 0 1 2.343 0v3.983h-2.343v-3.983zM38.906 17.572a1.171 1.171 0 0 1 2.343 0v3.983h-2.343v-3.983zM45.935 17.572a1.171 1.171 0 0 1 2.343 0v3.983h-2.343v-3.983zM52.964 17.572a1.171 1.171 0 1 1 2.343 0v3.983h-2.343v-3.983zM59.992 17.572a1.171 1.171 0 0 1 2.343 0v3.983h-2.343v-3.983zM67.022 17.572a1.171 1.171 0 0 1 2.342 0v3.983h-2.343v-3.983zM74.05 17.572a1.171 1.171 0 0 1 2.343 0v3.983H74.05v-3.983z" fill="#EFE9B6"/>
    <path d="m60.154 66.013 7.123-.188c.55 0 1 .138 1.35.412.35.275.524.6.524.975 0 .925-.625 1.387-1.874 1.387l-7.123-.187-6.41.187c-1.25 0-1.874-.575-1.874-1.724 0-.925.35-1.825 1.05-2.7.7-.899 1.274-1.599 1.724-2.098.45-.5 1.2-1.312 2.25-2.437a251.77 251.77 0 0 1 2.173-2.362c.4-.45.838-.924 1.312-1.424.475-.525.813-.9 1.013-1.125.2-.25.512-.637.937-1.162.45-.525.787-.962 1.012-1.312.225-.375.475-.8.75-1.274.524-.9.787-1.737.787-2.512 0-1.25-.45-2.286-1.35-3.111-.9-.85-1.924-1.275-3.074-1.275-1.124 0-2.049.213-2.774.638-.7.4-1.212.85-1.536 1.35-.825 1.324-1.562 1.986-2.212 1.986-.35 0-.65-.113-.9-.338a1.298 1.298 0 0 1-.337-.9c0-.974.724-2.086 2.174-3.335 1.45-1.25 3.274-1.875 5.473-1.875 2.2 0 3.948.688 5.248 2.062 1.324 1.375 1.987 2.886 1.987 4.536 0 1.65-.488 3.211-1.462 4.686a29.26 29.26 0 0 1-2.7 3.336c-.999 1.1-1.736 1.924-2.21 2.474-.45.525-1.225 1.362-2.325 2.511-1.1 1.15-1.974 2.1-2.624 2.85-.65.749-1.087 1.399-1.312 1.949h5.21zM46.304 60.727c.026 1.775.05 3.199.075 4.274.05 1.074.076 1.799.076 2.174s-.138.737-.413 1.087c-.275.35-.625.525-1.05.525-.424 0-.774-.175-1.05-.525-.274-.35-.411-.712-.411-1.087s.012-1.1.037-2.174c.1-2.5.15-5.748.15-9.747v-9.409l-1.8 2.25c-.3.374-.65.824-1.049 1.349-.375.5-.662.875-.862 1.124-.2.25-.437.538-.712.863-.25.325-.45.562-.6.712-.125.15-.275.3-.45.45-.325.25-.65.375-.974.375-.325 0-.6-.125-.825-.375-.225-.25-.338-.5-.338-.75 0-.275.025-.487.075-.637.075-.175.225-.4.45-.675.225-.3.45-.575.675-.825.225-.25.587-.65 1.087-1.2a51.66 51.66 0 0 0 1.537-1.761c.525-.6 1.087-1.287 1.687-2.062.625-.8 1.074-1.362 1.35-1.687.624-.8 1.211-1.2 1.761-1.2.575 0 1 .176 1.275.526.3.35.45.712.45 1.087s-.013 1.112-.038 2.211c-.1 2.574-.15 5.298-.15 8.172 0 2.85.012 5.16.037 6.935z" fill="#5A5252"/>
    <path fill="#E9E6DF" d="M24.85 83.875h59.04v12.183H24.85z"/>
    <path fill="#F1A4A4" d="M29.066 76.846h33.737v3.749H29.066zM67.022 76.846h13.12v3.749h-13.12z"/>
    <path d="M124.643 92.796c0 11.529-9.347 20.876-20.876 20.876-11.53 0-20.876-9.347-20.876-20.876 0-11.53 9.346-20.876 20.876-20.876 11.529 0 20.876 9.346 20.876 20.876z" fill="#99D8B2"/>
    <path fill-rule="evenodd" clip-rule="evenodd" d="M103.767 111.212c10.17 0 18.416-8.245 18.416-18.416 0-10.171-8.246-18.416-18.416-18.416-10.171 0-18.416 8.245-18.416 18.416 0 10.171 8.245 18.416 18.416 18.416zm0 2.46c11.529 0 20.876-9.347 20.876-20.876 0-11.53-9.347-20.876-20.876-20.876-11.53 0-20.876 9.346-20.876 20.876 0 11.529 9.346 20.876 20.876 20.876z" fill="#486876"/>
    <path fill-rule="evenodd" clip-rule="evenodd" d="M98.564 69.794 80.338 81.549c-3.247-5.033-1.798-11.745 3.235-14.991 5.034-3.246 11.745-1.797 14.991 3.236zM108.986 69.794l18.226 11.755c3.246-5.033 1.798-11.745-3.236-14.991-5.033-3.246-11.744-1.797-14.99 3.236z" fill="#486876"/>
    <path d="m88.912 74.129 2.409 3.01" stroke="#486876" stroke-width="3"/>
    <path fill-rule="evenodd" clip-rule="evenodd" d="m94.782 109.896-5.176 6.085a1.436 1.436 0 0 1-2.186-1.86l5.177-6.085 2.186 1.86zM113.789 109.896l5.177 6.085a1.436 1.436 0 0 0 2.186-1.86l-5.177-6.085-2.186 1.86z" fill="#486876"/>
    <path d="m118.621 74.33-2.409 3.011" stroke="#486876" stroke-width="3"/>
    <path fill-rule="evenodd" clip-rule="evenodd" d="m115.327 85.426-10.839 9.435a1.405 1.405 0 0 1-1.752.074l-8.23-6.022 1.66-2.268 7.324 5.36 9.993-8.698 1.844 2.12z" fill="#fff"/>
</svg>
