<svg width="164" height="132" viewBox="0 0 164 132" fill="none" xmlns="http://www.w3.org/2000/svg">
    <path fill="#FBC2A9" fill-opacity=".922" d="M0 .4h164v131.2H0z"/>
    <path d="M31.509 15.981a3.28 3.28 0 0 1 3.28-3.28h43.315a3.28 3.28 0 0 1 3.28 3.28v33.813a3.28 3.28 0 0 1-3.28 3.28H34.79a3.28 3.28 0 0 1-3.28-3.28V15.981z" fill="#464646"/>
    <path d="M33.24 15.363h46.066v35.05H33.24v-35.05z" fill="#898D8F"/>
    <path d="m70.01 33.796-8.633 3.801v-2.483l5.91-2.373-.079.129v-.307l.08.13-5.911-2.374v-2.483l8.633 3.802v2.158zM59.61 24.592l-4.047 15.035h-2.25l4.046-15.035h2.25zM42.913 33.796v-2.159l8.633-3.801v2.483l-5.91 2.373.08-.129v.307l-.08-.129 5.91 2.373v2.483l-8.633-3.801z" fill="#fff"/>
    <path d="M76.401 39.29a3.28 3.28 0 0 1 3.28-3.28h57.759a3.28 3.28 0 0 1 3.28 3.28v33.813a3.28 3.28 0 0 1-3.28 3.28H79.681a3.28 3.28 0 0 1-3.28-3.28V39.29z" fill="#464646"/>
    <path d="M78.56 38.6h60.001v34.965H78.56V38.6z" fill="#FDFDFD"/>
    <path fill="#64C88C" d="M91.078 54.57h4.748v8.202h-4.748z"/>
    <path d="M92.805 49.39H94.1v14.677h-1.295V49.391zM98.416 49.391h4.748v9.928h-4.748z" fill="#64C88C"/>
    <path fill="#64C88C" d="M100.143 45.506h1.295v16.835h-1.295zM106.187 53.275h4.748v7.77h-4.748z"/>
    <path fill="#64C88C" d="M107.913 49.391h1.295v14.677h-1.295zM128.201 53.275h4.748v5.612h-4.748z"/>
    <path fill="#64C88C" d="M129.928 47.232h1.295v14.677h-1.295z"/>
    <path fill="#DC5959" d="M113.956 49.822h4.748v8.202h-4.748z"/>
    <path fill="#DC5959" d="M115.683 46.369h1.295v14.677h-1.295zM84.171 49.391h4.748v8.202h-4.748z"/>
    <path fill="#DC5959" d="M85.897 45.938h1.295v14.677h-1.295zM120.863 43.779h4.748v10.792h-4.748z"/>
    <path fill="#DC5959" d="M122.59 42.916h1.295v14.677h-1.295z"/>
    <path fill="#64C88C" d="M82.876 66.227h14.245v3.885H82.876zM110.935 66.227h14.245v3.885h-14.245z"/>
    <path fill="#64C88C" d="M97.121 67.953h14.245v2.158H97.121zM121.727 67.953h14.245v2.158h-14.245z"/>
    <path d="M147.195 70.112a8.633 8.633 0 1 1-17.266 0 8.633 8.633 0 1 1 17.266 0z" fill="#fff"/>
    <path fill-rule="evenodd" clip-rule="evenodd" d="M138.562 77.105a6.993 6.993 0 1 0 0-13.986 6.993 6.993 0 0 0 0 13.986zm0 1.64a8.633 8.633 0 0 0 8.633-8.633 8.633 8.633 0 1 0-17.266 0 8.633 8.633 0 0 0 8.633 8.633z" fill="#FDC604"/>
    <path d="M141.158 71.709c0 .574-.191 1.071-.574 1.492-.383.414-.895.67-1.538.77.015.19.023.374.023.55 0 .39-.134.586-.402.586s-.402-.195-.402-.585l.011-.529a3.782 3.782 0 0 1-1.595-.447c-.467-.268-.701-.525-.701-.77 0-.107.031-.19.092-.252a.309.309 0 0 1 .241-.103c.1 0 .226.06.379.183.498.398 1.033.616 1.607.655.016-1.072.023-2.247.023-3.525-.62-.352-1.109-.704-1.469-1.056-.352-.352-.528-.754-.528-1.205 0-.46.18-.854.539-1.183.36-.336.831-.535 1.412-.597v-.447c0-.39.131-.586.391-.586s.39.195.39.586v.447c.49.046.899.161 1.228.345.33.183.494.386.494.608 0 .084-.03.16-.092.23-.053.061-.137.092-.252.092-.107 0-.306-.085-.597-.253-.283-.176-.551-.268-.804-.275-.015.918-.023 1.84-.023 2.766.62.368 1.075.685 1.366.953.291.268.494.524.609.77.115.244.172.504.172.78zm-2.135 1.515c.359-.061.662-.23.907-.505.245-.283.367-.597.367-.941 0-.352-.111-.65-.333-.896-.222-.245-.54-.493-.953-.746 0 1.546.004 2.576.012 3.088zm-1.86-5.751c0 .405.386.853 1.159 1.343 0-1.04-.007-1.833-.023-2.376-.329.038-.6.145-.815.321a.874.874 0 0 0-.321.712z" fill="#FDC604"/>
    <path d="M73.38 65.795v37.987H21.32a4.92 4.92 0 0 1-4.92-4.92V65.795h56.98z" fill="#E6E6E6"/>
    <path d="M23.307 97.046c-4.933-1.615-6.66 1.515-6.907 3.282V65.741c2.96-3.03 5.838-1.262 6.907 0v31.305zM33.451 94.285V74.802c0-1.19 1.469-1.75 2.261-.863l17.396 19.484c.745.834.153 2.157-.966 2.157H34.746c-.715 0-1.295-.58-1.295-1.295z" fill="#fff"/>
    <path fill-rule="evenodd" clip-rule="evenodd" d="M35.39 74.227c-.528-.591-1.507-.218-1.507.575v19.484c0 .477.386.863.863.863h17.396a.863.863 0 0 0 .644-1.438L35.39 74.227zm-2.37.575c0-1.585 1.958-2.333 3.014-1.15L53.43 93.136c.994 1.113.204 2.877-1.288 2.877H34.746a1.727 1.727 0 0 1-1.727-1.727V74.802z" fill="#B4B4B4"/>
    <path d="M38.2 90.832v-7.338l6.69 7.338H38.2z" fill="#E6E6E6"/>
    <path fill-rule="evenodd" clip-rule="evenodd" d="M38.043 83.092a.432.432 0 0 1 .475.111l6.691 7.339a.432.432 0 0 1-.319.722H38.2a.432.432 0 0 1-.432-.431v-7.339c0-.178.11-.338.275-.402zm.588 1.516v5.793h5.281l-5.281-5.793zM35.61 78.724h-2.375v-.82h2.374v.82zM35.61 81.746h-2.375v-.82h2.374v.82zM35.61 84.767h-2.375v-.82h2.374v.82zM35.61 87.789h-2.375v-.82h2.374v.82zM35.61 90.81h-2.375v-.82h2.374v.82z" fill="#B4B4B4"/>
    <path fill="#B3C3ED" d="m63.963 92.219-1.831 1.668-16.447-18.05 1.831-1.668z"/>
    <path d="m65.272 91.025-1.309 1.192-16.446-18.05 3.328 1.025 14.427 15.833zM60.824 95.078l1.308-1.192-16.446-18.05.712 3.409 14.426 15.833z" fill="#87A1E3"/>
    <path fill="#fff" d="m66.701 92.596-4.447 4.052-1.43-1.57 4.447-4.052z"/>
    <path d="m46.284 79.12 4.447-4.052-5.593-1.606 1.146 5.658z" fill="#EECC73"/>
    <path fill="#B4B4B4" d="m46.778 73.883-1.307 1.191-.954-1.046 1.308-1.192z"/>
    <path fill-rule="evenodd" clip-rule="evenodd" d="M95.727 89.056a6.86 6.86 0 0 1-4.648 6.494v12.117l1.726 1.361v9.863H85.9v-9.863l1.726-1.361V95.8a6.857 6.857 0 1 1 8.102-6.744zm-4.31-.587v-5.781a6.838 6.838 0 0 0-2.546-.489c-.753 0-1.478.122-2.155.346v5.924h4.701z" fill="#fff"/>
</svg>
