<svg width="688" height="410" viewBox="0 0 688 410" fill="none" xmlns="http://www.w3.org/2000/svg">
    <g clip-path="url(#ajzjnj6fsa)">
        <path fill="#F6F6F3" d="M0 0h688v409.848H0z"/>
        <path d="m129.024 410.104-.024.044v-.044h.024l38.349-68.551 116.151-52.089 43.061 14.303 85.355-73.693 104.523 84.35 51.567 95.64h-45.365l-393.641.04z" fill="#D9EEF3"/>
        <ellipse cx="76.594" cy="193.28" rx="12.094" ry="12.575" fill="#D9EBF5"/>
        <path fill-rule="evenodd" clip-rule="evenodd" d="M70.771 153.693v38.191H36.73l34.041-38.191zm-25.753 34.441h22.107v-24.801l-22.107 24.801z" fill="#98DDB4"/>
        <path fill-rule="evenodd" clip-rule="evenodd" d="m246.94 44.71 8.552 10.131-8.552 9.968-8.648-9.968 8.648-10.13zm-5.429 10.118 5.419 6.246 5.359-6.246-5.359-6.348-5.419 6.348z" fill="#FAD75E"/>
        <path fill-rule="evenodd" clip-rule="evenodd" d="M73.906 204.902c6.173 0 11.176-5.203 11.176-11.621s-5.003-11.62-11.176-11.62c-6.172 0-11.176 5.202-11.176 11.62 0 6.418 5.004 11.621 11.176 11.621zm0 3.749c8.164 0 14.781-6.881 14.781-15.37 0-8.488-6.617-15.369-14.78-15.369-8.164 0-14.782 6.881-14.782 15.369 0 8.489 6.618 15.37 14.781 15.37z" fill="#A7CDE7"/>
        <path fill-rule="evenodd" clip-rule="evenodd" d="M270.97 281.697a1.256 1.256 0 0 0-1.824 0l-8.21 8.527a1.377 1.377 0 0 0 0 1.895 1.258 1.258 0 0 0 1.825 0l6.007-6.24v10.954h-2.92v2.234h2.92v8.335h-2.745v2.233h2.745v7.241h-2.569v2.234h2.569v7.97h-2.92v2.233h2.92v6.654h-9.213v-3.033h-2.15v3.033h-7.674v-3.033h-2.15v3.033h-6.972v-3.033h-2.15v3.033h-8.025v-3.033h-2.15v3.033h-6.117v2.68h6.117v3.033h2.15v-3.033h8.025v3.033h2.15v-3.033h6.972v3.033h2.15v-3.033h7.674v3.033h2.15v-3.033h9.213v8.476h-2.92v2.233h2.92v8.335h-2.745v2.233h2.745v7.242h-2.569v2.233h2.569v7.97h-2.92v2.233h2.92v7.265h2.58v-7.265h2.92v-2.233h-2.92v-7.97h3.271v-2.233h-3.271v-7.242h3.096v-2.233h-3.096v-8.335h2.92v-2.233h-2.92v-8.476h9.915v3.033h2.15v-3.033h8.024v3.033h2.15v-3.033h6.973v3.033h2.15v-3.033h7.673v3.033h2.15v-3.033h9.143l-6.007 6.239a1.377 1.377 0 0 0 0 1.895 1.255 1.255 0 0 0 1.824 0l8.21-8.527a1.377 1.377 0 0 0 0-1.895l-8.21-8.526a1.255 1.255 0 0 0-1.824 0 1.375 1.375 0 0 0 0 1.894l6.007 6.24h-9.143v-3.033h-2.15v3.033h-7.673v-3.033h-2.15v3.033h-6.973v-3.033h-2.15v3.033h-8.024v-3.033h-2.15v3.033h-9.915v-6.654h2.92v-2.233h-2.92v-7.97h3.271v-2.234h-3.271v-7.241h3.096v-2.233h-3.096v-8.335h2.92v-2.234h-2.92v-10.954l6.007 6.24a1.258 1.258 0 0 0 1.825 0 1.378 1.378 0 0 0 0-1.895l-8.21-8.527z" fill="#9CC7E6"/>
        <path fill-rule="evenodd" clip-rule="evenodd" d="m234.047 373.637 69.877-74.798 1.851 1.866-69.877 74.798-1.851-1.866z" fill="#9CC7E6"/>
        <path fill="#CDEBD9" d="M539.041 350.375h53.32v30.37h-53.32z"/>
        <path d="m608.591 27.025 57.013 49.368h-88.687l31.674-49.368z" fill="#D9EEF3"/>
        <path fill-rule="evenodd" clip-rule="evenodd" d="M583.331 346.354h-46.87v25.011h46.87v-25.011zm-50.31-3.573v32.157h53.75v-32.157h-53.75z" fill="#9CC7E6"/>
        <path fill-rule="evenodd" clip-rule="evenodd" d="m676.354 81.314-60.697-54.3-35.453 54.3h96.15zm-60.575-45.538-11.997 18.375 18.373 6.283-6.376-24.658zm-25.45 38.98 12.042-18.444 17.331 5.928-29.373 12.516zm2.768 1.535h33.158l-3.291-12.727-29.867 12.727zm33.581-14.31 33.441 11.438-19.45-17.4-13.991 5.963zm11.936-7.8-20.258-18.123 6.231 24.1 14.027-5.977zm-9.856 22.11-3.107-12.016 35.134 12.016h-32.027z" fill="#B2D9F5"/>
        <path d="M563.479 132.018v-3.43l9.013-9.969-9.013-9.933v-3.43h13.416v2.322h-11.076l9.288 9.826v2.323l-9.22 9.968h11.008v2.323h-13.416z" fill="#FAD75E"/>
        <path d="M244.562 153.693h170.189l5.75 4.713v58.128l13.799 14.924H249.737l-5.175-5.891v-71.874z" fill="#5F5F5F"/>
        <path fill-rule="evenodd" clip-rule="evenodd" d="M414.464 153.693H244.562v71.481h183.701l-13.664-14.924-.135.166v-56.723z" fill="#FBF3AE"/>
        <path fill="#ACDBF5" d="M258.697 206.309h134.158v3.726H258.697z"/>
        <path d="M386.647 188.275v-.224c.005-.772.07-1.388.198-1.846.131-.459.322-.829.572-1.112.251-.282.552-.538.904-.767.263-.176.498-.359.706-.549.208-.19.373-.399.496-.629.123-.233.185-.494.185-.78 0-.305-.07-.571-.21-.801a1.426 1.426 0 0 0-.566-.529 1.642 1.642 0 0 0-.777-.185c-.275 0-.536.064-.782.192a1.51 1.51 0 0 0-.605.555c-.157.243-.241.545-.254.907h-2.596c.021-.882.225-1.61.611-2.183a3.526 3.526 0 0 1 1.533-1.29 5.061 5.061 0 0 1 2.106-.43c.844 0 1.591.145 2.24.436.649.287 1.158.704 1.527 1.25.369.547.553 1.207.553 1.979 0 .516-.083.974-.248 1.376a3.357 3.357 0 0 1-.681 1.058c-.292.304-.638.58-1.037.827a4.204 4.204 0 0 0-.827.648 2.214 2.214 0 0 0-.477.781c-.102.295-.155.659-.159 1.092v.224h-2.412zm1.26 4.234c-.424 0-.787-.154-1.088-.463a1.554 1.554 0 0 1-.439-1.124 1.526 1.526 0 0 1 .439-1.112 1.468 1.468 0 0 1 1.088-.463c.403 0 .757.155 1.063.463.305.309.46.68.464 1.112a1.58 1.58 0 0 1-.222.8c-.14.238-.325.43-.554.576a1.404 1.404 0 0 1-.751.211zM368.223 176.521h2.078v17.494h-2.078v-17.494zm-1.613 3.689 1.559.224c-.089 1.602-.394 3.837-.824 5.272l-1.613-.615c.43-1.248.753-3.335.878-4.881zm3.351.037 1.523-.652c.537 1.174 1.111 2.683 1.308 3.633l-1.613.764c-.179-.969-.717-2.534-1.218-3.745zm2.813-.447h9.37v14.066h-2.186v-11.923h-5.088v12.072h-2.096V179.8zm3.601-3.241 2.508.261c-.394 1.602-.878 3.222-1.29 4.303l-1.988-.335c.304-1.174.645-2.944.77-4.229zm-2.634 8.774h7.31v2.068h-7.31v-2.068zm0 5.645h7.31v2.161h-7.31v-2.161zM355.216 180.136h2.168v6.706h-2.168v-6.706zm-4.372.968h11.109v1.696h-11.109v-1.696zm-.752 2.459h12.721v1.658h-12.721v-1.658zm1.505 8.197h9.531v1.752h-9.531v-1.752zm-3.207-5.719h16.035v1.807H348.39v-1.807zm2.454 2.534h11.252v5.421h-2.168v-3.67h-7.005v3.689h-2.079v-5.44zm4.354-12.054h2.222v2.683h-2.222v-2.683zm-6.414 1.584h15.193v3.856h-2.186v-1.9H350.88v1.9h-2.096v-3.856zM333.555 176.521h2.186v3.222h-2.186v-3.222zm-3.315 2.123h8.762v2.012h-8.762v-2.012zm8.636 2.497h7.919v2.123h-7.919v-2.123zm-5.823 2.403v1.583h3.136v-1.583h-3.136zm-1.971-1.844h7.185v5.272h-7.185V181.7zm2.616 4.508h2.061v5.551c0 .951-.162 1.509-.753 1.863-.591.317-1.362.354-2.401.354-.071-.614-.376-1.471-.645-2.012.609.019 1.272.019 1.469.019.197-.019.269-.074.269-.261v-5.514zm-2.472 1.472 1.935.428c-.359 1.77-1.022 3.614-1.81 4.788-.34-.354-1.129-.969-1.577-1.248.681-.988 1.183-2.497 1.452-3.968zm4.891.428 1.684-.615c.484 1.006.95 2.31 1.129 3.186l-1.756.689c-.179-.875-.627-2.254-1.057-3.26zm7.149-10.414 1.666-.782c.806.875 1.541 2.105 1.845 2.981l-1.773.894c-.269-.876-.986-2.161-1.738-3.093zm-2.383-1.192h2.096v4.769c0 3.819-.412 9.278-3.942 12.78-.394-.41-1.272-1.043-1.809-1.323 3.35-3.167 3.655-8.159 3.655-11.457v-4.769zm1.451 7.545h1.953v7.247c0 .112.018.242.072.279.053.093.161.131.268.131h.359a.442.442 0 0 0 .304-.112c.072-.075.126-.261.161-.447.036-.336.054-1.155.036-2.105.377.354 1.057.726 1.559.894-.036 1.006-.125 2.105-.233 2.571-.125.465-.322.782-.627 1.024-.269.187-.681.298-1.093.298h-1.057c-.484 0-.967-.13-1.29-.465-.34-.373-.412-.708-.412-1.901v-7.414zM312.7 188.816h15.677v1.769H312.7v-1.769zm3.171-3.186h7.632v1.583h-7.632v-1.583zm3.583 2.329h2.114v3.986c0 1.006-.197 1.509-.949 1.789-.717.279-1.72.298-3.082.298a7.258 7.258 0 0 0-.663-1.882c.86.038 1.935.019 2.204.019.287-.019.376-.075.376-.298v-3.912zm3.548-2.329h.519l.448-.112 1.201 1.137a23.912 23.912 0 0 1-4.211 2.775c-.233-.335-.717-.875-.967-1.136 1.075-.559 2.4-1.602 3.01-2.291v-.373zm-10.32-2.403h15.73v3.837h-2.132v-2.216h-11.556v2.216h-2.042v-3.837zm1.039-5.887 2.508.521c-.036.149-.179.243-.466.299l.323 5.775h-1.989l-.376-6.595zm11.699-.205h2.043c-.108 2.291-.287 5.123-.484 6.893h-2.06c.233-1.826.43-4.658.501-6.893zm-2.526 0h3.315v1.397h-3.315v-1.397zm-5.554-.522 1.003 1.193c-.985.503-2.347.894-3.296 1.136l-.86-1.155c.949-.224 2.329-.801 3.153-1.174zm-2.49 2.553h3.368v1.378h-3.368v-1.378zm.053 2.03h3.351v1.379h-3.351v-1.379zm8.063-2.03h3.028v1.378h-3.028v-1.378zm-.054 2.03h3.028v1.379h-3.028v-1.379zm-1.774-4.564 1.38.428c-.806 1.137-2.15 2.199-3.368 2.869-.233-.279-.789-.763-1.129-1.006 1.236-.559 2.436-1.378 3.117-2.291zm-2.669.969.967-.839c1.057.522 2.383 1.398 3.046 2.05l-1.021.931c-.627-.633-1.935-1.546-2.992-2.142zm2.741 2.161 1.415.428c-.824 1.211-2.221 2.329-3.475 3.018a10.639 10.639 0 0 0-1.147-1.006c1.272-.596 2.526-1.472 3.207-2.44zm-2.688 1.024.986-.857c1.075.559 2.454 1.472 3.153 2.143l-1.075.95c-.627-.671-1.971-1.621-3.064-2.236zM305.067 179.93h5.948v2.049h-5.948v-2.049zm.179-3.428 2.06.317c-.519 3.837-1.451 7.563-3.028 9.911-.286-.41-1.075-1.249-1.522-1.621 1.379-2.012 2.114-5.254 2.49-8.607zm2.902 4.62 1.989.168c-.627 6.166-2.132 10.283-6.109 12.798-.18-.466-.789-1.397-1.147-1.826 3.547-2.03 4.82-5.756 5.267-11.14zm-1.952.522c.609 4.713 1.935 8.793 4.927 10.637-.466.391-1.111 1.23-1.416 1.77-3.261-2.254-4.604-6.632-5.339-12.147l1.828-.26zm-8.063-5.123h1.845v9.948h-1.845v-9.948zm-1.039 2.328v2.702h4.013v-2.702h-4.013zm-1.756-1.416h7.633v5.533h-7.633v-5.533zm1.398 7.471v.764h4.73v-.764h-4.73zm-1.774-1.36h8.367v3.465h-8.367v-3.465zm-.717 4.247c2.508 0 6.325-.055 9.908-.111l-.054 1.565c-3.547.093-7.292.149-9.8.186l-.054-1.64zm3.458-1.173 1.774.428a74.528 74.528 0 0 1-2.509 4.471l-1.737-.447c.752-1.173 1.773-3.018 2.472-4.452zm-1.093 4.452 1.021-1.285c2.061.726 4.282 1.807 5.572 2.664l-1.325 1.36c-1.183-.876-3.261-1.975-5.268-2.739zm4.157-2.496 1.791.205c-.734 3.316-2.884 4.583-7.148 5.309-.108-.577-.448-1.285-.753-1.714 3.619-.335 5.429-1.248 6.11-3.8zm-6.576-9.184h1.81v.13h6.092v-.13h2.06v1.602h-2.06v-.131h-6.092v.131h-1.81v-1.602zM276.471 177.695h9.138v1.993h-9.138v-1.993zm.538 8.868h8.045v1.993h-8.045v-1.993zm2.974-1.807h2.132v7.023l-2.132.335v-7.358zm-3.709 6.594c2.383-.223 6.02-.67 9.371-1.08l.054 2.086c-3.208.447-6.648.913-9.102 1.23l-.323-2.236zm.162-8.849c2.06-.037 5.178-.13 8.17-.242l-.054 1.919c-2.849.168-5.841.298-7.991.391l-.125-2.068zm5.5-1.62 1.595-.876c1.003 1.267 2.15 2.981 2.598 4.154l-1.703 1.006c-.412-1.155-1.505-2.962-2.49-4.284zm-2.92-1.975 2.329.503c-.627 1.583-1.326 3.372-1.917 4.527l-1.81-.503c.52-1.23 1.111-3.149 1.398-4.527zm7.256-.112h2.06v10.544h-2.06v-10.544zm4.085-1.751h2.096v14.307c0 1.267-.233 1.882-.949 2.236-.717.354-1.882.428-3.405.428-.089-.633-.394-1.639-.698-2.272 1.075.056 2.168.037 2.526.037.322-.019.43-.112.43-.447v-14.289zM262.354 184.755h10.714v9.314H270.9v-7.619h-6.486v7.619h-2.06v-9.314zm-3.566-2.534h15.964v1.751h-15.964v-1.751zm1.254-2.496h13.725v1.695h-13.725v-1.695zm3.709 7.507h8.027v1.416h-8.027v-1.416zm0 2.217h8.027v1.397h-8.027v-1.397zm-.251 2.254h8.278v1.696H263.5v-1.696zm8.959-15.127 1.254 1.602c-3.673.634-9.012.857-13.456.82-.035-.484-.233-1.23-.412-1.677 4.39 0 9.586-.223 12.614-.745zm-7.633 1.546 2.24.466c-1.219 4.639-3.369 9.073-7.507 11.55-.287-.503-.914-1.341-1.344-1.769 3.798-2.124 5.769-6.223 6.611-10.247z" fill="#464646"/>
        <path d="M334.146 23.125h188.376l4.722 6.216v71.258l13.391 16.766h-202.24l-4.249-7.77v-86.47z" fill="#5F5F5F"/>
        <path fill-rule="evenodd" clip-rule="evenodd" d="M522.522 22.355H334.146v86.723h199.77l-11.394-15.074V22.356z" fill="#FBF3AE"/>
        <path fill="#ACDBF5" d="M349.554 93.147h155.875v3.726H349.554z"/>
        <path d="M428.62 74.388c-.376-2.925 3.44-3.577 3.44-5.384 0-1.136-.86-1.77-2.275-1.77-1.093 0-1.989.522-2.867 1.472l-1.469-1.397c1.147-1.379 2.724-2.291 4.641-2.291 2.598 0 4.497 1.266 4.497 3.744 0 2.72-3.924 3.055-3.637 5.626h-2.33zm1.183 4.974c-.932 0-1.595-.689-1.595-1.658 0-.968.681-1.64 1.595-1.64.896 0 1.577.672 1.577 1.64 0 .969-.681 1.658-1.577 1.658zM407.318 78.58h9.442v1.715h-9.442V78.58zm-.968-2.98h11.503v5.198h-2.204v-3.503h-7.184v3.559h-2.115V75.6zm-1.343-10.265h14.154v1.621h-14.154v-1.62zm-.502 4.639h15.193v1.62h-15.193v-1.62zm1.684-2.31h11.807v1.565h-11.807v-1.565zm-2.257 5.533h16.322v1.714h-16.322v-1.714zm6.987-7.08h2.222v7.788h-2.222v-7.787zm-3.637-2.272 1.953-.522a7.73 7.73 0 0 1 .967 1.92l-2.042.614c-.125-.54-.502-1.397-.878-2.012zm-.824 7.936 1.989-.447c.358.522.698 1.23.842 1.714l-2.079.54c-.089-.503-.43-1.267-.752-1.807zm8.259-8.476 2.276.39c-.43.802-.86 1.491-1.201 1.994l-1.952-.372c.304-.596.698-1.416.877-2.012zm.914 8.048 2.204.335c-.376.708-.681 1.285-.95 1.714l-2.006-.335c.251-.503.573-1.211.752-1.714zM387.448 69.694h4.174v2.012h-4.174v-2.012zm-1.165-4.918h6.611v7.564h-2.078v-5.496h-4.533v-2.068zm0 4.918h2.079v5.7c0 .672.107.746.752.746h1.828c.555 0 .662-.26.734-1.956.43.354 1.326.708 1.917.857-.251 2.534-.824 3.204-2.454 3.204h-2.33c-1.97 0-2.526-.615-2.526-2.813v-5.738zm8.851-3.074h7.453v2.124h-7.453V66.62zm.143-3.241 2.24.41c-.717 3.446-1.971 6.688-3.583 8.7-.412-.392-1.362-1.1-1.9-1.435 1.595-1.732 2.688-4.639 3.243-7.675zm3.906 4.154 2.186.242c-.914 6.875-3.153 10.899-8.349 13.171-.215-.521-.878-1.508-1.29-1.993 4.837-1.807 6.754-5.328 7.453-11.42zm-3.081.764c.877 4.918 2.812 8.85 6.754 10.544-.484.448-1.164 1.36-1.487 1.975-4.246-2.105-6.163-6.39-7.238-12.165l1.971-.354zM368.259 65.615h15.982V67.7h-15.982v-2.086zm4.838 6.706h7.793v1.863h-7.793v-1.863zm-1.595-3.148h9.066v1.956h-6.934v9.706h-2.132V69.173zm8.636 0h2.096v9.259c0 1.099-.197 1.714-.931 2.067-.717.336-1.738.355-3.19.355-.089-.615-.376-1.565-.663-2.143.932.056 1.989.037 2.294.037.286 0 .394-.093.394-.354v-9.221zm-6.325-5.831 2.222.521c-1.254 4.21-3.404 8.496-6.898 11.03-.304-.504-.985-1.305-1.415-1.734 3.189-2.18 5.196-6.184 6.091-9.817zm-.716 12.053h7.793v1.863h-7.793v-1.863zM358.459 64.981h6.038v2.012h-6.038v-2.012zm-2.419 7.042h8.314v2.012h-8.314v-2.012zm7.597-7.042h2.15s-.018.54-.054.82c-.179 3.018-.412 4.378-.896 4.937-.394.447-.842.615-1.451.67-.502.056-1.379.075-2.329.038-.054-.615-.305-1.49-.645-2.05.806.075 1.612.094 1.971.094.286 0 .466-.02.645-.168.286-.298.466-1.397.609-4.061v-.28zm-5.698-1.64 2.204.299c-.484 3.595-1.612 6.483-3.494 8.29-.376-.354-1.325-1.08-1.845-1.397 1.828-1.49 2.777-4.08 3.135-7.191zm5.662 8.682h.43l.376-.074 1.434.596c-1.541 4.955-5.25 7.247-10.069 8.308-.198-.596-.681-1.527-1.075-2.03 4.353-.708 7.74-2.739 8.904-6.483v-.317zm-4.604 1.807c1.397 2.46 4.3 4.248 7.937 4.974-.484.485-1.093 1.416-1.416 2.03-3.834-.987-6.683-3.148-8.439-6.315l1.918-.689zm-8.045-8.756 1.165-1.64c1.146.467 2.651 1.268 3.368 1.938l-1.254 1.826c-.681-.69-2.132-1.583-3.279-2.124zm-1.075 5.049 1.129-1.677c1.146.447 2.669 1.248 3.422 1.882l-1.219 1.844c-.68-.652-2.167-1.528-3.332-2.05zm.627 9.035c.914-1.416 2.204-3.726 3.243-5.887l1.612 1.453a76.956 76.956 0 0 1-3.01 5.887l-1.845-1.453zM485.81 39.14h2.132v5.962h-2.132v-5.961zm-3.619.858h9.496v1.36h-9.496v-1.36zm.43 1.993h8.654v1.285h-8.654v-1.285zm-.878 1.919h10.302v1.397h-10.302V43.91zm3.046 5.458v.801h4.354v-.8h-4.354zm0 2.068v.801h4.354v-.8h-4.354zm0-4.117v.764h4.354v-.764h-4.354zm-1.935-1.379h8.313v7.676h-8.313V45.94zm4.623 8.533 1.433-1.08c1.164.726 2.598 1.62 3.404 2.216l-1.863 1.043a38.495 38.495 0 0 0-2.974-2.18zm-2.616-1.174 1.666 1.155c-1.093.876-2.885 1.788-4.336 2.273a13.622 13.622 0 0 0-1.326-1.397c1.434-.429 3.136-1.304 3.996-2.031zm-6.862-14.14 1.863.67c-.735 1.454-1.559 3.112-2.24 4.155l-1.433-.614c.627-1.118 1.398-2.925 1.81-4.21zm2.024 2.199 1.738.838c-1.308 2.086-3.046 4.676-4.425 6.278l-1.237-.727c1.344-1.676 2.975-4.396 3.924-6.39zm-4.802 2.142 1.058-1.49c.931.875 2.024 2.086 2.454 2.962l-1.164 1.714c-.395-.913-1.452-2.236-2.348-3.186zm4.301 2.273 1.505-.634c.68 1.248 1.361 2.87 1.558 3.931l-1.612.745c-.197-1.062-.806-2.757-1.451-4.042zm-4.354 1.546c1.612-.093 3.924-.224 6.163-.373l.018 1.807c-2.132.205-4.336.354-6.038.485l-.143-1.919zm4.784 3.111 1.487-.484c.43 1.043.806 2.403.913 3.297l-1.594.54c-.072-.894-.412-2.291-.806-3.353zm-4.014-.335 1.72.298c-.179 1.788-.555 3.633-1.075 4.825-.358-.242-1.147-.596-1.559-.783.502-1.099.771-2.775.914-4.34zm1.971-1.789h1.845v8.328h-1.845v-8.328zM460.118 46.146h4.138v2.05h-4.138v-2.05zm3.314 0h2.096s-.017.559-.017.82c-.072 3.95-.162 5.607-.574 6.185-.358.465-.716.633-1.236.726-.484.075-1.254.075-2.096.056-.036-.652-.269-1.527-.592-2.086.645.074 1.255.074 1.541.074.251 0 .412-.037.556-.223.215-.298.286-1.602.322-5.217v-.335zm5.393-5.831 1.29-1.36c.986.54 2.311 1.397 2.956 2.012l-1.379 1.509c-.591-.652-1.864-1.565-2.867-2.161zm2.114 4.788 2.168.54c-1.505 4.862-4.139 8.644-7.686 10.917-.323-.466-1.111-1.397-1.559-1.844 3.44-1.92 5.841-5.291 7.077-9.613zm-10.696-3.167h13.814v2.198h-13.814v-2.198zm-1.433 0h2.257v5.477c0 2.794-.304 6.93-1.935 9.445-.358-.447-1.326-1.267-1.827-1.528 1.379-2.235 1.505-5.495 1.505-7.936v-5.458zm7.274-2.776h2.257c-.125 7.6 1.523 15.071 3.333 15.071.412 0 .627-.95.734-3.297.484.521 1.255 1.043 1.828 1.267-.34 3.465-1.057 4.303-2.741 4.303-3.906 0-5.357-8.849-5.411-17.344zM444.638 53.934h11.735v2.068h-11.735v-2.068zm3.494-6.725v2.813h4.604v-2.813h-4.604zm0-4.807v2.739h4.604v-2.739h-4.604zm-2.222-2.067h9.173V52.09h-9.173V40.335zm-2.454-1.118 2.096.69c-1.183 3.185-3.118 6.575-5.124 8.699-.197-.559-.807-1.826-1.183-2.403 1.666-1.677 3.279-4.322 4.211-6.986zm-1.81 5.142 2.132-2.199v14.457h-2.132V44.359zM424.088 48.792h12.058v7.88h-2.24v-6.184h-7.686v6.184h-2.132v-7.88zm1.075 2.757h9.317v1.677h-9.317v-1.677zm.108 2.776h9.298v1.677h-9.298v-1.677zm3.583-7.228 2.311.335c-.466.95-.985 1.882-1.397 2.478l-1.756-.391c.322-.727.681-1.714.842-2.422zm-6.719-7.117h5.787v1.714h-5.787V39.98zm5.303 0h1.935v6.167c0 .875-.179 1.304-.734 1.565-.573.26-1.362.26-2.455.26-.071-.484-.322-1.136-.537-1.583.627.019 1.308.019 1.505.019.215 0 .286-.075.286-.261V39.98zm2.885 0h6.181v1.714h-6.181V39.98zm5.178 0h2.007v6.11c0 .914-.18 1.36-.789 1.659-.609.26-1.469.28-2.651.26a7.082 7.082 0 0 0-.556-1.676c.663.037 1.469.037 1.684.019.233-.019.305-.056.305-.28V39.98zm-5.698 5.478a99.854 99.854 0 0 0 4.945-1.696l.323 1.602a155.37 155.37 0 0 1-4.551 1.752l-.717-1.658zm.843-2.664 1.021-1.304c.806.39 1.881 1.043 2.401 1.546l-1.075 1.453c-.484-.522-1.541-1.23-2.347-1.695zm-8.995 2.98c1.201-.354 2.957-.987 4.695-1.62l.304 1.602a173.775 173.775 0 0 1-4.228 1.844l-.771-1.826zm.95-2.962 1.039-1.285c.788.41 1.828 1.062 2.311 1.565l-1.075 1.415c-.465-.503-1.469-1.23-2.275-1.695zM414.198 49.927h2.042v6.688h-2.042v-6.688zm-4.031-9.128h9.961v1.919h-9.961v-1.92zm2.365 7.042v.987h5.357v-.987h-5.357zm0-2.497v1.006h5.357v-1.006h-5.357zm-1.882-1.583h9.21v6.65h-9.21v-6.65zm5.788 5.719c.931 1.751 2.705 3.67 4.353 4.695-.483.39-1.146 1.155-1.469 1.695-1.666-1.304-3.404-3.614-4.443-5.794l1.559-.596zm-2.545.112 1.649.577c-1.093 2.422-2.957 4.676-4.981 5.924a9.867 9.867 0 0 0-1.416-1.714c1.918-.968 3.799-2.868 4.748-4.787zm.305-10.451h2.042v5.589h-.125v5.272h-1.792v-5.273h-.125v-5.588zm-7.865.018 1.863.67c-.735 1.454-1.559 3.112-2.24 4.155l-1.433-.614c.627-1.118 1.397-2.925 1.81-4.21zm2.024 2.199 1.738.838c-1.308 2.086-3.046 4.676-4.425 6.278l-1.237-.727c1.344-1.676 2.975-4.396 3.924-6.39zm-4.802 2.142 1.058-1.49c.931.875 2.024 2.086 2.454 2.962l-1.164 1.714c-.395-.913-1.452-2.236-2.348-3.186zm4.193 2.329 1.487-.652c.717 1.266 1.398 2.906 1.613 3.968l-1.613.763c-.197-1.08-.824-2.794-1.487-4.08zm-4.246 1.49c1.612-.093 3.923-.224 6.163-.373l.018 1.826c-2.096.168-4.282.335-5.948.466l-.233-1.919zm4.783 3.148 1.505-.484c.413.987.753 2.254.86 3.093l-1.576.54c-.09-.857-.412-2.18-.789-3.149zm-4.013-.372 1.72.298c-.179 1.788-.555 3.633-1.075 4.825-.358-.242-1.147-.596-1.559-.783.502-1.099.771-2.775.914-4.34zm1.971-1.789h1.845v8.328h-1.845v-8.328zM386.552 43.015h13.724v2.292h-13.724v-2.292zm12.846 0h2.24s-.018.764-.054 1.08c-.358 7.453-.717 10.284-1.523 11.272-.52.708-1.039.913-1.827 1.024-.681.112-1.792.093-2.885.038-.036-.652-.34-1.658-.753-2.31a35.58 35.58 0 0 0 2.688.111c.358 0 .573-.074.824-.316.627-.634.986-3.577 1.29-10.452v-.447zm-7.346-3.837h2.276v3.837c0 4.23-.574 10.135-6.665 13.712-.341-.54-1.147-1.416-1.684-1.807 5.572-3.149 6.073-8.31 6.073-11.905v-3.837zM368.08 41.098h6.808v1.882h-6.808v-1.882zm8.618-.95h6.145v1.881h-6.145v-1.881zm-5.304-1.062 1.953.41a111.725 111.725 0 0 1-3.153 6.744l-1.738-.801c.896-1.64 2.132-4.304 2.938-6.353zm-2.114 6.502 1.129-1.416c1.809.633 4.3 1.77 5.59 2.645l-1.236 1.602c-1.183-.857-3.638-2.086-5.483-2.831zm9.55-3.521c.931 2.72 2.938 4.731 5.984 5.551-.43.41-.986 1.248-1.254 1.789-3.351-1.1-5.357-3.465-6.54-6.893l1.81-.447zm-9.514 7.88h12.327v1.881h-12.327v-1.881zm11.467 0h2.347s-.036.596-.072.875c-.287 3.112-.645 4.509-1.183 5.086-.465.466-.949.615-1.576.671-.556.056-1.505.056-2.544.019-.036-.596-.269-1.416-.592-1.975.86.093 1.702.112 2.079.112.304 0 .501-.038.681-.205.34-.336.645-1.547.86-4.285v-.298zm-5.967-1.51h2.186c-.376 4.304-1.344 7.024-7.668 8.31-.179-.578-.681-1.472-1.093-1.92 5.697-.968 6.271-2.98 6.575-6.39zm-.358-7.34h.376l.359-.055 1.182.28c-.86 5.123-3.494 7.228-7.668 8.215-.179-.54-.556-1.36-.914-1.788 3.637-.596 5.984-2.46 6.665-6.39v-.261zm7.722-.95h.358l.359-.074 1.272.429c-.968 4.564-3.494 7.042-7.024 8.308-.232-.521-.698-1.303-1.092-1.732 3.081-.894 5.375-3.167 6.127-6.632v-.298zM356.649 39.998h2.186V54.66l-2.186.522V39.998zm.968 0h7.973v8.812h-7.973v-1.937h5.787v-4.918h-5.787v-1.956zm0 3.466h6.701v1.863h-6.701v-1.863zm-2.526 10.786c1.702-.224 4.246-.615 6.665-1.006l.143 1.993c-2.168.41-4.497.82-6.271 1.118l-.537-2.105zm6.933-6.297c.681 3.149 2.186 5.664 4.909 6.744-.465.429-1.11 1.323-1.415 1.938-3.028-1.435-4.497-4.378-5.357-8.346l1.863-.336zm2.974 1.248 1.523 1.23a21.28 21.28 0 0 1-3.171 2.478l-1.362-1.174c.932-.615 2.24-1.695 3.01-2.534zm-10.785-6.11 1.917.801c-1.326 2.291-3.44 4.713-5.322 6.222-.197-.484-.788-1.64-1.128-2.123 1.648-1.193 3.458-3.056 4.533-4.9zm-.556-3.93 2.043.856c-1.219 1.733-3.064 3.596-4.784 4.732-.215-.503-.735-1.416-1.057-1.882 1.415-.912 3.028-2.459 3.798-3.707zm-1.272 8.252 1.989-2.068.107.056v11.234h-2.096v-9.222z" fill="#464646"/>
        <path d="M20.886 22.355h162.392l6.158 3.838v47.33l14.779 12.153H26.428l-5.542-4.797V22.355z" fill="#5F5F5F"/>
        <path fill-rule="evenodd" clip-rule="evenodd" d="M184.442 22.355H20.604V80.56H197.75l-13.176-12.152-.131.135V22.355z" fill="#FBF3AE"/>
        <path fill="#ACDBF5" d="M39.417 64.272h125.417v3.726H39.417z"/>
        <path d="M154.496 49.238c-.376-2.925 3.44-3.577 3.44-5.384 0-1.136-.86-1.77-2.275-1.77-1.093 0-1.989.522-2.867 1.472l-1.469-1.397c1.147-1.379 2.724-2.292 4.641-2.292 2.598 0 4.497 1.267 4.497 3.745 0 2.72-3.924 3.055-3.637 5.626h-2.33zm1.183 4.974c-.932 0-1.595-.69-1.595-1.658 0-.969.681-1.64 1.595-1.64.896 0 1.577.671 1.577 1.64 0 .969-.681 1.658-1.577 1.658zM136.006 49.07h10.41v2.012h-10.41V49.07zm5.447-8.495v2.03h2.15v-2.03h-2.15zm-1.863-1.845h5.984v5.72h-5.984v-5.72zm2.293 13.32 1.774-1.005c1.039 1.043 2.329 2.514 2.92 3.52l-1.917 1.137c-.502-1.006-1.738-2.552-2.777-3.651zm-5.232-11.83h1.935v7.974h-1.935v-7.973zm2.204 10.731 1.881 1.118c-.86 1.286-2.329 2.776-3.619 3.633-.358-.429-1.057-1.062-1.559-1.435 1.255-.763 2.616-2.217 3.297-3.316zm-1.182-5.458h7.417v4.546h-2.096v-2.627h-5.321v-1.919zm-7.346-1.565h4.999v1.677h-4.999v-1.677zm.107-5.142h4.838v1.696h-4.838v-1.696zm-.107 7.676h4.999v1.695h-4.999v-1.695zm-.806-5.16h6.396v1.77h-6.396v-1.77zm1.791 7.75h4.049v5.625h-4.049v-1.75h2.294v-2.125h-2.294v-1.75zm-1.039 0h1.756v6.408h-1.756V49.05zM119.254 40.426h8.797v1.881h-8.797v-1.881zm-.556 3.93h9.765v1.938h-9.765v-1.937zm2.043 5.925h5.536v1.64h-5.536v-1.64zm0 2.85h5.536v1.826h-5.536V53.13zm-.86-5.756h7.597v8.308h-2.043v-6.538h-3.601v6.538h-1.953v-8.308zm.86-9.166h1.953v7.228h-1.953V38.21zm3.637 0h1.971v7.228h-1.971V38.21zm-11.592 4.62h5.339v1.863h-5.339v-1.863zm-.806 3.242h6.647v1.9h-6.647v-1.9zm.125 2.962 1.398-.373c.322 1.025.609 2.347.716 3.204l-1.505.429c-.054-.894-.304-2.217-.609-3.26zm-.34 4.266c1.809-.242 4.533-.69 7.13-1.136l.108 1.881c-2.365.466-4.891.931-6.808 1.267l-.43-2.012zm5.375-4.807 1.63.41c-.358 1.118-.699 2.366-1.003 3.149l-1.272-.392c.233-.875.537-2.235.645-3.167zm-2.706-4.862h1.864v10.004l-1.864.335V43.63zm0-5.421h1.165v.41h.609v.596c-.681 1.416-1.774 3.353-3.548 5.03-.268-.466-.895-1.192-1.307-1.49 1.505-1.342 2.526-3.093 3.081-4.546zm.269 0h1.505c1.093.969 2.49 2.366 3.153 3.372l-1.397 1.714c-.574-.988-1.846-2.627-2.885-3.503h-.376V38.21zM94.027 50.896h16.233v1.77H94.027v-1.77zm4.246-5.086v.671h7.973v-.67h-7.973zm0 1.938v.69h7.973v-.69h-7.973zm0-3.856v.67h7.973v-.67h-7.973zm-2.168-1.342h12.417v7.229H96.105V42.55zm8.135 6.875h2.221v6.24h-2.221v-6.24zM96.213 39.42h5.644v1.77h-5.644v-1.77zm7.113 0h6.862v1.77h-6.862v-1.77zm-7.041-1.36 2.006.578c-.734 1.64-1.935 3.316-3.028 4.36-.412-.355-1.254-.932-1.738-1.212 1.13-.894 2.186-2.328 2.76-3.726zm7.292 0 2.042.522c-.609 1.62-1.702 3.204-2.723 4.192-.448-.336-1.38-.82-1.899-1.043 1.128-.876 2.078-2.273 2.58-3.67zm-6.647 2.72 1.773-.614c.448.577.95 1.397 1.165 1.956l-1.863.69c-.197-.541-.645-1.417-1.075-2.032zm7.883-.018 1.72-.745c.573.577 1.272 1.397 1.594 1.993l-1.809.82c-.287-.56-.932-1.453-1.505-2.068zm-6.522 8.644h2.168v1.788c0 1.752-.914 3.465-4.855 4.509-.287-.466-.878-1.211-1.344-1.64 3.44-.689 4.031-1.937 4.031-2.906v-1.751zM83.063 44.468h9.71v2.217h-9.71v-2.217zm3.78-6.185h2.186v17.419h-2.186V38.283zm-10.195 5.645h5.788v1.677h-5.788v-1.677zm.108-5.142h5.715v1.695h-5.715v-1.695zm-.108 7.675h5.788v1.696h-5.788v-1.695zm-.877-5.16h7.381v1.77H75.77v-1.77zm1.863 7.75h4.748v5.663h-4.748v-1.77H80.5v-2.123h-2.867v-1.77zm-1.04 0h1.864v6.409h-1.863V49.05zM58.373 46.165h15.875v1.975H58.373v-1.975zm8.027 3.372h6.701v1.919h-6.7v-1.919zm-1.003-2.366h2.168v6.893h-2.168v-6.893zm-2.777 2.98c.985 2.72 3.26 3.15 6.396 3.168.985.018 4.443 0 5.733-.037-.304.484-.627 1.471-.734 2.123H68.89c-4.121 0-6.576-.764-8.045-4.657l1.774-.596zm-1.559-1.62 2.15.317c-.591 3.074-1.881 5.42-3.87 6.893-.322-.41-1.147-1.23-1.613-1.565 1.828-1.174 2.92-3.149 3.333-5.645zm1.057-5.7v.93h8.224v-.93h-8.224zm0-2.404v.932h8.224v-.932h-8.224zm-2.078-1.583h12.488v6.501H60.04v-6.501zM48.555 41.563v5.515h5.877v-5.515h-5.877zm-1.684-1.62h9.316v8.774h-9.316v-8.774zm3.852-1.789 2.383.336a30.903 30.903 0 0 1-1.29 2.626l-1.792-.39c.269-.765.573-1.808.699-2.572zm-1.38 11.197 1.254-1.1c1.022.522 2.276 1.398 2.885 2.106l-1.362 1.21c-.555-.67-1.773-1.62-2.777-2.216zm4.193 1.676 1.54-.782c.86 1.23 1.649 2.887 1.936 4.024l-1.649.857c-.25-1.155-1.003-2.85-1.827-4.099zm-4.444-.67h1.81v2.962c0 .465.054.503.43.503h1.021c.34 0 .412-.15.466-1.36.34.298 1.111.596 1.613.726-.197 1.938-.7 2.422-1.846 2.422h-1.54c-1.613 0-1.953-.559-1.953-2.273v-2.98zm-1.88.205 1.665.41c-.215 1.602-.573 3.222-1.505 4.191l-1.54-.857c.806-.875 1.218-2.291 1.38-3.744zm3.726-9.092 1.308.205c-.52 1.416-1.308 2.832-2.688 3.95-.215-.298-.663-.708-.985-.876a6.845 6.845 0 0 0 2.365-3.279zm.358.801h2.06v1.062h-2.58l.52-1.062zm1.613 0h.25l.233-.056.878.354c-.68 2.404-2.203 4.006-4.03 4.863a4.102 4.102 0 0 0-.825-1.044c1.577-.67 2.992-2.105 3.494-3.912v-.205zm-4.318 1.286.931-.913c1.667.801 3.673 2.105 4.748 3.018l-.95 1.025c-1.038-.97-3.045-2.33-4.73-3.13zm-5.966-5.328 1.81.652c-.718 1.453-1.542 3.111-2.205 4.154l-1.397-.596c.627-1.118 1.397-2.925 1.792-4.21zm1.917 2.198 1.702.801c-1.254 2.105-2.885 4.695-4.193 6.278l-1.2-.689c1.272-1.677 2.813-4.397 3.69-6.39zm-4.695 2.087 1.058-1.472c.913.894 1.988 2.124 2.418 2.962l-1.128 1.677c-.395-.913-1.452-2.236-2.348-3.167zm4.157 2.291 1.416-.596c.645 1.285 1.272 2.98 1.433 4.08l-1.505.67c-.143-1.08-.717-2.831-1.344-4.154zm-4.21 1.584c1.54-.075 3.726-.224 5.876-.373l.018 1.844c-1.988.168-4.067.317-5.661.447l-.233-1.919zm4.497 3.148 1.433-.447c.43 1.062.789 2.459.896 3.372l-1.505.503c-.072-.932-.412-2.348-.824-3.428zm-3.727-.373 1.666.298c-.179 1.77-.573 3.614-1.075 4.807-.34-.242-1.093-.596-1.505-.764.502-1.1.77-2.776.914-4.34zm1.846-1.788h1.81v8.327h-1.81v-8.327z" fill="#464646"/>
        <path d="M45.073 281.77H180.59l6.158 3.837v69.22l14.779 12.152H50.615l-5.542-4.797V281.77z" fill="#5F5F5F"/>
        <path fill-rule="evenodd" clip-rule="evenodd" d="M181.854 281.305H44.792v80.106H170.55l-.439.453h24.95l-13.176-12.152-.031.031v-68.438z" fill="#FBF3AE"/>
        <path fill="#ACDBF5" d="M62.709 345.576h100.333v3.726H62.709z"/>
        <path d="M123.106 324.172h7.453v2.254h-7.453v-2.254zm-7.668 8.737h16.375v2.254h-16.375v-2.254zm6.449-14.102h2.312v15.35h-2.312v-15.35zM97.897 319.83h15.624v2.292H97.897v-2.292zm8.654 6.241 1.666-1.453c1.917 1.453 4.676 3.595 5.984 5.086l-1.827 1.714c-1.183-1.472-3.834-3.764-5.823-5.347zm-.717-5.403 2.401.876c-2.042 3.931-5.303 7.731-9.424 9.967-.34-.596-1.021-1.528-1.47-2.031 3.835-1.881 7.006-5.496 8.493-8.812zm-1.308 4.509 2.365-2.441v13.302h-2.365v-10.861zM82.022 321.19v2.422h2.276v-2.422h-2.276zm-1.845-1.881h6.056v6.185h-6.056v-6.185zm2.383 5.421h1.881v8.309H82.56v-8.309zm-2.473 2.086h1.72v6.781h-1.72v-6.781zm-.842 6.372c1.81-.429 4.658-1.249 7.328-2.012l.269 1.844a511.33 511.33 0 0 1-7.077 2.254l-.52-2.086zm4.193-5.738h3.117v1.937h-3.117v-1.937zm3.87-8.123h2.078V334.1l-2.078.466v-15.239zm1.11 0h6.862v8.793h-6.862v-1.956h4.766v-4.881h-4.766v-1.956zm.036 3.372h5.5v1.938h-5.5v-1.938zm-2.365 11.029c1.487-.261 3.673-.745 5.77-1.192l.197 1.937c-1.882.484-3.906.969-5.483 1.341l-.484-2.086zm5.949-6.725c.555 3.316 1.791 6.017 4.371 7.153-.466.429-1.093 1.304-1.38 1.9-2.938-1.527-4.192-4.601-4.908-8.774l1.917-.279zm2.615 1.322 1.505 1.528c-1.075.801-2.293 1.621-3.225 2.161l-1.164-1.304c.878-.578 2.15-1.621 2.884-2.385zM73.53 320.242l1.612-1.155c.986.875 2.15 2.123 2.688 2.999l-1.738 1.267c-.466-.895-1.595-2.199-2.562-3.111zm-11.736 3.632h16.18v2.124h-16.18v-2.124zm-.34 5.272c2.168-.335 5.572-.95 8.708-1.546l.16 2.031c-2.902.633-6.02 1.285-8.33 1.77l-.538-2.255zm3.745-8.271h2.168v12.593c0 1.211-.233 1.826-.968 2.18-.717.354-1.774.429-3.243.429-.09-.634-.448-1.64-.77-2.273 1.021.056 2.06.056 2.383.037.322 0 .43-.093.43-.41v-12.556zm3.673-2.18 1.45 1.901c-2.328.745-5.392 1.248-7.99 1.546-.108-.522-.376-1.36-.627-1.863 2.526-.354 5.321-.932 7.167-1.584zm1.755.038h2.258c-.126 7.507 1.487 15.145 3.117 15.145.377 0 .574-.913.681-3.129a5.328 5.328 0 0 0 1.756 1.285c-.34 3.297-1.021 4.117-2.652 4.117-3.708 0-5.106-9.054-5.16-17.418zm4.874 7.88 1.899.838c-1.863 3.465-4.784 6.241-8.027 8.029-.322-.558-.913-1.304-1.451-1.807 3.064-1.453 5.984-3.986 7.579-7.06zM153.958 312.751l-.573-1.49c1.505-.503 2.329-1.416 2.329-2.478l-.125-1.844.985 1.676c-.287.28-.663.41-1.057.41-.896 0-1.72-.596-1.72-1.676 0-1.044.806-1.677 1.774-1.677 1.254 0 1.935 1.006 1.935 2.571 0 2.105-1.326 3.819-3.548 4.508zM135.307 294.365h2.132v17.493h-2.132v-17.493zm-1.559 3.689 1.541.223c-.072 1.603-.394 3.819-.824 5.254l-1.595-.596c.43-1.248.753-3.335.878-4.881zm3.207.037 1.469-.652c.538 1.136 1.147 2.627 1.38 3.558l-1.577.764c-.179-.95-.752-2.496-1.272-3.67zm2.562-.913h9.174v6.67h-2.115v-4.583h-7.059v-2.087zm-.824 5.496h11.126v2.142h-11.126v-2.142zm6.343.447c.77 3.074 2.382 5.608 5.16 6.688-.502.484-1.201 1.453-1.523 2.105-3.082-1.49-4.623-4.49-5.572-8.402l1.935-.391zm-2.419-8.756h2.168v6.614c0 3.781-.735 8.234-5.375 10.972-.287-.465-1.022-1.304-1.523-1.732 4.479-2.254 4.73-6.111 4.73-9.259v-6.595zM122.765 295.297h7.275v2.068h-7.275v-2.068zm-.609 6.483h9.89v2.105h-9.89v-2.105zm3.781-2.18h2.168v9.781c0 1.117-.215 1.713-.914 2.067-.717.336-1.702.41-3.028.392-.108-.615-.466-1.584-.753-2.18.914.037 1.846.056 2.15.037.287-.018.377-.093.377-.354V299.6zm3.332-4.303h.52l.448-.112 1.397 1.099c-1.057 1.621-2.58 3.596-3.977 4.825-.287-.391-.878-1.006-1.219-1.304 1.057-1.062 2.294-2.906 2.831-4.024v-.484zm-13.939 2.775h5.787v2.068h-5.787v-2.068zm2.401-3.707 2.024.224c-.68 3.968-1.72 8.961-2.562 12.314l-1.755-.969c.77-2.943 1.737-7.862 2.293-11.569zm-1.362 11.252 1.183-1.564c1.863 1.21 4.228 3.018 5.267 4.415l-1.29 1.807c-1.003-1.416-3.279-3.372-5.16-4.658zm4.014-7.545h.34l.376-.055 1.272.223c-.412 7.266-2.15 11.383-5.697 13.674-.287-.54-.86-1.341-1.29-1.77 3.046-1.658 4.64-5.775 4.999-11.662v-.41zM103.988 295.668h9.837v1.584h-9.837v-1.584zm-.448 4.676h10.607v1.677H103.54v-1.677zm-.035 7.024h10.696v1.751h-10.696v-1.751zm1.845-2.254h7.167v1.378h-7.167v-1.378zm-1.021-7.117h9.119v1.546h-9.119v-1.546zm1.541-3.651h1.917v6.744h-1.917v-6.744zm3.995 0h1.935v6.744h-1.935v-6.744zm-1.971 6.837h1.774v7.228h-1.774v-7.228zm3.44 1.527h1.953v7.191c0 .913-.179 1.379-.788 1.677-.609.261-1.487.279-2.688.279a7.194 7.194 0 0 0-.501-1.714c.698.038 1.505.038 1.72.019.232-.019.304-.074.304-.298v-7.154zm-6.934 0h7.651v1.547h-5.841v7.619h-1.81v-9.166zm-6.324-2.496h4.927v1.677h-4.927v-1.677zm.09-5.272h4.765v1.695h-4.766v-1.695zm-.09 7.88h4.927v1.677h-4.927v-1.677zm-.806-5.291h6.252v1.752h-6.253v-1.752zm1.791 7.918h4.014v5.663h-4.014v-1.751h2.222v-2.142h-2.222v-1.77zm-1.039 0h1.756v6.408h-1.756v-6.408zM80.911 297.121h4.91v5.664h-4.91v-1.882h3.01v-1.9h-3.01v-1.882zm.054 6.875H86v6.017h-5.035v-1.863H84.1v-2.273h-3.135v-1.881zm-.842-6.875h1.9v14.084h-1.9v-14.084zm6.181-1.9h9.765v2.031h-9.765v-2.031zm-4.174-.875 2.383.242c-.413 1.192-.914 2.478-1.326 3.335l-1.684-.336c.25-.95.537-2.273.627-3.241zm8.044 1.844H92.2v15.649h-2.025V296.19zm-3.26 2.739h7.74v1.993h-5.788v8.048h-1.953v-10.041zm6.7 0h1.989v8.066c0 .876-.125 1.416-.645 1.751-.502.336-1.147.354-2.043.354-.053-.559-.304-1.378-.555-1.919.448.019.896.019 1.04.019.16 0 .214-.056.214-.242v-8.029zM61.705 300.494h16.34v2.087h-16.34v-2.087zm1.63-3.875h10.16v2.05h-10.16v-2.05zm4.068-2.254h2.24v7.266h-2.24v-7.266zm6.897 9.427 1.792 1.639c-2.436 1.006-5.662 1.882-8.457 2.478a7.189 7.189 0 0 0-.662-1.695c2.651-.615 5.572-1.547 7.328-2.422zm1.111-8.7 1.99 1.024c-3.513 5.366-8.905 9.446-14.675 11.886-.322-.503-1.057-1.434-1.487-1.9 5.823-2.161 11.037-6.036 14.172-11.01zm-9.12 8.737h2.222v4.918c0 .727.215.839 1.541.839h3.888c1.129 0 1.308-.336 1.451-2.311.502.354 1.434.69 2.025.802-.305 2.794-.968 3.502-3.315 3.502h-4.21c-2.83 0-3.601-.634-3.601-2.813v-4.937z" fill="#464646"/>
        <path fill-rule="evenodd" clip-rule="evenodd" d="M388.752 218.987c-19.619 10.337-10.419 47.751 1.358 73.902 3.462 7.687 6.326 15.073 8.691 22.169-6.507 22.275-13.9 38.361-40.274 42.88-13.232 2.267-6.122 16.756 8.091 16.756 12.863 0 30.401-5.657 40.464-25.568 3.192 20.721 2.634 38.326 2.162 53.22-.156 4.902-.302 9.51-.302 13.839h75.989c2.475-46.865-3.384-88.044-11.439-117.928 5.27-5.327 9.97-12.583 12.396-19.957 4.894-14.874 2.423-37.278-15.341-46.503-12.792-6.644-25.682-3.491-32.391.248-14.245-13.754-32.046-22.203-49.404-13.058zm61.217 26.617c13.599-2.055 24.08 14.894 16.09 29.589-1.95-5.053-3.92-9.474-5.844-13.201-2.745-5.319-6.215-10.948-10.246-16.388z" fill="#8DD1F7"/>
        <ellipse cx="7.303" cy="9.911" rx="7.303" ry="9.911" transform="matrix(.89606 -.44394 .41733 .90875 375.318 258.143)" fill="#fff"/>
        <ellipse cx="4.565" cy="6.545" rx="4.565" ry="6.545" transform="matrix(.89606 -.44394 .41733 .90875 376.566 260.861)" fill="#626F83"/>
        <path fill-rule="evenodd" clip-rule="evenodd" d="m393.451 263.17-14.887 1.165c-.867-4.088.394-7.996 3.338-9.454 3.614-1.791 8.396.79 10.68 5.764.383.834.671 1.682.869 2.525z" fill="#CCE9FA"/>
        <ellipse cx="7.303" cy="9.911" rx="7.303" ry="9.911" transform="matrix(.89606 -.44394 .41733 .90875 408.671 258.141)" fill="#fff"/>
        <ellipse cx="4.727" cy="6.778" rx="4.727" ry="6.778" transform="matrix(.89606 -.44394 .41733 .90875 409.725 260.436)" fill="#626F83"/>
        <path fill-rule="evenodd" clip-rule="evenodd" d="m426.804 263.168-14.888 1.165c-.867-4.087.395-7.996 3.338-9.454 3.614-1.791 8.396.79 10.68 5.764a13.4 13.4 0 0 1 .87 2.525z" fill="#CCE9FA"/>
        <path d="M358.296 358.971c14.249-2.678 25.079-10.415 30.493-20.235 6.555-9.821 10.1-25.989 12.54-36.007 9.974 1.983 28.338 14.981 12.824 39.28-18.809 29.46-37.903 32.733-49.587 33.329-11.685.595-13.965-4.762-14.25-7.44-.285-2.678.57-6.844 7.98-8.927z" fill="url(#c23o7mrt2b)"/>
        <path fill="#F2E497" d="m359.665 350.01 4.336 2.74-10.739 18.336-4.336-2.74z"/>
        <path d="m356.568 348.053 3.098 1.957-10.739 18.336-1.779-4.208 9.42-16.085zM367.099 354.705l-3.098-1.957-10.738 18.337 4.416-.295 9.42-16.085z" fill="#EFD370"/>
        <path fill="#fff" d="m358.641 344.514 10.53 6.653-2.072 3.539-10.53-6.653z"/>
        <path d="m357.585 370.952-10.376-6.556.084 12.174 10.292-5.618z" fill="#FAE9BC"/>
        <path fill="#7A7A7A" d="m347.406 373.115 2.787 1.761-2.072 3.539-2.787-1.761z"/>
        <path fill-rule="evenodd" clip-rule="evenodd" d="M227.587 153.77c.019.114.037.227.054.341 2.272 15.733 10.098 23.6 23.478 25.697-12.875 6.294-23.017 1.795-26.508-4.457 4.488 19.539 24.931 24.757 24.931 24.757-15.296 5.068-34.686-2.893-39.977-10.497l-.026.019c2.085 13.231 12.709 18.1 15.882 19.271-22.625 0-31.38-10.161-31.6-11.529-1.122 11.529 5.984 19.931 10.658 21.298-22.064 2.15-29.979-11.528-33.283-19.93-11.406 11.528-26.108 13.583-38.757 10.161 8.569-3.54 13.322-10.282 16.901-19.533l-.153-.113c-5.063 8.346-16.845 9.556-24.407 10.332-1.079.111-2.072.213-2.947.326 9.939-1.929 13.925-16.567 14.838-24.734-.16-.286-.316-.574-.468-.864-11.761 7.583-23.168 2.941-27.459-.39 12.122-1.019 19.833-7.775 23.056-22.29 2.023-22.066 19.854-40.789 47.821-40.789 28.864 0 46.932 19.945 47.966 42.924z" fill="#FAD75E"/>
        <ellipse cx="157.434" cy="159.153" rx="8.611" ry="9.528" fill="#fff"/>
        <path fill-rule="evenodd" clip-rule="evenodd" d="M157.783 168.672c4.594-.202 8.262-4.387 8.262-9.519 0-.098-.001-.196-.004-.293-1.033-1.146-2.413-1.846-3.927-1.846-3.205 0-5.803 3.134-5.803 6.999 0 1.79.556 3.422 1.472 4.659z" fill="#7A7A7A"/>
        <ellipse cx="198.992" cy="159.153" rx="8.611" ry="9.528" fill="#fff"/>
        <path fill-rule="evenodd" clip-rule="evenodd" d="M198.643 168.672c-4.594-.202-8.262-4.387-8.262-9.519 0-.098.001-.196.004-.293 1.033-1.146 2.412-1.846 3.927-1.846 3.205 0 5.803 3.134 5.803 6.999 0 1.79-.556 3.422-1.472 4.659z" fill="#7A7A7A"/>
        <path d="M102.75 136.603c6.355-5.749 16.236 4.114 19.994 8.583-10.91-2.482-9.156 3.487-17.27 1.448-3.801-.956-6.443-6.668-2.724-10.031zM239.302 115.612c-3.638-7.896-16.475-2.914-21.632-.36 10.962 2.218 7.072 6.974 15.3 8.445 3.853.69 8.46-3.465 6.332-8.085z" fill="#ACDBF5"/>
        <path d="M227.236 121.03c-2.983-3.359-7.036-4.81-9.548-5.317 7.035-1.265 10.302 3.544 13.317 5.316 2.412 1.418 6.533 1.098 7.287.507-.754 2.025-6.785 4.303-11.056-.506z" fill="#70C0EC"/>
        <path d="M89.34 159.412c3.95-8.473 15.691-4.882 21.067-2.028-9.436 3.155-5.157 9.486-13.826 10.929-4.06.676-9.553-3.943-7.242-8.901z" fill="#ACDBF5"/>
        <path d="M183.564 176.151c0 2.595-2.542 5.272-6.437 5.272-3.895 0-6.438-2.677-6.438-5.272s2.543-5.272 6.438-5.272c3.895 0 6.437 2.677 6.437 5.272z" stroke="#E0AA8C" stroke-width="5"/>
        <path d="m148.369 183.5 1.235 5.171c-5.924 9.513-18.594 11.03-24.188 10.599 9.872 0 19.58-9.652 22.953-15.77zM194.396 198.114l1.146-4.368c9.862 10.266 27.52 15.016 34.687 15.835-22.016 0-33.349-7.826-35.833-11.467zM223.958 174.703v-4.242c9.526 11.149 21.288 11.513 25.979 10.301-14.288 7.029-23.273-1.111-25.979-6.059z" fill="#E6AF5C"/>
        <path d="M212.014 268.133v-1.579c0-1.908 2.158-3.712 3.558-5 1.974-1.813 3.011-4.25 3.011-7.104 0-5.263-4.361-9.473-9.854-9.473a10.156 10.156 0 0 0-3.775.714 9.858 9.858 0 0 0-3.201 2.052 9.433 9.433 0 0 0-2.135 3.077 9.126 9.126 0 0 0-.743 3.63c0 2.752 1.082 5.354 3.011 7.104 1.393 1.264 3.558 3.072 3.558 5v1.579M206.539 274.447h4.38M205.444 271.291h6.57M208.729 268.133v-8.42" stroke="#F9DB71" stroke-width="2.11" stroke-linecap="round" stroke-linejoin="round"/>
        <path d="M211.33 258.66s-1.472 1.053-2.601 1.053c-1.128 0-2.6-1.053-2.6-1.053" stroke="#F9DB71" stroke-width="2.11" stroke-linecap="round" stroke-linejoin="round"/>
        <path d="M615.438 136.926h35.69v36.461h-35.69v-36.461z" fill="#fff" fill-opacity=".01"/>
        <path fill-rule="evenodd" clip-rule="evenodd" d="M628.55 143.31c-4.626 0-8.38 3.901-8.38 8.72 0 2.853 1.315 5.385 3.354 6.979.776.606.932 1.752.348 2.558a1.716 1.716 0 0 1-2.463.361c-2.885-2.254-4.757-5.85-4.757-9.898 0-6.831 5.325-12.374 11.898-12.374 4.827 0 8.978 2.988 10.845 7.277a8.245 8.245 0 0 1 1.998-.245c4.707 0 8.518 3.968 8.518 8.858 0 3.634-2.103 6.754-5.109 8.12-.89.404-1.927-.017-2.316-.941-.39-.925.016-2.002.906-2.406 1.769-.804 3.002-2.64 3.002-4.773 0-2.877-2.241-5.205-5.001-5.205-.815 0-1.581.202-2.257.559a1.7 1.7 0 0 1-1.512.04 1.805 1.805 0 0 1-.983-1.193c-.964-3.712-4.225-6.437-8.091-6.437z" fill="#98DDB4"/>
        <path fill-rule="evenodd" clip-rule="evenodd" d="M627.334 152.57c.971 0 1.759.818 1.759 1.827v3.038c0 1.009-.788 1.827-1.759 1.827-.971 0-1.759-.818-1.759-1.827v-3.038c0-1.009.788-1.827 1.759-1.827zM633.282 155.607c.972 0 1.759.818 1.759 1.827v3.039c0 1.008-.787 1.826-1.759 1.826-.971 0-1.759-.818-1.759-1.826v-3.039c0-1.009.788-1.827 1.759-1.827zM639.23 152.57c.972 0 1.759.818 1.759 1.827v3.038c0 1.009-.787 1.827-1.759 1.827-.971 0-1.758-.818-1.758-1.827v-3.038c0-1.009.787-1.827 1.758-1.827zM627.334 160.926c.971 0 1.759.818 1.759 1.827v3.038c0 1.009-.788 1.827-1.759 1.827-.971 0-1.759-.818-1.759-1.827v-3.038c0-1.009.788-1.827 1.759-1.827zM633.282 163.963c.972 0 1.759.818 1.759 1.827v3.038c0 1.009-.787 1.827-1.759 1.827-.971 0-1.759-.818-1.759-1.827v-3.038c0-1.009.788-1.827 1.759-1.827zM639.23 160.926c.972 0 1.759.818 1.759 1.827v3.038c0 1.009-.787 1.827-1.759 1.827-.971 0-1.758-.818-1.758-1.827v-3.038c0-1.009.787-1.827 1.758-1.827z" fill="#98DDB4"/>
        <path d="M491.813 192.814h178.816l5.109 4.919v92.215L688 305.523H496.411l-4.599-6.148.001-106.561z" fill="#5F5F5F"/>
        <path fill-rule="evenodd" clip-rule="evenodd" d="M670.94 192.814H491.812v106.151h168.381-.001 23.031l-12.162-15.574-.121.173v-90.75z" fill="#FBF3AE"/>
        <path fill="#ACDBF5" d="M506.74 286.738h151.406v3.726H506.74z"/>
        <path d="M546.285 266.996v-.225c.004-.772.07-1.387.197-1.845.132-.459.323-.83.573-1.112.25-.282.551-.538.903-.767.263-.177.499-.36.707-.549.208-.19.373-.4.496-.629.123-.234.185-.494.185-.781 0-.304-.07-.571-.21-.8a1.416 1.416 0 0 0-.567-.529 1.626 1.626 0 0 0-.776-.185c-.276 0-.536.063-.783.191a1.518 1.518 0 0 0-.604.556c-.157.243-.242.545-.254.906h-2.596c.021-.882.224-1.609.61-2.183a3.536 3.536 0 0 1 1.534-1.29 5.077 5.077 0 0 1 2.106-.43c.844 0 1.59.146 2.239.437.649.287 1.158.703 1.527 1.25s.554 1.206.554 1.978c0 .516-.083.975-.248 1.376-.161.397-.388.75-.681 1.059-.293.304-.638.58-1.037.827a4.204 4.204 0 0 0-.827.648 2.214 2.214 0 0 0-.477.781c-.102.295-.155.659-.159 1.091v.225h-2.412zm1.26 4.234c-.424 0-.787-.154-1.088-.463a1.555 1.555 0 0 1-.439-1.125 1.524 1.524 0 0 1 .439-1.111 1.464 1.464 0 0 1 1.088-.463c.403 0 .757.154 1.062.463.306.309.461.679.465 1.111a1.674 1.674 0 0 1-.776 1.376c-.229.142-.48.212-.751.212zM528.721 256.49h11v2.124h-11v-2.124zm0 4.285h11.036v2.087h-11.036v-2.087zm-.036 4.397h11.144v2.105h-11.144v-2.105zm-1.201-8.682h2.132v6.707c0 2.962-.358 7.154-2.562 9.65-.34-.429-1.218-1.174-1.684-1.453 1.953-2.254 2.114-5.589 2.114-8.216v-6.688zm11.485 0h2.132v13.618c0 1.193-.251 1.789-.968 2.143-.752.354-1.827.391-3.457.372-.09-.596-.413-1.565-.699-2.142 1.021.074 2.204.056 2.526.056.34-.019.466-.131.466-.447v-13.6zm-5.966.839h2.185v15.183h-2.185v-15.183zM511.055 270.518c2.867-.018 7.364-.093 11.557-.205l-.072 1.677c-4.067.149-8.421.298-11.341.354l-.144-1.826zm8.296-4.732 1.791 1.025c-1.97 1.77-4.55 3.726-6.575 4.918l-1.362-.95c2.025-1.267 4.587-3.353 6.146-4.993zm-3.422-1.08 1.738.95c-1.004.969-2.115 1.993-3.01 2.645l-1.308-.819c.86-.727 1.953-1.9 2.58-2.776zm-4.103 2.832 1.344-1.304c1.236.689 2.902 1.769 3.744 2.552l-1.451 1.453c-.753-.783-2.383-1.956-3.637-2.701zm7.489 1.397 1.684-.838c1.165 1.08 2.58 2.626 3.243 3.725l-1.81.951c-.609-1.062-1.952-2.683-3.117-3.838zm-7.83-9.334h5.59v1.528h-5.59v-1.528zm6.092 0h6.235v1.528h-6.235v-1.528zm-4.103-1.099h1.577v6.651h-1.577v-6.651zm2.168 3.056h1.183v2.757h-1.183v-2.757zm3.924-3.056h1.594v6.781h-1.594v-6.781zm-7.812 3.037h1.147v.764c0 1.043-.108 2.273-.896 3.185-.215-.279-.699-.652-1.021-.838.663-.633.77-1.658.77-2.403v-.708zm6.056 0h1.182v.745c0 .987-.125 2.198-.949 3.074-.215-.279-.717-.671-1.039-.857.698-.596.806-1.583.806-2.291v-.671zm3.942-.019h1.254v2.553c.036.037.071.074.143.074h.161c.054 0 .126-.019.144-.037.053-.037.071-.112.107-.242.036-.149.054-.466.054-.857.233.186.645.41.95.503-.036.465-.072.968-.18 1.155a.818.818 0 0 1-.43.428c-.143.093-.376.112-.555.112h-.555c-.305 0-.645-.093-.825-.298-.197-.242-.268-.522-.268-1.341v-2.05zm-6.307-6.278h2.24v2.403h-2.24v-2.403zm-5.447 1.453h14.172v1.863h-14.172v-1.863zm-1.236 0h1.971v5.664c0 2.98-.233 7.563-1.631 10.451-.34-.373-1.218-1.062-1.648-1.286 1.218-2.626 1.308-6.445 1.308-9.165v-5.664zM619.863 242.705h2.114v2.925c0 .559.143.634.985.634h2.401c.663 0 .788-.224.878-1.752.412.336 1.308.652 1.899.783-.251 2.347-.842 2.943-2.598 2.943h-2.831c-2.329 0-2.848-.615-2.848-2.571v-2.962zm1.755-.54 1.488-1.267c1.057.634 2.382 1.621 2.992 2.403l-1.577 1.398c-.555-.783-1.828-1.845-2.903-2.534zm5.483.95 1.845-.894c1.255 1.304 2.527 3.111 2.992 4.471l-1.988.987c-.412-1.285-1.613-3.185-2.849-4.564zm-9.747-.652 1.935.634c-.483 1.807-1.182 3.632-2.508 4.787l-1.792-1.248c1.165-.969 1.971-2.552 2.365-4.173zm1.72-9.445h12.184v1.937h-12.184v-1.937zm3.673 2.888h7.489v1.751h-7.489v-1.751zm.018 2.794h7.955v1.844h-7.955V238.7zm-.985-5.011h2.168v7.899h-2.168v-7.899zm-2.473-2.72 2.258.596c-1.004 2.943-2.706 5.607-4.587 7.284-.394-.447-1.308-1.285-1.827-1.658 1.845-1.397 3.368-3.707 4.156-6.222zM603.953 233.333h10.069v2.031h-10.069v-2.031zm3.906-2.31h2.186v3.261h-2.186v-3.261zm3.135 4.956 1.917.875c-1.863 3.13-4.73 5.682-7.811 7.359a7.362 7.362 0 0 0-1.416-1.714c2.885-1.378 5.751-3.744 7.31-6.52zm.896 3.893 1.989.913c-2.097 3.559-5.375 6.129-9.192 7.732a7.95 7.95 0 0 0-1.397-1.826c3.601-1.304 6.88-3.67 8.6-6.819zm-4.318-5.216 2.15.727c-.914 1.36-1.989 2.776-2.849 3.726l-1.684-.69c.824-1.006 1.828-2.571 2.383-3.763zm-3.709 3.372 1.326-1.434c1.29.875 3.046 2.198 3.87 3.111l-1.433 1.621c-.771-.932-2.455-2.348-3.763-3.298zm4.82 6.968 1.541-1.379c1.272.987 3.081 2.422 3.959 3.391l-1.684 1.546c-.77-.969-2.526-2.497-3.816-3.558zm-10.714-8.253h5.249v1.676h-5.249v-1.676zm.053-5.142h5.143v1.695h-5.143v-1.695zm-.053 7.675h5.249v1.696h-5.249v-1.696zm-.824-5.16h6.539v1.77h-6.539v-1.77zm1.755 7.75h4.336v5.663H598.9v-1.77h2.545v-2.123H598.9v-1.77zm-.967 0h1.756v6.408h-1.756v-6.408zM589.262 244.53h4.909v2.086h-4.909v-2.086zm-.968-11.904h6.88v15.089h-2.186v-12.984h-2.615v13.245h-2.079v-15.35zm-5.59 1.751h2.168v3.595c0 3.167-.645 7.769-4.246 10.489-.269-.466-1.093-1.36-1.523-1.677 3.279-2.459 3.601-6.111 3.601-8.849v-3.558zm-1.469-.988h6.145v2.068h-6.145v-2.068zm-1.863 5.012h8.456v2.123h-8.456v-2.123zm4.963 2.626c.734.671 3.099 3.484 3.655 4.173l-1.452 1.882c-.842-1.379-2.598-3.689-3.511-4.788l1.308-1.267zm-3.297-10.004 2.06.429c-.465 2.459-1.325 4.918-2.347 6.483-.376-.354-1.254-.987-1.72-1.285.968-1.342 1.649-3.484 2.007-5.627zM561.938 232.271h15.624v2.292h-15.624v-2.292zm8.654 6.241 1.666-1.453c1.917 1.453 4.676 3.596 5.984 5.086l-1.827 1.714c-1.183-1.472-3.834-3.763-5.823-5.347zm-.717-5.402 2.401.875c-2.042 3.931-5.303 7.732-9.424 9.967-.34-.596-1.021-1.527-1.469-2.03 3.834-1.882 7.005-5.496 8.492-8.812zm-1.308 4.508 2.365-2.44v13.301h-2.365v-10.861zM550.544 232.999h9.155v1.938h-9.155v-1.938zm-.61 3.577h10.302v1.975h-10.302v-1.975zm.036 3.558h10.141v1.956H549.97v-1.956zm4.031-9.128h2.115v6.837h-2.115v-6.837zm2.276 7.433h2.096v7.713c0 1.08-.197 1.658-.896 1.974-.716.336-1.684.373-3.028.373-.071-.615-.394-1.509-.68-2.087.877.038 1.863.038 2.132.019.286 0 .376-.056.376-.317v-7.675zm-5.59 4.9 1.72-1.025c.842.913 1.792 2.142 2.186 3.055l-1.846 1.118c-.34-.876-1.236-2.198-2.06-3.148zm-5.68-11.178h4.623v12.742h-4.623v-1.993h2.616v-8.756h-2.616v-1.993zm.108 5.291h3.476v1.956h-3.476v-1.956zm-1.111-5.291h1.989v14.4h-1.989v-14.4zM531.929 245.405c1.451-.223 3.565-.596 5.643-.987l.144 1.844c-1.846.429-3.799.857-5.357 1.193l-.43-2.05zm.34-6.781h4.891v1.9h-4.891v-1.9zm.018-4.08h9.836v2.031h-9.836v-2.031zm7.131-2.552 1.487-.782c.573.689 1.254 1.639 1.541 2.291l-1.541.894c-.269-.67-.914-1.658-1.487-2.403zm-5.644 7.359h1.989v6.278l-1.989.373v-6.651zm3.637-8.328h2.043c-.09 8.123.34 14.643 1.254 14.718.233 0 .358-.839.43-2.254.322.484 1.182 1.117 1.505 1.341-.448 3.074-1.362 3.707-2.025 3.689-2.759-.075-3.135-6.707-3.207-17.494zm-11.108 5.72h5.303v1.676h-5.303v-1.676zm.053-5.142h5.143v1.695h-5.143v-1.695zm-.053 7.675h5.303v1.696h-5.303v-1.696zm-.824-5.16h6.539v1.77h-6.539v-1.77zm1.755 7.75h4.336v5.663h-4.336v-1.77h2.545v-2.123h-2.545v-1.77zm-.967 0h1.756v6.408h-1.756v-6.408zM508.099 236.258h15.677v1.882h-15.677v-1.882zm1.379-3.297h10.07v1.826h-10.07v-1.826zm4.157-1.938h2.132v6.167h-2.132v-6.167zm6.952 7.899 1.308 1.472c-2.383.671-5.787 1.043-8.672 1.23-.054-.447-.287-1.118-.466-1.509 2.759-.205 5.949-.652 7.83-1.193zm.734-7.153 1.738.987c-3.547 4.713-8.976 8.383-14.423 10.619-.286-.447-.931-1.323-1.325-1.714 5.518-1.993 10.803-5.533 14.01-9.892zm-9.101 7.284 2.132.242c-.412 1.975-.986 4.378-1.416 5.905l-2.15-.298c.484-1.527 1.075-3.968 1.434-5.849zm7.543 3.502h2.168s-.036.596-.108.913c-.412 2.552-.86 3.819-1.469 4.396-.484.466-.968.597-1.738.634-.591.056-1.613.056-2.705.019-.036-.634-.305-1.491-.663-2.068 1.021.093 2.168.13 2.633.13.341 0 .574-.037.771-.186.412-.317.806-1.416 1.093-3.577l.018-.261zm-7.221 0h7.722v1.807h-8.223l.501-1.807zM620.221 221.598h11.735v2.068h-11.735v-2.068zm3.494-6.725v2.813h4.604v-2.813h-4.604zm0-4.807v2.739h4.604v-2.739h-4.604zm-2.222-2.067h9.173v11.755h-9.173v-11.755zm-2.454-1.118 2.096.689c-1.183 3.186-3.118 6.576-5.124 8.7-.197-.559-.807-1.826-1.183-2.403 1.666-1.677 3.279-4.322 4.211-6.986zm-1.81 5.142 2.132-2.199v14.457h-2.132v-12.258zM600.083 225.192l-.573-1.49c1.505-.503 2.329-1.416 2.329-2.478l-.125-1.844.985 1.677a1.49 1.49 0 0 1-1.057.41c-.896 0-1.72-.597-1.72-1.677 0-1.043.806-1.677 1.774-1.677 1.254 0 1.935 1.006 1.935 2.571 0 2.105-1.326 3.819-3.548 4.508zM586.627 213.177h2.276v8.532c0 1.267-.305 1.882-1.201 2.217-.877.336-2.167.373-3.887.373-.126-.652-.538-1.658-.878-2.273 1.272.056 2.741.056 3.153.056.394 0 .537-.112.537-.428v-8.477zm-6.127-5.067h12.524v2.198H580.5v-2.198zm11.717 0h.574l.519-.149 1.685 1.304c-1.613 2.049-3.978 4.415-6.182 5.85-.34-.485-1.039-1.23-1.469-1.584 1.863-1.229 3.978-3.465 4.873-4.881v-.54zM568.89 207.738h7.275v2.068h-7.275v-2.068zm-.609 6.483h9.89v2.105h-9.89v-2.105zm3.781-2.179h2.168v9.78c0 1.118-.215 1.714-.914 2.068-.717.335-1.702.41-3.028.391-.108-.615-.466-1.583-.753-2.18.914.038 1.846.056 2.15.038.287-.019.377-.093.377-.354v-9.743zm3.332-4.304h.52l.448-.112 1.397 1.099c-1.057 1.621-2.58 3.596-3.977 4.826-.287-.392-.878-1.006-1.219-1.305 1.057-1.061 2.294-2.906 2.831-4.024v-.484zm-13.939 2.776h5.787v2.068h-5.787v-2.068zm2.401-3.707 2.024.223c-.68 3.968-1.72 8.961-2.562 12.314l-1.755-.968c.77-2.944 1.737-7.862 2.293-11.569zm-1.362 11.252 1.183-1.565c1.863 1.211 4.228 3.018 5.267 4.415l-1.29 1.807c-1.003-1.416-3.279-3.372-5.16-4.657zm4.014-7.545h.34l.376-.056 1.272.224c-.412 7.265-2.15 11.382-5.697 13.674-.287-.541-.86-1.342-1.29-1.77 3.046-1.658 4.64-5.775 4.999-11.662v-.41zM545.992 214.481h10.052v1.602h-7.866v8.234h-2.186v-9.836zm9.514 0h2.204v7.582c0 1.081-.251 1.602-1.003 1.919-.735.298-1.792.317-3.261.317-.09-.596-.394-1.416-.663-1.956a41.2 41.2 0 0 0 2.311.056c.305-.019.412-.112.412-.373v-7.545zm-7.829 2.59h8.438v1.527h-8.438v-1.527zm-3.458-8.868h5.464v1.732h-5.464v-1.732zm-.412 3.54c1.487-.168 3.655-.485 5.823-.82l.071 1.621a247.78 247.78 0 0 1-5.608 1.043l-.286-1.844zm3.87 7.898h8.474v1.528h-8.474v-1.528zm.663-12.854h2.15v7.266h-2.15v-7.266zm9.675.708 1.397 1.602c-1.63.615-3.727 1.155-5.482 1.509a9.054 9.054 0 0 0-.574-1.546c1.649-.41 3.494-1.025 4.659-1.565zm-5.644-.708h2.186v4.583c0 .596.125.671.806.671h1.989c.537 0 .663-.224.734-1.416.43.316 1.308.615 1.882.745-.233 1.975-.807 2.552-2.401 2.552h-2.527c-2.15 0-2.669-.615-2.669-2.552v-4.583zM537.733 208.036l1.434-1.229c.806.577 1.863 1.453 2.365 2.068l-1.505 1.341c-.466-.634-1.47-1.565-2.294-2.18zm-11.861 1.938h16.125v2.179h-16.125v-2.179zm.663 4.322h7.758v2.161h-7.758v-2.161zm2.724 1.229h2.15v6.316h-2.15v-6.316zm-3.405 5.999c2.168-.335 5.68-.969 8.905-1.602l.161 1.993c-2.956.671-6.127 1.36-8.456 1.863l-.61-2.254zm8.815-14.643h2.312c-.162 7.657 1.2 15.09 2.902 15.09.394 0 .591-1.025.699-3.372.484.522 1.272 1.062 1.881 1.286-.322 3.558-1.057 4.433-2.759 4.433-3.888 0-5.017-8.811-5.035-17.437zM514.209 213.606l2.58.652c-1.183 2.925-2.777 6.203-4.103 8.346l-1.989-.652c1.29-2.255 2.741-5.682 3.512-8.346zm-5.59 7.656c3.386-.111 8.636-.372 13.33-.614l-.054 2.179c-4.605.336-9.585.615-12.99.801l-.286-2.366zm9.066-3.539 2.096-1.006c1.577 2.012 3.261 4.657 4.121 6.446l-2.222 1.229c-.752-1.788-2.49-4.62-3.995-6.669zm-5.375-10.489 2.454.708c-1.146 2.944-3.028 5.831-4.855 7.62-.466-.466-1.505-1.286-2.097-1.658 1.864-1.528 3.566-4.08 4.498-6.67zm7.22.019c1.057 2.198 3.1 4.806 4.748 6.371-.591.466-1.415 1.36-1.828 1.956-1.684-1.881-3.744-4.825-5.07-7.414l2.15-.913z" fill="#464646"/>
        <path d="M624.919 354.687c-2.182 0-4.018-.676-5.507-2.027-1.455-1.351-2.183-3.254-2.183-5.707 0-2.49.745-4.428 2.235-5.814 1.524-1.387 3.359-2.081 5.507-2.081 2.043 0 3.741.569 5.091 1.707a21.882 21.882 0 0 1 3.637 3.787 11.431 11.431 0 0 1 3.326-3.894c1.454-1.102 3.169-1.635 5.143-1.6 2.182 0 4.018.676 5.507 2.027 1.49 1.351 2.234 3.254 2.234 5.708 0 2.489-.779 4.427-2.338 5.814-1.524 1.386-3.394 2.08-5.611 2.08-1.974 0-3.637-.534-4.987-1.6a21.197 21.197 0 0 1-3.637-3.681c-.832 1.458-1.957 2.72-3.377 3.787-1.386 1.031-3.066 1.529-5.04 1.494zm-4.053-7.734c0 1.386.381 2.489 1.143 3.307.797.782 1.853 1.173 3.17 1.173 1.316 0 2.528-.409 3.637-1.227 1.108-.818 2.026-1.884 2.753-3.2-.935-1.28-1.905-2.383-2.909-3.307-1.005-.96-2.182-1.44-3.533-1.44-1.247 0-2.269.426-3.066 1.28-.796.853-1.195 1.991-1.195 3.414zm21.094-4.641c-1.351 0-2.597.427-3.74 1.28-1.109.854-2.027 1.974-2.754 3.361.9 1.244 1.836 2.311 2.805 3.2.97.889 2.131 1.333 3.481 1.333 1.386 0 2.477-.426 3.274-1.28.831-.853 1.247-1.973 1.247-3.36 0-1.387-.399-2.489-1.195-3.307-.797-.818-1.836-1.227-3.118-1.227z" fill="#CACDCE"/>
        <path d="M359.342 316.188v-2.56c-.591-.647-1.246-.97-1.965-.97-.709 0-1.332.335-1.869 1.004-.526.658-.79 1.444-.79 2.359 0 .904.167 1.657.5 2.259.333.602.789.904 1.369.904.591 0 1.133-.285 1.627-.854s.87-1.283 1.128-2.142zm-.032-3.831c.021-.525.225-.787.612-.787.494 0 .741.396.741 1.188 0 .781-.108 1.88-.322 3.297.129 1.36.193 2.376.193 3.045 0 1.461-.333 2.632-.999 3.514-.655.892-1.579 1.338-2.771 1.338a4.218 4.218 0 0 1-1.884-.435c-.591-.279-.886-.563-.886-.853 0-.279.123-.418.37-.418.097 0 .371.1.822.301.461.212.988.318 1.578.318.86 0 1.536-.335 2.03-1.004.494-.67.741-1.534.741-2.594 0-.435-.027-.836-.08-1.205a3.749 3.749 0 0 1-1.16 1.557c-.526.435-1.074.652-1.643.652-.559 0-1.037-.128-1.434-.385a3.016 3.016 0 0 1-.967-1.004c-.483-.836-.725-1.807-.725-2.911 0-1.116.36-2.125 1.08-3.029.73-.914 1.627-1.372 2.69-1.372.741 0 1.412.262 2.014.787zM350.102 318.28c.526-.658.79-1.45.79-2.376 0-.926-.253-1.713-.758-2.36-.494-.647-1.111-.97-1.852-.97-.741 0-1.375.329-1.901.987-.516.658-.773 1.45-.773 2.376 0 .926.247 1.712.741 2.359.504.647 1.127.971 1.868.971.741 0 1.37-.329 1.885-.987zm-1.852-6.794c1.106 0 2.013.43 2.722 1.289.709.847 1.063 1.89 1.063 3.129 0 1.238-.359 2.292-1.079 3.162-.72.859-1.627 1.288-2.723 1.288-1.095 0-1.997-.423-2.706-1.271-.709-.859-1.063-1.908-1.063-3.146s.354-2.287 1.063-3.146c.72-.87 1.627-1.305 2.723-1.305zM342.456 313.829l.081 5.605c0 .558-.204.837-.612.837-.408 0-.613-.279-.613-.837l.081-5.605-.081-5.606c0-.557.205-.836.613-.836.408 0 .612.279.612.836l-.081 5.606z" fill="#B8B7F2"/>
        <path d="m515.003 148.141 1.313-.037c.648 0 .971.23.971.691 0 .149-.066.305-.197.467-.12.162-.342.411-.666.747a15.83 15.83 0 0 0-.863 1.009c.659.149 1.175.454 1.547.915.371.448.557.996.557 1.644 0 .648-.24 1.239-.719 1.775-.48.535-1.127.803-1.943.803a2.514 2.514 0 0 1-1.582-.561c-.48-.373-.72-.716-.72-1.027 0-.324.144-.486.432-.486.144 0 .294.081.449.243.48.473.96.71 1.439.71.48 0 .852-.143 1.115-.43.264-.286.396-.66.396-1.12 0-.461-.156-.841-.468-1.14a1.618 1.618 0 0 0-1.115-.504c-.383.411-.713.616-.989.616-.432 0-.647-.212-.647-.635 0-.174.09-.343.269-.504.18-.175.45-.299.81-.374.455-.498.953-1.065 1.493-1.7-.54-.037-.894-.056-1.062-.056l-1.277.056c-.467 0-.701-.181-.701-.542a.56.56 0 0 1 .18-.429c.132-.112.306-.168.521-.168l1.457.037zM509.152 157.874l-.054-4.054c0-.635.228-.953.684-.953.551 0 .827.467.827 1.401 0 .735-.126 1.937-.378 3.606.144 1.519.216 2.652.216 3.399 0 1.632-.384 2.94-1.151 3.923-.767.997-1.846 1.495-3.237 1.495a4.712 4.712 0 0 1-2.105-.486c-.659-.311-.989-.629-.989-.953 0-.311.138-.467.414-.467.12 0 .45.112.989.337a4.262 4.262 0 0 0 1.691.355c1.007 0 1.804-.374 2.392-1.121.587-.747.881-1.713.881-2.896 0-.436-.018-.859-.054-1.27-.887 1.594-2.002 2.391-3.345 2.391-.959 0-1.703-.367-2.23-1.102-.528-.747-.792-1.656-.792-2.727l.108-2.821a6.26 6.26 0 0 0-.144-1.383c-.096-.435-.144-.747-.144-.934a.71.71 0 0 1 .216-.504.712.712 0 0 1 .558-.243c.551 0 .827.511.827 1.532l-.144 4.11c0 .847.174 1.538.522 2.073.348.523.827.785 1.439.785.623 0 1.223-.355 1.798-1.065a6.368 6.368 0 0 0 1.205-2.428zM493.135 156.959l2.625-.056c.216 0 .39.056.522.168a.538.538 0 0 1 .216.448.538.538 0 0 1-.216.448c-.132.113-.306.169-.522.169-.599 0-1.474-.019-2.625-.056l.072 2.932c0 .237-.06.424-.18.561a.54.54 0 0 1-.45.205c-.396 0-.593-.255-.593-.766 0-.062.023-1.039.071-2.932-1.223.037-2.026.056-2.41.056-.383 0-.647-.056-.791-.169a.557.557 0 0 1-.198-.448c0-.187.066-.336.198-.448a.853.853 0 0 1 .54-.168l2.661.056a688.07 688.07 0 0 1-.071-2.672c0-.51.197-.766.593-.766.192 0 .342.069.45.206.12.137.18.274.18.411 0 .137-.024 1.077-.072 2.821zM480.035 148.141l1.312-.037c.648 0 .972.23.972.691 0 .149-.066.305-.198.467-.12.162-.342.411-.666.747a16.16 16.16 0 0 0-.863 1.009c.66.149 1.175.454 1.547.915.372.448.557.996.557 1.644 0 .648-.239 1.239-.719 1.775-.48.535-1.127.803-1.942.803a2.514 2.514 0 0 1-1.583-.561c-.48-.373-.72-.716-.72-1.027 0-.324.144-.486.432-.486.144 0 .294.081.45.243.479.473.959.71 1.439.71.479 0 .851-.143 1.115-.43.263-.286.395-.66.395-1.12 0-.461-.156-.841-.467-1.14a1.622 1.622 0 0 0-1.115-.504c-.384.411-.714.616-.99.616-.431 0-.647-.212-.647-.635 0-.174.09-.343.27-.504.18-.175.449-.299.809-.374.456-.498.953-1.065 1.493-1.7-.54-.037-.893-.056-1.061-.056l-1.277.056c-.468 0-.702-.181-.702-.542a.56.56 0 0 1 .18-.429c.132-.112.306-.168.522-.168l1.457.037zM474.941 160.358c.312.423.6.71.863.859.276.149.468.224.576.224.12 0 .18.031.18.094 0 .311-.09.579-.27.803-.168.224-.348.336-.539.336a1.04 1.04 0 0 1-.432-.075.915.915 0 0 1-.342-.242c-.12-.125-.234-.25-.342-.374a12.784 12.784 0 0 1-.431-.598c-.168-.261-.33-.504-.486-.728a47.923 47.923 0 0 0-.611-.972c-.264-.411-.51-.791-.738-1.139-.503.759-1.019 1.55-1.546 2.372-.516.81-.84 1.289-.972 1.439-.119.149-.257.224-.413.224-.144 0-.282-.063-.414-.187a.521.521 0 0 1-.18-.392c0-.15.018-.274.054-.374.036-.1.126-.249.27-.448.144-.212.306-.442.486-.691.503-.673 1.187-1.663 2.05-2.971l-1.547-2.391c-.252-.336-.491-.591-.719-.766-.228-.174-.402-.267-.522-.28-.264-.025-.395-.093-.395-.205 0-.312.077-.573.233-.785a.826.826 0 0 1 .684-.318c.288 0 .563.162.827.486.264.324.612.828 1.043 1.513l.72 1.121c.048.075.108.174.179.299.084.125.162.243.234.355a528.461 528.461 0 0 1 2.069-3.232c.203-.299.389-.448.557-.448.18 0 .33.068.45.205.12.125.18.268.18.43 0 .149-.072.349-.216.598-.144.236-.48.728-1.007 1.476-.528.734-.984 1.376-1.367 1.924l1.834 2.858zM295.266 99.326c-1.094 0-2.001-.318-2.721-.955-.707-.652-1.234-1.573-1.581-2.764-.346-1.205-.52-2.646-.52-4.322 0-1.69.16-3.138.48-4.343.321-1.205.834-2.126 1.541-2.763.72-.638 1.654-.956 2.801-.956 1.107 0 2.02.318 2.74.956.721.623 1.254 1.537 1.601 2.742.36 1.205.54 2.66.54 4.364 0 1.676-.167 3.117-.5 4.322-.32 1.191-.84 2.112-1.561 2.764-.706.637-1.647.955-2.82.955zm0-1.516c.693 0 1.26-.208 1.7-.624.454-.416.794-1.067 1.02-1.953.227-.887.354-2.043.38-3.47h-6.141c.026 1.413.14 2.563.34 3.45.213.886.54 1.544.98 1.973.44.416 1.014.623 1.721.623zm-3.041-7.46h6.121c-.04-1.26-.173-2.3-.4-3.117-.226-.831-.56-1.448-1-1.85-.44-.415-1-.623-1.68-.623-.681 0-1.241.208-1.681.624-.427.401-.747 1.018-.96 1.849-.213.817-.347 1.856-.4 3.117zM287.681 92.573l-.1 3.263v.893c.014.194.054.402.12.624.081.207.174.339.281.394.106.042.213.07.32.083.12.014.2.035.24.063.053.028.08.083.08.166 0 .36-.114.665-.34.914a.995.995 0 0 1-.761.353c-.506 0-.86-.207-1.06-.623-.187-.415-.28-1.025-.28-1.828l.08-3.824c0-.942-.193-1.704-.58-2.285-.387-.582-.927-.873-1.621-.873-.68 0-1.34.395-1.98 1.184a6.9 6.9 0 0 0-1.34 2.68l.06 4.51c0 .706-.254 1.06-.761 1.06-.613 0-.92-.485-.92-1.455 0-.984.134-2.355.4-4.114 0-.582-.06-1.385-.18-2.41-.106-1.026-.16-1.656-.16-1.891 0-.25.067-.464.2-.645a.693.693 0 0 1 .58-.29c.24 0 .427.096.561.29.146.18.22.388.22.624 0 .235-.007.526-.02.872v.852c.973-1.759 2.174-2.638 3.601-2.638 1.067 0 1.893.394 2.48 1.184.587.79.88 1.745.88 2.867zM275.626 84.053c.28 0 .487.097.62.29.134.18.2.416.2.707 0 .277-.093.561-.28.852-.186.277-.42.416-.7.416-.28 0-.493-.097-.64-.291-.133-.194-.2-.45-.2-.77 0-.318.093-.595.28-.83.2-.25.44-.374.72-.374zm.56 9.87.1 4.363c0 .693-.253 1.04-.76 1.04s-.76-.347-.76-1.04l.1-4.363-.1-4.364c0-.692.253-1.039.76-1.039s.76.347.76 1.04l-.1 4.363zM272.503 96.127c0 .942-.373 1.71-1.12 2.306-.733.596-1.62.893-2.661.893-1.027 0-1.92-.242-2.68-.727-.761-.498-1.141-.99-1.141-1.475 0-.208.06-.374.18-.499.12-.138.254-.207.401-.207.16 0 .286.034.38.103.093.056.22.174.38.354s.3.332.42.457c.133.124.393.263.78.415.4.153.767.229 1.1.229.734 0 1.334-.153 1.801-.457.48-.319.72-.776.72-1.372 0-.72-.667-1.323-2.001-1.807-.546-.194-1.1-.402-1.66-.624a4.242 4.242 0 0 1-1.4-.956 1.995 1.995 0 0 1-.58-1.433c0-.748.326-1.4.98-1.954.653-.568 1.453-.852 2.4-.852.947 0 1.694.174 2.241.52.56.332.84.686.84 1.06 0 .457-.233.685-.7.685-.2 0-.4-.076-.6-.228-.627-.457-1.227-.686-1.801-.686-.573 0-1.04.139-1.4.416-.36.263-.54.575-.54.935 0 .346.193.644.58.893.387.25.854.478 1.4.686.561.208 1.121.443 1.681.706.56.25 1.033.603 1.42 1.06.387.443.58.963.58 1.559z" fill="#B4B3F2"/>
        <path d="M437.444 245.028c-8.041-2.855-4.386-11.603 0-14.272 13.68-8.326 29.241-6.228 38.013 1.557 13.158 12.715 13.402 23.614 12.427 37.626-.848 12.196-8.934 22.836-13.889 29.063-.195-2.491-4.955-17.126-7.31-24.132 6.335-15.83.731-23.614-4.63-28.026-4.289-3.529-8.528-3.87-12.183-2.854-5.605 1.557-9.343 2.133-12.428 1.038z" fill="url(#qd6szhzflc)"/>
        <path d="M108.483 147.134c-4.974.435-6.908-2.898-7.254-4.618 1.037 1.901 1.806 2.988 6.217 2.988 3.886 0 5.699-1.902 8.29-2.173 2.072-.218 5.526.996 6.993 1.63-8.289-1.63-8.03 1.63-14.246 2.173zM105.452 161.24c1.434-2.523 4.352-3.504 5.631-3.679-3.839-.789-6.645 1.83-10.238 5.518-5.119 5.256-7.166 3.679-9.47 3.416 0 0 1.69 2.103 5.375 2.103 4.607 0 6.911-4.205 8.702-7.358z" fill="#70C0EC"/>
    </g>
    <defs>
        <linearGradient id="c23o7mrt2b" x1="407.314" y1="361.649" x2="350.015" y2="364.925" gradientUnits="userSpaceOnUse">
            <stop stop-color="#8DD1F6" stop-opacity="0"/>
            <stop offset=".776" stop-color="#77BBE0"/>
        </linearGradient>
        <linearGradient id="qd6szhzflc" x1="436.47" y1="229.199" x2="457.859" y2="276.232" gradientUnits="userSpaceOnUse">
            <stop stop-color="#AEE1FD"/>
            <stop offset="1" stop-color="#8DD1F6"/>
        </linearGradient>
        <clipPath id="ajzjnj6fsa">
            <path fill="#fff" d="M0 0h688v409.848H0z"/>
        </clipPath>
    </defs>
</svg>
