<svg width="1200" height="490" viewBox="0 0 1200 490" fill="none" xmlns="http://www.w3.org/2000/svg">
    <g clip-path="url(#uo9hcob3xa)">
        <path fill="#F6F6F3" d="M0 0h1200v490H0z"/>
        <path d="m225.042 490.067-.042.073v-.073h.042L291.93 375.07l202.588-87.382 75.107 23.994L718.5 188.059 900.808 329.56 990.75 490h-79.125l-686.583.067z" fill="#D9EEF3"/>
        <ellipse cx="125.25" cy="257.362" rx="24.75" ry="24.35" fill="#D9EBF5"/>
        <path fill-rule="evenodd" clip-rule="evenodd" d="M112.025 178.318v76.313H42l70.025-76.313zm-52.976 68.821h45.476V197.58l-45.476 49.559z" fill="#98DDB4"/>
        <path fill-rule="evenodd" clip-rule="evenodd" d="M57.084 41.207 72 58.201 57.084 74.923 42 58.2l15.084-16.994zm-9.47 16.972 9.452 10.478 9.347-10.478-9.347-10.65-9.452 10.65z" fill="#FAD75E"/>
        <path fill-rule="evenodd" clip-rule="evenodd" d="M119.25 280.963c12.841 0 23.25-10.399 23.25-23.227 0-12.827-10.409-23.226-23.25-23.226S96 244.909 96 257.736c0 12.828 10.409 23.227 23.25 23.227zm0 7.492c16.983 0 30.75-13.753 30.75-30.719 0-16.965-13.767-30.718-30.75-30.718S88.5 240.771 88.5 257.736c0 16.966 13.767 30.719 30.75 30.719z" fill="#A7CDE7"/>
        <path fill-rule="evenodd" clip-rule="evenodd" d="M660.372 235.168a2.251 2.251 0 0 0-3.182 0l-14.319 14.304a2.246 2.246 0 0 0 0 3.179 2.251 2.251 0 0 0 3.182 0l10.478-10.467v18.376h-5.093v3.746h5.093v13.982h-4.787v3.747h4.787v12.148h-4.482v3.746h4.482V311.3h-5.093v3.746h5.093v11.163h-16.069v-5.089h-3.75v5.089h-13.385v-5.089h-3.75v5.089h-12.161v-5.089h-3.75v5.089H589.67v-5.089h-3.75v5.089h-10.67v4.495h10.67v5.088h3.75v-5.088h13.996v5.088h3.75v-5.088h12.161v5.088h3.75v-5.088h13.385v5.088h3.75v-5.088h16.069v14.219h-5.093v3.746h5.093v13.982h-4.787v3.746h4.787v12.149h-4.482v3.746h4.482v13.371h-5.093v3.746h5.093v12.187h4.5v-12.187h5.093v-3.746h-5.093v-13.371h5.705v-3.746h-5.705v-12.149h5.399v-3.746h-5.399v-13.982h5.093v-3.746h-5.093v-14.219h17.293v5.088h3.75v-5.088h13.997v5.088h3.75v-5.088h12.16v5.088h3.75v-5.088h13.385v5.088h3.75v-5.088h15.947l-10.478 10.467a2.246 2.246 0 0 0 0 3.179 2.251 2.251 0 0 0 3.182 0l14.319-14.304a2.248 2.248 0 0 0 0-3.179l-14.319-14.304a2.251 2.251 0 0 0-3.182 0 2.245 2.245 0 0 0 0 3.178l10.478 10.468h-15.947v-5.089h-3.75v5.089h-13.385v-5.089h-3.75v5.089h-12.16v-5.089h-3.75v5.089h-13.997v-5.089h-3.75v5.089h-17.293v-11.163h5.093V311.3h-5.093v-13.371h5.705v-3.746h-5.705v-12.148h5.399v-3.747h-5.399v-13.982h5.093v-3.746h-5.093v-18.376l10.478 10.467a2.251 2.251 0 0 0 3.182 0 2.248 2.248 0 0 0 0-3.179l-14.319-14.304z" fill="#9CC7E6"/>
        <path fill-rule="evenodd" clip-rule="evenodd" d="m595.971 389.401 121.878-125.477 3.23 3.131-121.878 125.477-3.23-3.131z" fill="#9CC7E6"/>
        <path fill="#CDEBD9" d="M1064.25 267.477h93v50.948h-93z"/>
        <path d="m1018.55 33.715 116.2 97.4H954l64.55-97.4z" fill="#D9EEF3"/>
        <path fill-rule="evenodd" clip-rule="evenodd" d="M1141.5 260.734h-81.75v41.957h81.75v-41.957zm-87.75-5.994v53.945h93.75V254.74h-93.75z" fill="#9CC7E6"/>
        <path fill-rule="evenodd" clip-rule="evenodd" d="M1157.37 140.856 1033.72 34.465 961.5 140.856h195.87zm-123.4-89.223-24.44 36.002 37.43 12.311-12.99-48.313zm-51.844 76.373 24.534-36.136 35.3 11.613-59.834 24.523zm5.638 3.009h67.546l-6.7-24.936-60.846 24.936zm68.406-28.037 68.13 22.41-39.62-34.092-28.51 11.682zm24.32-15.284-41.27-35.51 12.69 47.22 28.58-11.71zm-20.08 43.321-6.33-23.544 71.57 23.544h-65.24z" fill="#B2D9F5"/>
        <path d="M271.291 210.985c-1.883 0-3.445-.527-4.685-1.583-1.218-1.078-2.125-2.604-2.722-4.577-.597-1.996-.896-4.383-.896-7.159 0-2.799.276-5.197.827-7.193.551-1.996 1.436-3.522 2.653-4.577 1.24-1.056 2.848-1.584 4.823-1.584 1.906 0 3.48.528 4.72 1.584 1.24 1.032 2.159 2.546 2.756 4.543.62 1.996.93 4.405.93 7.227 0 2.776-.287 5.163-.861 7.159-.551 1.973-1.447 3.499-2.687 4.577-1.217 1.056-2.837 1.583-4.858 1.583zm0-2.512c1.194 0 2.171-.344 2.929-1.033.78-.688 1.366-1.766 1.757-3.235.39-1.468.608-3.384.654-5.747h-10.577c.046 2.34.242 4.244.586 5.713.368 1.468.93 2.558 1.688 3.269.758.689 1.746 1.033 2.963 1.033zm-5.237-12.356h10.543c-.069-2.088-.299-3.808-.689-5.162-.391-1.377-.965-2.398-1.723-3.063-.758-.689-1.723-1.033-2.894-1.033s-2.136.344-2.894 1.033c-.735.665-1.286 1.686-1.653 3.063-.368 1.354-.598 3.074-.69 5.162zM258.231 199.799l-.173 5.404v1.479c.023.322.092.666.207 1.033.138.344.299.562.482.654.184.069.368.115.552.138.206.022.344.057.413.103.092.046.138.137.138.275 0 .597-.195 1.101-.586 1.514-.367.391-.804.586-1.309.586-.873 0-1.481-.345-1.826-1.033-.321-.688-.482-1.698-.482-3.029l.138-6.332c0-1.561-.333-2.822-.999-3.786-.667-.964-1.597-1.446-2.791-1.446-1.171 0-2.308.654-3.411 1.962a11.276 11.276 0 0 0-2.308 4.44l.103 7.468c0 1.17-.436 1.756-1.309 1.756-1.056 0-1.585-.804-1.585-2.41 0-1.629.23-3.9.689-6.814 0-.964-.103-2.295-.31-3.992-.183-1.698-.275-2.742-.275-3.132a1.7 1.7 0 0 1 .344-1.067 1.21 1.21 0 0 1 .999-.482c.414 0 .735.161.965.482.253.298.379.642.379 1.032s-.012.872-.035 1.446v1.411c1.677-2.914 3.744-4.371 6.202-4.371 1.837 0 3.261.654 4.272 1.962 1.01 1.307 1.516 2.891 1.516 4.749zM237.469 185.689c.482 0 .838.161 1.068.482.229.299.344.689.344 1.17 0 .459-.161.93-.482 1.412-.322.458-.724.688-1.206.688s-.85-.161-1.102-.482c-.23-.321-.345-.746-.345-1.273a2.1 2.1 0 0 1 .482-1.377c.345-.413.758-.62 1.241-.62zm.964 16.348.173 7.228c0 1.147-.437 1.721-1.31 1.721-.872 0-1.309-.574-1.309-1.721l.173-7.228-.173-7.227c0-1.147.437-1.721 1.309-1.721.873 0 1.31.574 1.31 1.721l-.173 7.227zM232.092 205.684c0 1.561-.643 2.834-1.93 3.821-1.263.986-2.79 1.48-4.582 1.48-1.768 0-3.307-.402-4.616-1.205-1.309-.826-1.964-1.641-1.964-2.444 0-.344.103-.619.31-.826.207-.229.436-.344.689-.344.276 0 .494.058.655.172.16.092.379.287.654.585.276.299.517.551.724.758.229.206.677.435 1.343.688.689.252 1.321.378 1.895.378 1.263 0 2.297-.252 3.101-.757.827-.527 1.24-1.285 1.24-2.271 0-1.193-1.148-2.191-3.445-2.994a89.312 89.312 0 0 1-2.86-1.033 7.35 7.35 0 0 1-2.411-1.583c-.666-.666-.999-1.457-.999-2.375 0-1.239.562-2.317 1.688-3.235 1.125-.941 2.503-1.411 4.134-1.411 1.631 0 2.917.287 3.859.86.964.551 1.447 1.136 1.447 1.756 0 .757-.402 1.135-1.206 1.135-.345 0-.689-.126-1.034-.378-1.079-.757-2.113-1.136-3.1-1.136-.988 0-1.792.229-2.412.688-.62.436-.93.952-.93 1.549 0 .574.333 1.067.999 1.48.666.413 1.47.792 2.412 1.136.964.344 1.929.734 2.893 1.17.965.413 1.78.998 2.447 1.755a3.72 3.72 0 0 1 .999 2.581zM478.781 59.257l2.476-.067c1.221 0 1.832.417 1.832 1.253 0 .271-.124.554-.373.847-.226.294-.645.746-1.255 1.356-.588.61-1.131 1.22-1.628 1.83 1.243.27 2.216.824 2.917 1.66.701.813 1.051 1.807 1.051 2.982 0 1.174-.452 2.248-1.357 3.219-.904.971-2.125 1.457-3.663 1.457-1.085 0-2.08-.339-2.985-1.017-.904-.677-1.357-1.299-1.357-1.863 0-.588.272-.881.815-.881.271 0 .554.147.848.44.904.859 1.809 1.288 2.713 1.288.905 0 1.606-.26 2.103-.78.498-.52.746-1.197.746-2.033 0-.835-.294-1.524-.882-2.067-.565-.564-1.266-.87-2.103-.915-.723.746-1.345 1.119-1.865 1.119-.814 0-1.221-.384-1.221-1.152 0-.317.169-.622.509-.915.339-.317.848-.543 1.526-.678.859-.904 1.798-1.932 2.815-3.084-1.017-.067-1.684-.101-2.001-.101l-2.408.101c-.882 0-1.323-.327-1.323-.982 0-.316.113-.576.339-.78.249-.203.577-.304.984-.304l2.747.067zM467.745 76.911l-.102-7.353c0-1.152.43-1.728 1.289-1.728 1.04 0 1.561.847 1.561 2.541 0 1.333-.238 3.513-.713 6.54.272 2.756.407 4.812.407 6.167 0 2.96-.723 5.332-2.171 7.116-1.447 1.807-3.482 2.711-6.105 2.711a9.182 9.182 0 0 1-3.969-.881c-1.243-.565-1.865-1.14-1.865-1.728 0-.565.26-.847.78-.847.226 0 .848.203 1.865.61a8.292 8.292 0 0 0 3.189.644c1.899 0 3.403-.678 4.511-2.034 1.108-1.355 1.662-3.106 1.662-5.252 0-.79-.034-1.558-.102-2.304-1.673 2.891-3.776 4.337-6.309 4.337-1.809 0-3.211-.666-4.206-1.999-.995-1.355-1.492-3.004-1.492-4.947l.203-5.117c0-.903-.09-1.74-.271-2.507-.181-.79-.271-1.356-.271-1.694 0-.34.135-.644.407-.915.271-.294.622-.44 1.051-.44 1.04 0 1.561.925 1.561 2.778l-.272 7.454c0 1.537.328 2.79.984 3.762.656.948 1.56 1.423 2.713 1.423 1.176 0 2.307-.644 3.392-1.932a11.387 11.387 0 0 0 2.273-4.405zM437.537 75.25l4.952-.101c.407 0 .735.102.984.305a.967.967 0 0 1 .407.813c0 .339-.136.61-.407.813-.249.204-.577.305-.984.305-1.131 0-2.781-.034-4.952-.101l.135 5.32c0 .429-.113.768-.339 1.016-.203.249-.486.373-.848.373-.746 0-1.119-.463-1.119-1.39 0-.112.045-1.886.136-5.32-2.307.068-3.822.102-4.546.102-.723 0-1.221-.101-1.492-.305a.996.996 0 0 1-.373-.813c0-.339.124-.61.373-.813.271-.203.61-.305 1.018-.305l5.02.102a1458.69 1458.69 0 0 1-.136-4.846c0-.926.373-1.39 1.119-1.39.362 0 .645.125.848.373.226.249.339.497.339.746 0 .248-.045 1.954-.135 5.117zM412.83 59.257l2.476-.067c1.221 0 1.832.417 1.832 1.253 0 .271-.125.554-.373.847-.226.294-.645.746-1.255 1.356-.588.61-1.131 1.22-1.628 1.83 1.243.27 2.216.824 2.917 1.66.701.813 1.051 1.807 1.051 2.982 0 1.174-.452 2.248-1.357 3.219-.904.971-2.125 1.457-3.663 1.457-1.085 0-2.08-.339-2.985-1.017-.904-.677-1.357-1.299-1.357-1.863 0-.588.272-.881.814-.881.272 0 .554.147.848.44.905.859 1.809 1.288 2.714 1.288.904 0 1.605-.26 2.103-.78.497-.52.746-1.197.746-2.033 0-.835-.294-1.524-.882-2.067-.565-.564-1.266-.87-2.103-.915-.723.746-1.345 1.119-1.865 1.119-.814 0-1.221-.384-1.221-1.152 0-.317.169-.622.508-.915.34-.317.848-.543 1.527-.678a115.65 115.65 0 0 0 2.815-3.084c-1.018-.067-1.685-.101-2.001-.101l-2.408.101c-.882 0-1.323-.327-1.323-.982 0-.316.113-.576.339-.78.249-.203.576-.304.984-.304l2.747.067zM403.225 81.418c.587.767 1.13 1.287 1.628 1.558.52.271.882.407 1.085.407.226 0 .339.056.339.17 0 .564-.169 1.05-.508 1.456-.317.407-.656.61-1.018.61-.339 0-.611-.045-.814-.135-.204-.068-.418-.215-.645-.44a17.474 17.474 0 0 1-.644-.678c-.204-.249-.475-.61-.814-1.085a43.794 43.794 0 0 0-.916-1.321 91.08 91.08 0 0 0-1.153-1.762c-.498-.746-.961-1.435-1.391-2.067a345.126 345.126 0 0 0-2.917 4.303c-.972 1.468-1.583 2.338-1.832 2.61-.226.27-.486.406-.78.406-.271 0-.531-.113-.78-.339-.226-.203-.339-.44-.339-.712 0-.27.034-.497.102-.677.067-.181.237-.452.508-.814.272-.384.577-.802.916-1.253.95-1.22 2.239-3.016 3.867-5.388l-2.917-4.337c-.475-.61-.927-1.073-1.357-1.39-.43-.316-.757-.485-.984-.508-.497-.045-.746-.17-.746-.373 0-.564.147-1.039.441-1.423.317-.384.746-.576 1.289-.576.543 0 1.063.294 1.56.881.498.588 1.154 1.502 1.968 2.745l1.357 2.033c.09.135.203.316.339.542.158.226.305.44.441.644 2.532-3.818 3.833-5.772 3.9-5.862.385-.542.735-.813 1.052-.813.339 0 .622.124.848.372.226.226.339.486.339.78 0 .27-.136.632-.407 1.084-.271.43-.904 1.322-1.899 2.677a356.726 356.726 0 0 0-2.578 3.49l3.46 5.184z" fill="#B4B3F2"/>
        <path d="M981.21 263.672v-5.755l15.72-16.723-15.72-16.663v-5.754h23.4v3.896h-19.32l16.2 16.484v3.896l-16.08 16.723h19.2v3.896h-23.4z" fill="#FAD75E"/>
        <path d="M461.25 182.064h222l7.5 4.496v55.443l18 14.236H468l-6.75-5.62v-68.555z" fill="#5F5F5F"/>
        <path fill-rule="evenodd" clip-rule="evenodd" d="M682.875 182.064H461.25v68.181h239.625l-17.823-14.236-.177.159v-54.104z" fill="#FBF3AE"/>
        <path d="M646.758 218.63c-.441-3.293 4.032-4.028 4.032-6.062 0-1.28-1.008-1.993-2.667-1.993-1.281 0-2.331.587-3.36 1.657l-1.722-1.574c1.344-1.552 3.192-2.58 5.439-2.58 3.045 0 5.271 1.427 5.271 4.217 0 3.063-4.599 3.44-4.263 6.335h-2.73zm1.386 5.602c-1.092 0-1.869-.777-1.869-1.867 0-1.091.798-1.847 1.869-1.847 1.05 0 1.848.756 1.848 1.847 0 1.09-.798 1.867-1.848 1.867zM620.276 206.211h2.436v19.699h-2.436v-19.699zm-1.89 4.154 1.827.251c-.105 1.805-.462 4.322-.966 5.937l-1.89-.692c.504-1.405.882-3.755 1.029-5.496zm3.927.042 1.785-.735c.63 1.322 1.302 3.021 1.533 4.091l-1.89.86c-.21-1.091-.84-2.853-1.428-4.216zm3.297-.504h10.983v15.839h-2.562v-13.426h-5.964v13.594h-2.457v-16.007zm4.221-3.65 2.94.294c-.462 1.804-1.029 3.629-1.512 4.846l-2.331-.378c.357-1.322.756-3.315.903-4.762zm-3.087 9.881h8.568v2.328h-8.568v-2.328zm0 6.356h8.568v2.434h-8.568v-2.434zM605.031 210.281h2.541v7.552h-2.541v-7.552zm-5.124 1.091h13.02v1.909h-13.02v-1.909zm-.882 2.769h14.91v1.867h-14.91v-1.867zm1.764 9.23h11.172v1.972h-11.172v-1.972zm-3.759-6.44h18.795v2.035H597.03v-2.035zm2.877 2.853h13.188v6.105h-2.541v-4.133h-8.211v4.154h-2.436v-6.126zm5.103-13.573h2.604v3.021h-2.604v-3.021zm-7.518 1.783H615.3v4.343h-2.562v-2.14h-12.789v2.14h-2.457v-4.343zM579.642 206.21h2.562v3.63h-2.562v-3.63zm-3.885 2.392h10.269v2.266h-10.269v-2.266zm10.122 2.811h9.282v2.392h-9.282v-2.392zm-6.825 2.706v1.784h3.675v-1.784h-3.675zm-2.31-2.077h8.421v5.937h-8.421v-5.937zm3.066 5.077h2.415v6.252c0 1.07-.189 1.699-.882 2.098-.693.356-1.596.398-2.814.398-.084-.692-.441-1.657-.756-2.265.714.021 1.491.021 1.722.021.231-.021.315-.084.315-.294v-6.21zm-2.898 1.658 2.268.482c-.42 1.993-1.197 4.07-2.121 5.392-.399-.399-1.323-1.091-1.848-1.406.798-1.112 1.386-2.811 1.701-4.468zm5.733.482 1.974-.692c.567 1.133 1.113 2.601 1.323 3.587l-2.058.776c-.21-.986-.735-2.538-1.239-3.671zm8.379-11.727 1.953-.881c.945.986 1.806 2.371 2.163 3.357l-2.079 1.007c-.315-.986-1.155-2.434-2.037-3.483zm-2.793-1.343h2.457v5.371c0 4.301-.483 10.447-4.62 14.391-.462-.461-1.491-1.175-2.121-1.489 3.927-3.567 4.284-9.189 4.284-12.902v-5.371zm1.701 8.497h2.289v8.16c0 .126.021.273.084.315.063.105.189.147.315.147h.42a.53.53 0 0 0 .357-.126c.084-.084.147-.294.189-.503.042-.378.063-1.301.042-2.371.441.399 1.239.818 1.827 1.007-.042 1.133-.147 2.371-.273 2.895-.147.525-.378.881-.735 1.154-.315.21-.798.336-1.281.336h-1.239c-.567 0-1.134-.147-1.512-.525-.399-.419-.483-.797-.483-2.14v-8.349zM555.198 220.055h18.375v1.993h-18.375v-1.993zm3.717-3.587h8.946v1.783h-8.946v-1.783zm4.2 2.622h2.478v4.49c0 1.133-.231 1.699-1.113 2.014-.84.314-2.016.335-3.612.335-.126-.671-.462-1.552-.777-2.118 1.008.042 2.268.021 2.583.021.336-.021.441-.084.441-.336v-4.406zm4.158-2.622h.609l.525-.126 1.407 1.28a28.112 28.112 0 0 1-4.935 3.126c-.273-.378-.84-.986-1.134-1.28 1.26-.629 2.814-1.804 3.528-2.58v-.42zm-12.096-2.706h18.438v4.321h-2.499v-2.496h-13.545v2.496h-2.394v-4.321zm1.218-6.629 2.94.587c-.042.168-.21.273-.546.336l.378 6.503h-2.331l-.441-7.426zm13.713-.231h2.394c-.126 2.58-.336 5.769-.567 7.762h-2.415c.273-2.056.504-5.245.588-7.762zm-2.961 0h3.885v1.573h-3.885v-1.573zm-6.51-.588 1.176 1.343c-1.155.567-2.751 1.007-3.864 1.28l-1.008-1.301c1.113-.252 2.73-.902 3.696-1.322zm-2.919 2.875h3.948v1.552h-3.948v-1.552zm.063 2.286h3.927v1.553h-3.927v-1.553zm9.45-2.286h3.549v1.552h-3.549v-1.552zm-.063 2.286h3.549v1.553h-3.549v-1.553zm-2.079-5.14 1.617.483c-.945 1.28-2.52 2.475-3.948 3.231-.273-.315-.924-.86-1.323-1.133 1.449-.63 2.856-1.553 3.654-2.581zm-3.129 1.091 1.134-.944c1.239.588 2.793 1.574 3.57 2.308l-1.197 1.049c-.735-.713-2.268-1.741-3.507-2.413zm3.213 2.434 1.659.482c-.966 1.364-2.604 2.623-4.074 3.399-.294-.294-.945-.86-1.344-1.133 1.491-.671 2.961-1.657 3.759-2.748zm-3.15 1.154 1.155-.965c1.26.629 2.877 1.657 3.696 2.412l-1.26 1.07c-.735-.755-2.31-1.825-3.591-2.517zM546.252 210.05h6.972v2.307h-6.972v-2.307zm.21-3.861 2.415.357c-.609 4.322-1.701 8.517-3.549 11.161-.336-.462-1.26-1.406-1.785-1.825 1.617-2.266 2.478-5.916 2.919-9.693zm3.402 5.203 2.331.189c-.735 6.944-2.499 11.58-7.161 14.412-.21-.524-.924-1.573-1.344-2.056 4.158-2.286 5.649-6.482 6.174-12.545zm-2.289.588c.714 5.307 2.268 9.901 5.775 11.978-.546.441-1.302 1.385-1.659 1.993-3.822-2.538-5.397-7.468-6.258-13.678l2.142-.293zm-9.45-5.77h2.163v11.203h-2.163V206.21zm-1.218 2.623v3.042h4.704v-3.042h-4.704zm-2.058-1.595h8.946v6.231h-8.946v-6.231zm1.638 8.413v.86h5.544v-.86h-5.544zm-2.079-1.532h9.807v3.902h-9.807v-3.902zm-.84 4.783c2.94 0 7.413-.062 11.613-.125l-.063 1.762c-4.158.105-8.547.168-11.487.21l-.063-1.847zm4.053-1.321 2.079.482a82.74 82.74 0 0 1-2.94 5.035l-2.037-.503c.882-1.322 2.079-3.399 2.898-5.014zm-1.281 5.014 1.197-1.448c2.415.818 5.019 2.035 6.531 3l-1.554 1.532c-1.386-.986-3.822-2.224-6.174-3.084zm4.872-2.811 2.1.23c-.861 3.735-3.381 5.161-8.379 5.979-.126-.65-.525-1.447-.882-1.93 4.242-.377 6.363-1.405 7.161-4.279zm-7.707-10.343h2.121v.147h7.14v-.147h2.415v1.804h-2.415v-.147h-7.14v.147h-2.121v-1.804zM512.736 207.531h10.71v2.245h-10.71v-2.245zm.63 9.986h9.429v2.245h-9.429v-2.245zm3.486-2.035h2.499v7.909l-2.499.378v-8.287zm-4.347 7.426c2.793-.251 7.056-.755 10.983-1.216l.063 2.349c-3.759.504-7.791 1.028-10.668 1.385l-.378-2.518zm.189-9.964c2.415-.042 6.069-.147 9.576-.273l-.063 2.161c-3.339.188-6.846.335-9.366.44l-.147-2.328zm6.447-1.826 1.869-.986c1.176 1.427 2.52 3.357 3.045 4.679l-1.995 1.133c-.483-1.301-1.764-3.336-2.919-4.826zm-3.423-2.223 2.73.566c-.735 1.783-1.554 3.797-2.247 5.098l-2.121-.566c.609-1.385 1.302-3.546 1.638-5.098zm8.505-.126h2.415v11.874h-2.415v-11.874zm4.788-1.972h2.457v16.111c0 1.427-.273 2.119-1.113 2.518-.84.398-2.205.482-3.99.482-.105-.713-.462-1.846-.819-2.559 1.26.063 2.541.042 2.961.042.378-.021.504-.126.504-.504v-16.09zM496.188 215.483h12.558v10.489h-2.541v-8.58h-7.602v8.58h-2.415v-10.489zm-4.179-2.853h18.711v1.972h-18.711v-1.972zm1.47-2.811h16.086v1.909h-16.086v-1.909zm4.347 8.454h9.408v1.595h-9.408v-1.595zm0 2.497h9.408v1.573h-9.408v-1.573zm-.294 2.538h9.702v1.909h-9.702v-1.909zm10.5-17.035 1.47 1.805c-4.305.713-10.563.965-15.771.923-.042-.546-.273-1.385-.483-1.888 5.145 0 11.235-.252 14.784-.84zm-8.946 1.742 2.625.524c-1.428 5.224-3.948 10.217-8.799 13.007-.336-.567-1.071-1.511-1.575-1.993 4.452-2.392 6.762-7.007 7.749-11.538z" fill="#464646"/>
        <path fill="#ACDBF5" d="M490.875 232.264h163.5v4.495h-163.5z"/>
        <path d="M532.5 40.459h299.25l7.5 4.495v55.444l18 14.235h-318l-6.75-5.619V40.459z" fill="#5F5F5F"/>
        <path fill-rule="evenodd" clip-rule="evenodd" d="M831.75 40.459H532.5v68.18h317.25l-17.823-14.235-.177.158V40.46z" fill="#FBF3AE"/>
        <path d="M806.498 77.843v-.254c.005-.869.082-1.561.231-2.078.154-.516.378-.934.671-1.252a5.178 5.178 0 0 1 1.059-.864c.309-.198.585-.404.828-.618a2.67 2.67 0 0 0 .582-.708c.144-.263.216-.556.216-.879 0-.343-.082-.643-.246-.901a1.634 1.634 0 0 0-.664-.596 1.974 1.974 0 0 0-.91-.209c-.323 0-.628.072-.917.216-.288.14-.524.348-.708.626-.184.273-.284.613-.299 1.02h-3.042c.025-.993.263-1.812.716-2.458a4.096 4.096 0 0 1 1.797-1.453c.746-.322 1.568-.484 2.468-.484.99 0 1.865.164 2.625.492.761.323 1.358.792 1.79 1.408.433.616.649 1.358.649 2.227 0 .581-.097 1.098-.291 1.55a3.778 3.778 0 0 1-.798 1.192 6.184 6.184 0 0 1-1.215.931 4.939 4.939 0 0 0-.97.73 2.484 2.484 0 0 0-.559.88c-.119.332-.182.742-.187 1.228v.254h-2.826zm1.477 4.768c-.498 0-.923-.174-1.276-.522a1.712 1.712 0 0 1-.514-1.266 1.68 1.68 0 0 1 .514-1.252 1.752 1.752 0 0 1 1.276-.521c.472 0 .887.173 1.245.521.358.348.539.765.544 1.252a1.732 1.732 0 0 1-.261.901c-.164.268-.38.484-.648.648a1.697 1.697 0 0 1-.88.239zM786.414 81.745h11.067v1.93h-11.067v-1.93zm-1.134-3.356h13.482v5.853h-2.583v-3.944h-8.421v4.007h-2.478v-5.916zm-1.575-11.56h16.59v1.826h-16.59V66.83zm-.588 5.224h17.808v1.825h-17.808v-1.825zm1.974-2.601h13.839v1.762h-13.839v-1.762zm-2.646 6.23h19.131v1.93h-19.131v-1.93zm8.19-7.971h2.604v8.769h-2.604v-8.77zm-4.263-2.56 2.289-.587c.483.65.924 1.531 1.134 2.16l-2.394.693c-.147-.608-.588-1.573-1.029-2.266zm-.966 8.937 2.331-.503c.42.587.819 1.384.987 1.93l-2.436.608c-.105-.566-.504-1.426-.882-2.035zm9.681-9.545 2.667.44a25.965 25.965 0 0 1-1.407 2.245l-2.289-.42c.357-.67.819-1.594 1.029-2.265zm1.071 9.063 2.583.377c-.441.797-.798 1.448-1.113 1.93l-2.352-.377c.294-.567.672-1.364.882-1.93zM763.126 71.739h4.893v2.265h-4.893V71.74zm-1.365-5.539h7.749v8.518h-2.436v-6.189h-5.313V66.2zm0 5.539h2.436v6.42c0 .754.126.838.882.838h2.142c.651 0 .777-.293.861-2.203.504.4 1.554.798 2.247.966-.294 2.853-.966 3.608-2.877 3.608h-2.73c-2.31 0-2.961-.692-2.961-3.168V71.74zm10.374-3.462h8.736v2.392h-8.736v-2.392zm.168-3.65 2.625.462c-.84 3.88-2.31 7.53-4.2 9.796-.483-.44-1.596-1.237-2.226-1.615 1.869-1.95 3.15-5.224 3.801-8.643zm4.578 4.678 2.562.273c-1.071 7.741-3.696 12.272-9.786 14.832-.252-.588-1.029-1.7-1.512-2.245 5.67-2.035 7.917-6 8.736-12.86zm-3.612.86c1.029 5.539 3.297 9.965 7.917 11.874-.567.504-1.365 1.532-1.743 2.224-4.977-2.37-7.224-7.196-8.484-13.7l2.31-.398zM740.635 67.145h18.732v2.35h-18.732v-2.35zm5.67 7.553h9.135v2.098h-9.135v-2.098zm-1.869-3.546h10.626v2.203h-8.127v10.93h-2.499V71.152zm10.122 0h2.457V81.58c0 1.237-.231 1.93-1.092 2.328-.84.378-2.037.399-3.738.399-.105-.692-.441-1.762-.777-2.413 1.092.063 2.331.042 2.688.042.336 0 .462-.105.462-.398V71.152zm-7.413-6.566 2.604.587c-1.47 4.742-3.99 9.567-8.085 12.42-.357-.567-1.155-1.469-1.659-1.951 3.738-2.455 6.09-6.965 7.14-11.056zm-.84 13.573h9.135v2.098h-9.135v-2.098zM729.148 66.432h7.077v2.266h-7.077v-2.266zm-2.835 7.93h9.744v2.266h-9.744v-2.266zm8.904-7.93h2.52s-.021.608-.063.923c-.21 3.399-.483 4.93-1.05 5.56-.462.503-.987.692-1.701.755-.588.063-1.617.084-2.73.042-.063-.693-.357-1.679-.756-2.308.945.084 1.89.105 2.31.105.336 0 .546-.021.756-.189.336-.336.546-1.573.714-4.573v-.315zm-6.678-1.846 2.583.336c-.567 4.049-1.89 7.3-4.095 9.335-.441-.398-1.554-1.217-2.163-1.573 2.142-1.679 3.255-4.595 3.675-8.098zm6.636 9.776h.504l.441-.084 1.68.671c-1.806 5.58-6.153 8.161-11.802 9.357-.231-.671-.798-1.72-1.26-2.287 5.103-.797 9.072-3.084 10.437-7.3v-.357zm-5.397 2.035c1.638 2.77 5.04 4.783 9.303 5.601-.567.546-1.281 1.594-1.659 2.287-4.494-1.112-7.833-3.545-9.891-7.112l2.247-.776zm-9.429-9.86 1.365-1.846c1.344.524 3.108 1.426 3.948 2.182l-1.47 2.055c-.798-.776-2.499-1.783-3.843-2.391zm-1.26 5.685 1.323-1.888c1.344.504 3.129 1.406 4.011 2.119l-1.428 2.077c-.798-.734-2.541-1.72-3.906-2.308zm.735 10.175c1.071-1.595 2.583-4.196 3.801-6.63l1.89 1.637a86.095 86.095 0 0 1-3.528 6.63l-2.163-1.637zM710.415 64.606h2.499v6.713h-2.499v-6.713zm-4.242.965h11.13v1.53h-11.13v-1.53zm.504 2.244h10.143v1.448h-10.143v-1.448zm-1.029 2.161h12.075v1.573h-12.075v-1.573zm3.57 6.147v.902h5.103v-.902h-5.103zm0 2.328v.902h5.103v-.902h-5.103zm0-4.636v.86h5.103v-.86h-5.103zm-2.268-1.552h9.744v8.643h-9.744v-8.643zm5.418 9.608 1.68-1.217c1.365.818 3.045 1.825 3.99 2.496l-2.184 1.175a45.041 45.041 0 0 0-3.486-2.454zm-3.066-1.322 1.953 1.3c-1.281.987-3.381 2.015-5.082 2.56-.378-.461-1.071-1.154-1.554-1.573 1.68-.483 3.675-1.469 4.683-2.287zm-8.043-15.923 2.184.756c-.861 1.636-1.827 3.503-2.625 4.678l-1.68-.692c.735-1.26 1.638-3.294 2.121-4.742zm2.373 2.476 2.037.944c-1.533 2.35-3.57 5.266-5.187 7.07l-1.449-.818c1.575-1.889 3.486-4.951 4.599-7.196zm-5.628 2.412 1.239-1.678c1.092.986 2.373 2.35 2.877 3.336l-1.365 1.93c-.462-1.028-1.701-2.518-2.751-3.588zm5.04 2.56 1.764-.713c.798 1.405 1.596 3.23 1.827 4.426l-1.89.84c-.231-1.197-.945-3.106-1.701-4.553zm-5.103 1.741c1.89-.105 4.599-.252 7.224-.42l.021 2.035c-2.499.231-5.082.399-7.077.546l-.168-2.16zm5.607 3.504 1.743-.546c.504 1.175.945 2.706 1.071 3.713l-1.869.609c-.084-1.007-.483-2.58-.945-3.776zm-4.704-.378 2.016.335c-.21 2.014-.651 4.091-1.26 5.434-.42-.273-1.344-.671-1.827-.881.588-1.238.903-3.126 1.071-4.888zm2.31-2.014h2.163v9.377h-2.163v-9.377zM680.302 72.494h4.851v2.308h-4.851v-2.308zm3.885 0h2.457s-.021.63-.021.923c-.084 4.448-.189 6.315-.672 6.965-.42.525-.84.713-1.449.818-.567.084-1.47.084-2.457.063-.042-.734-.315-1.72-.693-2.35.756.085 1.47.085 1.806.085.294 0 .483-.042.651-.252.252-.336.336-1.804.378-5.874v-.378zm6.321-6.566 1.512-1.531c1.155.608 2.709 1.573 3.465 2.265l-1.617 1.7c-.693-.735-2.184-1.763-3.36-2.434zm2.478 5.391 2.541.609c-1.764 5.475-4.851 9.734-9.009 12.293-.378-.524-1.302-1.573-1.827-2.077 4.032-2.16 6.846-5.958 8.295-10.825zm-12.537-3.566h16.191v2.475h-16.191v-2.475zm-1.68 0h2.646v6.168c0 3.147-.357 7.804-2.268 10.636-.42-.504-1.554-1.427-2.142-1.72 1.617-2.518 1.764-6.189 1.764-8.937v-6.147zm8.526-3.126h2.646c-.147 8.56 1.785 16.972 3.906 16.972.483 0 .735-1.07.861-3.713.567.587 1.47 1.175 2.142 1.426-.399 3.902-1.239 4.846-3.213 4.846-4.578 0-6.279-9.965-6.342-19.53zM662.157 81.263h13.755v2.328h-13.755v-2.328zm4.095-7.574v3.168h5.397v-3.168h-5.397zm0-5.412v3.084h5.397v-3.084h-5.397zm-2.604-2.329H674.4v13.238h-10.752V65.948zm-2.877-1.258 2.457.776c-1.386 3.587-3.654 7.405-6.006 9.797-.231-.63-.945-2.056-1.386-2.707 1.953-1.888 3.843-4.867 4.935-7.867zm-2.121 5.79 2.499-2.476v16.279h-2.499V70.48zM638.071 75.474h14.133v8.874h-2.625v-6.965h-9.009v6.965h-2.499v-8.874zm1.26 3.105h10.92v1.888h-10.92v-1.888zm.126 3.125h10.899v1.888h-10.899v-1.888zm4.2-8.14 2.709.378c-.546 1.07-1.155 2.12-1.638 2.79l-2.058-.44c.378-.818.798-1.93.987-2.727zm-7.875-8.013h6.783v1.93h-6.783v-1.93zm6.216 0h2.268v6.944c0 .986-.21 1.468-.861 1.762-.672.294-1.596.294-2.877.294-.084-.546-.378-1.28-.63-1.784.735.021 1.533.021 1.764.021.252 0 .336-.084.336-.293V65.55zm3.381 0h7.245v1.93h-7.245v-1.93zm6.069 0h2.352v6.88c0 1.029-.21 1.532-.924 1.868-.714.294-1.722.314-3.108.294a7.738 7.738 0 0 0-.651-1.889c.777.042 1.722.042 1.974.022.273-.022.357-.064.357-.315v-6.86zm-6.678 6.168c1.491-.441 3.675-1.154 5.796-1.91l.378 1.805a186.969 186.969 0 0 1-5.334 1.972l-.84-1.867zm.987-3 1.197-1.469c.945.44 2.205 1.175 2.814 1.741l-1.26 1.637c-.567-.588-1.806-1.385-2.751-1.91zm-10.542 3.356c1.407-.398 3.465-1.112 5.502-1.825l.357 1.804a208.04 208.04 0 0 1-4.956 2.077l-.903-2.056zm1.113-3.335 1.218-1.448c.924.462 2.142 1.196 2.709 1.762l-1.26 1.595c-.546-.567-1.722-1.385-2.667-1.91zM626.478 76.752h2.394v7.531h-2.394v-7.53zm-4.725-10.28h11.676v2.161h-11.676v-2.16zm2.772 7.93v1.112h6.279v-1.111h-6.279zm0-2.81v1.132h6.279v-1.133h-6.279zm-2.205-1.784h10.794v7.49H622.32v-7.49zm6.783 6.44c1.092 1.973 3.171 4.133 5.103 5.287-.567.44-1.344 1.3-1.722 1.91-1.953-1.47-3.99-4.07-5.208-6.525l1.827-.671zm-2.982.126 1.932.65c-1.281 2.728-3.465 5.266-5.838 6.672-.378-.587-1.134-1.468-1.659-1.93 2.247-1.09 4.452-3.23 5.565-5.392zm.357-11.768h2.394v6.293h-.147v5.937h-2.1v-5.937h-.147v-6.293zm-9.219.02 2.184.756c-.861 1.636-1.827 3.503-2.625 4.678l-1.68-.692c.735-1.26 1.638-3.294 2.121-4.742zm2.373 2.476 2.037.944c-1.533 2.35-3.57 5.266-5.187 7.07l-1.449-.818c1.575-1.889 3.486-4.951 4.599-7.196zm-5.628 2.412 1.239-1.678c1.092.986 2.373 2.35 2.877 3.336l-1.365 1.93c-.462-1.028-1.701-2.518-2.751-3.588zm4.914 2.623 1.743-.734c.84 1.426 1.638 3.272 1.89 4.468l-1.89.86c-.231-1.217-.966-3.147-1.743-4.594zm-4.977 1.678c1.89-.105 4.599-.252 7.224-.42l.021 2.056c-2.457.19-5.019.378-6.972.525l-.273-2.16zm5.607 3.546 1.764-.546c.483 1.112.882 2.538 1.008 3.483l-1.848.608c-.105-.965-.483-2.455-.924-3.546zm-4.704-.42 2.016.335c-.21 2.014-.651 4.091-1.26 5.434-.42-.273-1.344-.671-1.827-.881.588-1.238.903-3.126 1.071-4.888zm2.31-2.014h2.163v9.377h-2.163v-9.377zM594.075 68.97h16.086v2.58h-16.086v-2.58zm15.057 0h2.625s-.021.86-.063 1.217c-.42 8.391-.84 11.58-1.785 12.692-.609.797-1.218 1.028-2.142 1.154-.798.126-2.1.105-3.381.042-.042-.735-.399-1.868-.882-2.602a43.35 43.35 0 0 0 3.15.126c.42 0 .672-.084.966-.356.735-.714 1.155-4.028 1.512-11.77v-.503zm-8.61-4.322h2.667v4.322c0 4.762-.672 11.412-7.812 15.44-.399-.608-1.344-1.594-1.974-2.035 6.531-3.545 7.119-9.356 7.119-13.405v-4.322zM572.425 66.809h7.98v2.118h-7.98V66.81zm10.101-1.07h7.203v2.119h-7.203v-2.12zm-6.216-1.196 2.289.461a123.547 123.547 0 0 1-3.696 7.595l-2.037-.902c1.05-1.846 2.499-4.846 3.444-7.154zm-2.478 7.322 1.323-1.595c2.121.713 5.04 1.993 6.552 2.98l-1.449 1.803c-1.386-.965-4.263-2.35-6.426-3.188zm11.193-3.965c1.092 3.062 3.444 5.328 7.014 6.251-.504.462-1.155 1.406-1.47 2.014-3.927-1.238-6.279-3.902-7.665-7.762l2.121-.504zm-11.151 8.873h14.448v2.12h-14.448v-2.12zm13.44 0h2.751s-.042.672-.084.987c-.336 3.503-.756 5.076-1.386 5.727-.546.524-1.113.692-1.848.755-.651.063-1.764.063-2.982.02-.042-.67-.315-1.594-.693-2.223 1.008.105 1.995.126 2.436.126.357 0 .588-.042.798-.23.399-.378.756-1.742 1.008-4.826v-.335zm-6.993-1.699h2.562c-.441 4.846-1.575 7.91-8.988 9.357-.21-.65-.798-1.658-1.281-2.161 6.678-1.091 7.35-3.357 7.707-7.196zm-.42-8.265h.441l.42-.063 1.386.314c-1.008 5.77-4.095 8.14-8.988 9.252-.21-.608-.651-1.531-1.071-2.014 4.263-.671 7.014-2.77 7.812-7.196v-.293zm9.051-1.07h.42l.42-.084 1.491.482c-1.134 5.14-4.095 7.93-8.232 9.357-.273-.588-.819-1.469-1.281-1.951 3.612-1.007 6.3-3.567 7.182-7.469v-.335zM559.026 65.571h2.562v16.51l-2.562.587V65.571zm1.134 0h9.345v9.923h-9.345v-2.182h6.783v-5.538h-6.783V65.57zm0 3.902h7.854v2.098h-7.854v-2.098zm-2.961 12.147c1.995-.252 4.977-.693 7.812-1.133l.168 2.245c-2.541.461-5.271.922-7.35 1.258l-.63-2.37zm8.127-7.091c.798 3.545 2.562 6.377 5.754 7.594-.546.483-1.302 1.49-1.659 2.182-3.549-1.616-5.271-4.93-6.279-9.399l2.184-.377zm3.486 1.405 1.785 1.385a24.905 24.905 0 0 1-3.717 2.79l-1.596-1.322c1.092-.692 2.625-1.909 3.528-2.853zm-12.642-6.88 2.247.901c-1.554 2.58-4.032 5.308-6.237 7.007-.231-.545-.924-1.846-1.323-2.391 1.932-1.343 4.053-3.44 5.313-5.518zm-.651-4.427 2.394.965c-1.428 1.951-3.591 4.049-5.607 5.329-.252-.567-.861-1.595-1.239-2.12 1.659-1.027 3.549-2.769 4.452-4.174zm-1.491 9.294 2.331-2.33.126.064v12.65h-2.457V73.92z" fill="#464646"/>
        <path fill="#ACDBF5" d="M550.5 90.658h254.25v4.495H550.5z"/>
        <path d="M108 72.676h222l7.5 4.495v55.444l18 14.235H114.75l-6.75-5.619V72.676z" fill="#5F5F5F"/>
        <path fill-rule="evenodd" clip-rule="evenodd" d="M329.625 72.676H108v68.18h239.625l-17.823-14.235-.177.158V72.676z" fill="#FBF3AE"/>
        <path d="M272.508 109.242c-.441-3.294 4.032-4.028 4.032-6.063 0-1.28-1.008-1.993-2.667-1.993-1.281 0-2.331.587-3.36 1.657l-1.722-1.573c1.344-1.553 3.192-2.58 5.439-2.58 3.045 0 5.271 1.426 5.271 4.216 0 3.063-4.599 3.441-4.263 6.336h-2.73zm1.386 5.601c-1.092 0-1.869-.776-1.869-1.867s.798-1.846 1.869-1.846c1.05 0 1.848.755 1.848 1.846 0 1.091-.798 1.867-1.848 1.867zM250.836 109.053h12.201v2.266h-12.201v-2.266zm6.384-9.566v2.287h2.52v-2.287h-2.52zm-2.184-2.077h7.014v6.441h-7.014v-6.44zm2.688 15 2.079-1.133c1.218 1.175 2.73 2.832 3.423 3.965l-2.247 1.28c-.588-1.133-2.037-2.874-3.255-4.112zm-6.132-13.322h2.268v8.979h-2.268v-8.979zm2.583 12.084 2.205 1.259c-1.008 1.447-2.73 3.126-4.242 4.091-.42-.483-1.239-1.196-1.827-1.616 1.47-.86 3.066-2.496 3.864-3.734zm-1.386-6.147h8.694v5.119h-2.457v-2.958h-6.237v-2.161zm-8.61-1.762h5.859v1.888h-5.859v-1.888zm.126-5.79h5.67v1.91h-5.67v-1.91zm-.126 8.643h5.859v1.909h-5.859v-1.909zm-.945-5.811h7.497v1.993h-7.497v-1.993zm2.1 8.727h4.746v6.336h-4.746v-1.972h2.688v-2.392h-2.688v-1.972zm-1.218 0h2.058v7.217h-2.058v-7.217zM231.201 99.319h10.311v2.119h-10.311v-2.12zm-.651 4.426h11.445v2.182H230.55v-2.182zm2.394 6.671h6.489v1.847h-6.489v-1.847zm0 3.21h6.489v2.056h-6.489v-2.056zm-1.008-6.482h8.904v9.356h-2.394v-7.363h-4.221v7.363h-2.289v-9.356zm1.008-10.322h2.289v8.14h-2.289v-8.14zm4.263 0h2.31v8.14h-2.31v-8.14zm-13.587 5.203h6.258v2.098h-6.258v-2.098zm-.945 3.65h7.791v2.14h-7.791v-2.14zm.147 3.336 1.638-.42c.378 1.154.714 2.644.84 3.609l-1.764.482c-.063-1.007-.357-2.496-.714-3.671zm-.399 4.804c2.121-.273 5.313-.776 8.358-1.28l.126 2.119a417.887 417.887 0 0 1-7.98 1.427l-.504-2.266zm6.3-5.413 1.911.462c-.42 1.259-.819 2.664-1.176 3.545l-1.491-.44c.273-.986.63-2.518.756-3.567zm-3.171-5.475h2.184v11.266l-2.184.377v-11.643zm0-6.105h1.365v.462h.714v.671c-.798 1.594-2.079 3.776-4.158 5.664-.315-.524-1.05-1.342-1.533-1.678 1.764-1.51 2.961-3.482 3.612-5.119zm.315 0h1.764c1.281 1.091 2.919 2.665 3.696 3.797l-1.638 1.93c-.672-1.111-2.163-2.958-3.381-3.944h-.441v-1.783zM201.634 111.109h19.026v1.993h-19.026v-1.993zm4.977-5.728v.756h9.345v-.756h-9.345zm0 2.182v.776h9.345v-.776h-9.345zm0-4.342v.755h9.345v-.755h-9.345zm-2.541-1.511h14.553v8.14H204.07v-8.14zm9.534 7.741h2.604v7.028h-2.604v-7.028zm-9.408-11.265h6.615v1.993h-6.615v-1.993zm8.337 0h8.043v1.993h-8.043v-1.993zm-8.253-1.532 2.352.65c-.861 1.847-2.268 3.735-3.549 4.91-.483-.399-1.47-1.049-2.037-1.364 1.323-1.007 2.562-2.622 3.234-4.196zm8.547 0 2.394.588c-.714 1.825-1.995 3.608-3.192 4.72-.525-.378-1.617-.923-2.226-1.175 1.323-.986 2.436-2.56 3.024-4.133zm-7.791 3.063 2.079-.692c.525.65 1.113 1.573 1.365 2.203l-2.184.776c-.231-.609-.756-1.595-1.26-2.287zm9.24-.02 2.016-.84c.672.65 1.491 1.573 1.869 2.245l-2.121.923c-.336-.63-1.092-1.637-1.764-2.329zm-7.644 9.733h2.541v2.014c0 1.972-1.071 3.902-5.691 5.077-.336-.524-1.029-1.364-1.575-1.846 4.032-.776 4.725-2.182 4.725-3.273v-1.972zM188.781 103.871h11.382v2.497h-11.382v-2.497zm4.431-6.965h2.562v19.615h-2.562V96.906zm-11.949 6.357h6.783v1.888h-6.783v-1.888zm.126-5.79h6.699v1.909h-6.699v-1.91zm-.126 8.643h6.783v1.909h-6.783v-1.909zm-1.029-5.811h8.652v1.993h-8.652v-1.993zm2.184 8.727h5.565v6.377h-5.565v-1.993h3.36v-2.391h-3.36v-1.993zm-1.218 0h2.184v7.217H181.2v-7.217zM159.844 105.78h18.606v2.223h-18.606v-2.223zm9.408 3.797h7.854v2.161h-7.854v-2.161zm-1.176-2.664h2.541v7.762h-2.541v-7.762zm-3.255 3.356c1.155 3.063 3.822 3.546 7.497 3.567 1.155.02 5.208 0 6.72-.042-.357.545-.735 1.657-.861 2.391h-6.006c-4.83 0-7.707-.86-9.429-5.245l2.079-.671zm-1.827-1.825 2.52.357c-.693 3.461-2.205 6.104-4.536 7.762-.378-.462-1.344-1.385-1.89-1.762 2.142-1.322 3.423-3.546 3.906-6.357zm1.239-6.419v1.049h9.639v-1.049h-9.639zm0-2.707v1.049h9.639v-1.049h-9.639zm-2.436-1.783h14.637v7.322h-14.637v-7.322zM148.335 100.599v6.21h6.888v-6.21h-6.888zm-1.974-1.825h10.92v9.881h-10.92v-9.881zm4.515-2.014 2.793.377a34.19 34.19 0 0 1-1.512 2.958l-2.1-.44c.315-.86.672-2.035.819-2.895zm-1.617 12.608 1.47-1.238c1.197.588 2.667 1.574 3.381 2.371l-1.596 1.363c-.651-.755-2.079-1.825-3.255-2.496zm4.914 1.888 1.806-.881c1.008 1.384 1.932 3.252 2.268 4.531l-1.932.965c-.294-1.3-1.176-3.209-2.142-4.615zm-5.208-.755h2.121v3.335c0 .525.063.567.504.567h1.197c.399 0 .483-.168.546-1.532.399.336 1.302.672 1.89.818-.231 2.182-.819 2.728-2.163 2.728h-1.806c-1.89 0-2.289-.63-2.289-2.56v-3.356zm-2.205.231 1.953.461c-.252 1.804-.672 3.629-1.764 4.72l-1.806-.965c.945-.986 1.428-2.58 1.617-4.216zm4.368-10.238 1.533.231c-.609 1.594-1.533 3.188-3.15 4.447-.252-.335-.777-.797-1.155-.986 1.449-1.049 2.352-2.454 2.772-3.692zm.42.902h2.415v1.196h-3.024l.609-1.196zm1.89 0h.294l.273-.063 1.029.399c-.798 2.706-2.583 4.51-4.725 5.475a4.652 4.652 0 0 0-.966-1.175c1.848-.755 3.507-2.37 4.095-4.405v-.231zm-5.061 1.448 1.092-1.028c1.953.902 4.305 2.37 5.565 3.398l-1.113 1.154c-1.218-1.091-3.57-2.622-5.544-3.524zm-6.993-6 2.121.734c-.84 1.636-1.806 3.503-2.583 4.678l-1.638-.671c.735-1.259 1.638-3.294 2.1-4.741zm2.247 2.475 1.995.902c-1.47 2.371-3.381 5.287-4.914 7.07l-1.407-.776c1.491-1.888 3.297-4.951 4.326-7.196zm-5.502 2.35 1.239-1.658c1.071 1.007 2.331 2.392 2.835 3.336l-1.323 1.888c-.462-1.028-1.701-2.517-2.751-3.566zm4.872 2.58 1.659-.671c.756 1.447 1.491 3.356 1.68 4.594l-1.764.755c-.168-1.216-.84-3.188-1.575-4.678zm-4.935 1.783c1.806-.084 4.368-.251 6.888-.419l.021 2.077c-2.331.188-4.767.356-6.636.503l-.273-2.161zm5.271 3.546 1.68-.504c.504 1.196.924 2.769 1.05 3.797l-1.764.567c-.084-1.049-.483-2.644-.966-3.86zm-4.368-.42 1.953.336c-.21 1.993-.672 4.07-1.26 5.412-.399-.272-1.281-.671-1.764-.86.588-1.238.903-3.126 1.071-4.888zm2.163-2.014h2.121v9.378h-2.121v-9.378z" fill="#464646"/>
        <path fill="#ACDBF5" d="M137.625 122.875h163.5v4.495h-163.5z"/>
        <path d="M117.75 371.621h262.5l7.5 4.496v55.443l18 14.235H124.5l-6.75-5.619v-68.555z" fill="#5F5F5F"/>
        <path fill-rule="evenodd" clip-rule="evenodd" d="M380.25 371.621h-262.5v68.181h280.5l-17.823-14.236-.177.158v-54.103z" fill="#FBF3AE"/>
        <path d="M342.141 402.061h8.736v2.539h-8.736v-2.539zm-8.988 9.839h19.194v2.539h-19.194V411.9zm7.56-15.88h2.709v17.286h-2.709V396.02zM312.594 397.172h18.312v2.58h-18.312v-2.58zm10.143 7.028 1.953-1.637c2.247 1.637 5.481 4.049 7.014 5.728l-2.142 1.93c-1.386-1.658-4.494-4.238-6.825-6.021zm-.84-6.084 2.814.986c-2.394 4.426-6.216 8.706-11.046 11.223-.399-.671-1.197-1.72-1.722-2.286 4.494-2.119 8.211-6.189 9.954-9.923zm-1.533 5.077 2.772-2.748v14.978h-2.772v-12.23zM293.988 398.705v2.727h2.667v-2.727h-2.667zm-2.163-2.119h7.098v6.965h-7.098v-6.965zm2.793 6.105h2.205v9.356h-2.205v-9.356zm-2.898 2.349h2.016v7.637h-2.016v-7.637zm-.987 7.175c2.121-.483 5.46-1.406 8.589-2.266l.315 2.077a624.867 624.867 0 0 1-8.295 2.539l-.609-2.35zm4.914-6.461h3.654v2.181h-3.654v-2.181zm4.536-9.147h2.436v16.636l-2.436.524v-17.16zm1.302 0h8.043v9.902h-8.043v-2.203h5.586v-5.496h-5.586v-2.203zm.042 3.797h6.447v2.182h-6.447v-2.182zm-2.772 12.419c1.743-.293 4.305-.839 6.762-1.342l.231 2.182c-2.205.545-4.578 1.09-6.426 1.51l-.567-2.35zm6.972-7.573c.651 3.734 2.1 6.776 5.124 8.056-.546.482-1.281 1.468-1.617 2.14-3.444-1.721-4.914-5.182-5.754-9.881l2.247-.315zm3.066 1.49 1.764 1.72c-1.26.902-2.688 1.825-3.78 2.433l-1.365-1.468c1.029-.651 2.52-1.825 3.381-2.685zM284.034 397.634l1.89-1.301c1.155.986 2.52 2.392 3.15 3.378l-2.037 1.426c-.546-1.007-1.869-2.475-3.003-3.503zm-13.755 4.091h18.963v2.391h-18.963v-2.391zm-.399 5.937c2.541-.378 6.531-1.07 10.206-1.742l.189 2.287c-3.402.713-7.056 1.448-9.765 1.993l-.63-2.538zm4.389-9.315h2.541v14.182c0 1.363-.273 2.055-1.134 2.454-.84.399-2.079.483-3.801.483-.105-.714-.525-1.847-.903-2.56 1.197.063 2.415.063 2.793.042.378 0 .504-.105.504-.461v-14.14zm4.305-2.454 1.701 2.139c-2.73.84-6.321 1.406-9.366 1.742-.126-.588-.441-1.532-.735-2.098 2.961-.399 6.237-1.049 8.4-1.783zm2.058.042h2.646c-.147 8.454 1.743 17.055 3.654 17.055.441 0 .672-1.028.798-3.524.525.587 1.386 1.175 2.058 1.447-.399 3.713-1.197 4.636-3.108 4.636-4.347 0-5.985-10.195-6.048-19.614zm5.712 8.873 2.226.945c-2.184 3.902-5.607 7.027-9.408 9.041-.378-.629-1.071-1.468-1.701-2.035 3.591-1.636 7.014-4.489 8.883-7.951zM252.303 416.474l-.672-1.678c1.764-.567 2.73-1.595 2.73-2.791l-.147-2.077 1.155 1.889c-.336.314-.777.461-1.239.461-1.05 0-2.016-.671-2.016-1.888 0-1.175.945-1.888 2.079-1.888 1.47 0 2.268 1.133 2.268 2.895 0 2.371-1.554 4.301-4.158 5.077zM230.442 395.768h2.499v19.698h-2.499v-19.698zm-1.827 4.153 1.806.252c-.084 1.804-.462 4.301-.966 5.916l-1.869-.671c.504-1.406.882-3.755 1.029-5.497zm3.759.042 1.722-.734c.63 1.28 1.344 2.958 1.617 4.007l-1.848.86c-.21-1.07-.882-2.811-1.491-4.133zm3.003-1.028h10.752v7.511h-2.478v-5.161h-8.274v-2.35zm-.966 6.189h13.041v2.413h-13.041v-2.413zm7.434.504c.903 3.461 2.793 6.314 6.048 7.531-.588.545-1.407 1.636-1.785 2.37-3.612-1.678-5.418-5.055-6.531-9.461l2.268-.44zm-2.835-9.86h2.541v7.447c0 4.259-.861 9.273-6.3 12.356-.336-.524-1.197-1.468-1.785-1.951 5.25-2.538 5.544-6.881 5.544-10.426v-7.426zM215.742 396.817h8.526v2.328h-8.526v-2.328zm-.714 7.3h11.592v2.371h-11.592v-2.371zm4.431-2.454H222v11.013c0 1.259-.252 1.93-1.071 2.329-.84.378-1.995.461-3.549.441-.126-.693-.546-1.784-.882-2.455 1.071.042 2.163.063 2.52.042.336-.021.441-.105.441-.399v-10.971zm3.906-4.846h.609l.525-.126 1.638 1.237c-1.239 1.826-3.024 4.049-4.662 5.434-.336-.441-1.029-1.133-1.428-1.469 1.239-1.195 2.688-3.272 3.318-4.531v-.545zm-16.338 3.125h6.783v2.329h-6.783v-2.329zm2.814-4.174 2.373.251c-.798 4.469-2.016 10.091-3.003 13.867l-2.058-1.091c.903-3.314 2.037-8.853 2.688-13.027zm-1.596 12.671 1.386-1.763c2.184 1.364 4.956 3.399 6.174 4.972l-1.512 2.035c-1.176-1.594-3.843-3.797-6.048-5.244zm4.704-8.497h.399l.441-.063 1.491.252c-.483 8.182-2.52 12.818-6.678 15.398-.336-.608-1.008-1.51-1.512-1.993 3.57-1.867 5.439-6.503 5.859-13.132v-.462zM193.734 397.236h11.529v1.783h-11.529v-1.783zm-.525 5.265h12.432v1.888h-12.432v-1.888zm-.042 7.909h12.537v1.972h-12.537v-1.972zm2.163-2.538h8.4v1.552h-8.4v-1.552zm-1.197-8.014h10.689v1.741h-10.689v-1.741zm1.806-4.112h2.247v7.594h-2.247v-7.594zm4.683 0h2.268v7.594h-2.268v-7.594zm-2.31 7.699h2.079v8.14h-2.079v-8.14zm4.032 1.72h2.289v8.098c0 1.028-.21 1.553-.924 1.888-.714.294-1.743.315-3.15.315-.084-.587-.336-1.385-.588-1.93.819.042 1.764.042 2.016.021.273-.021.357-.084.357-.336v-8.056zm-8.127 0h8.967v1.742h-6.846v8.58h-2.121v-10.322zm-7.413-2.811h5.775v1.888h-5.775v-1.888zm.105-5.937h5.586v1.909h-5.586v-1.909zm-.105 8.874h5.775v1.888h-5.775v-1.888zm-.945-5.958h7.329v1.972h-7.329v-1.972zm2.1 8.916h4.704v6.378h-4.704v-1.972h2.604v-2.413h-2.604v-1.993zm-1.218 0h2.058v7.217h-2.058v-7.217zM166.686 398.872h5.754v6.377h-5.754v-2.118h3.528v-2.14h-3.528v-2.119zm.063 7.741h5.901v6.776h-5.901v-2.098h3.675v-2.559h-3.675v-2.119zm-.987-7.741h2.226v15.86h-2.226v-15.86zm7.245-2.14h11.445v2.287h-11.445v-2.287zm-4.893-.986 2.793.273c-.483 1.342-1.071 2.79-1.554 3.755l-1.974-.378c.294-1.07.63-2.559.735-3.65zm9.429 2.077h2.373v17.622h-2.373v-17.622zm-3.822 3.084h9.072v2.245h-6.783v9.062h-2.289v-11.307zm7.854 0h2.331v9.084c0 .986-.147 1.594-.756 1.972-.588.377-1.344.398-2.394.398-.063-.629-.357-1.552-.651-2.161.525.021 1.05.021 1.218.021.189 0 .252-.063.252-.272v-9.042zM144.174 402.67h19.152v2.349h-19.152v-2.349zm1.911-4.364h11.907v2.308h-11.907v-2.308zm4.767-2.538h2.625v8.181h-2.625v-8.181zm8.085 10.615 2.1 1.846c-2.856 1.133-6.636 2.119-9.912 2.79-.126-.545-.483-1.427-.777-1.909 3.108-.692 6.531-1.741 8.589-2.727zm1.302-9.797 2.331 1.154c-4.116 6.041-10.437 10.636-17.199 13.384-.378-.567-1.239-1.615-1.743-2.14 6.825-2.433 12.936-6.797 16.611-12.398zm-10.689 9.839h2.604v5.538c0 .818.252.944 1.806.944h4.557c1.323 0 1.533-.378 1.701-2.601.588.398 1.68.776 2.373.902-.357 3.147-1.134 3.944-3.885 3.944h-4.935c-3.318 0-4.221-.713-4.221-3.168v-5.559z" fill="#464646"/>
        <path fill="#ACDBF5" d="M143.25 421.82h210v4.495h-210z"/>
        <path fill-rule="evenodd" clip-rule="evenodd" d="M770.082 204.167c-25.942 19.353-18.058 65.178 0 103.744 4.365 9.322 8.11 18.344 11.32 27.074l-.94 3.493c-8.86 32.979-16.307 60.699-55.962 67.233-20.29 3.344-13.168 20.23 8.625 20.23 18.941 0 47.393-10.778 62.869-35.79 5.021 30.862 4.157 57.054 3.427 79.185-.238 7.23-.462 14.026-.462 20.411h116.518c3.796-69.117-5.188-129.847-17.54-173.918 8.082-7.857 15.288-18.558 19.009-29.434 7.504-21.935 3.714-54.976-23.524-68.581-19.771-9.875-39.692-5.074-49.909.496-22.209-20.339-49.5-31.996-73.431-14.143zm91.663 34.028c20.913-3.148 37.071 21.904 24.795 43.619-2.99-7.453-6.011-13.972-8.961-19.469-4.182-7.794-9.571-16.116-15.834-24.15z" fill="#8DD1F7"/>
        <path d="M725.625 405.336c18.75-3.372 33-13.112 40.125-25.474 8.625-12.362 13.289-32.717 16.5-45.329 13.125 2.498 37.289 18.86 16.875 49.45-24.75 37.087-49.875 41.208-65.25 41.957-15.375.749-18.375-5.994-18.75-9.366-.375-3.371.75-8.616 10.5-11.238z" fill="url(#a84yvg0ufb)"/>
        <path d="M841.876 239.756c-12.376-4.121-6.75-16.751-.001-20.604 21.053-12.019 45.001-8.991 58.501 2.248 20.25 18.356 20.625 34.09 19.125 54.319-1.306 17.607-13.75 32.967-21.375 41.957-.3-3.596-7.625-24.724-11.25-34.839 9.75-22.852 1.125-34.09-7.125-40.459-6.6-5.095-13.125-5.587-18.75-4.121-8.625 2.248-14.379 3.08-19.125 1.499z" fill="url(#btu7tebb4c)"/>
        <ellipse cx="11.116" cy="14.719" rx="11.116" ry="14.719" transform="rotate(-25.478 941.362 -1524.656) skewX(.045)" fill="#fff"/>
        <ellipse cx="6.947" cy="9.72" rx="6.947" ry="9.72" transform="rotate(-25.478 951.187 -1526.884) skewX(.045)" fill="#626F83"/>
        <path fill-rule="evenodd" clip-rule="evenodd" d="m775.206 264.084-22.828 1.717c-1.33-6.028.605-11.791 5.118-13.942 5.542-2.641 12.874 1.165 16.377 8.5a19.31 19.31 0 0 1 1.333 3.725z" fill="#CCE9FA"/>
        <ellipse cx="11.116" cy="14.719" rx="11.116" ry="14.719" transform="rotate(-25.478 966.925 -1637.762) skewX(.045)" fill="#fff"/>
        <ellipse cx="7.194" cy="10.066" rx="7.194" ry="10.066" transform="rotate(-25.478 975.222 -1639.653) skewX(.046)" fill="#626F83"/>
        <path fill-rule="evenodd" clip-rule="evenodd" d="m826.346 264.082-22.827 1.717c-1.33-6.028.604-11.791 5.118-13.942 5.542-2.641 12.874 1.165 16.376 8.501a19.17 19.17 0 0 1 1.333 3.724z" fill="#CCE9FA"/>
        <path fill="#F2E497" d="m723.399 392.15 6.649 4.04-16.467 27.043-6.649-4.04z"/>
        <path d="m718.649 389.264 4.75 2.886-16.467 27.042-2.727-6.207 14.444-23.721zM734.797 399.076l-4.749-2.886-16.467 27.043 6.772-.435 14.444-23.722z" fill="#EFD370"/>
        <path fill="#fff" d="m721.827 384.045 16.147 9.812-3.177 5.219-16.148-9.812z"/>
        <path d="m720.209 423.035-15.91-9.668.129 17.953 15.781-8.285z" fill="#FAE9BC"/>
        <path fill="#7A7A7A" d="m704.602 426.227 4.275 2.598-3.178 5.218-4.275-2.597z"/>
        <path fill-rule="evenodd" clip-rule="evenodd" d="M428.919 290.965c.029.162.056.325.081.488 3.375 22.477 15 33.715 34.875 36.712-19.125 8.991-34.191 2.565-39.375-6.368 6.665 27.915 37.032 35.369 37.032 35.369-22.721 7.241-51.524-4.133-59.382-14.996l-.039.026c3.096 18.904 18.878 25.86 23.591 27.532-33.607 0-46.612-14.516-46.939-16.47-1.666 16.47 8.888 28.474 15.832 30.428-32.774 3.071-44.532-16.47-49.439-28.474-16.943 16.47-38.781 19.406-57.571 14.516 12.729-5.056 19.788-14.689 25.105-27.906l-.227-.161c-7.52 11.924-25.022 13.652-36.255 14.762-1.602.158-3.077.303-4.377.464 14.763-2.755 20.685-23.668 22.04-35.336-.236-.409-.468-.82-.695-1.234-17.469 10.834-34.413 4.202-40.787-.557 18.005-1.456 29.459-11.108 34.247-31.845 3.004-31.525 29.491-58.274 71.033-58.274 42.877 0 69.715 28.494 71.25 61.324z" fill="url(#dlz4wq3gad)"/>
        <ellipse cx="324.712" cy="298.655" rx="12.791" ry="13.612" fill="#fff"/>
        <path fill-rule="evenodd" clip-rule="evenodd" d="M325.23 312.256c6.825-.289 12.274-6.268 12.274-13.601 0-.14-.002-.279-.006-.418-1.535-1.637-3.584-2.637-5.834-2.637-4.761 0-8.62 4.477-8.62 10 0 2.556.826 4.888 2.186 6.656z" fill="#7A7A7A"/>
        <ellipse cx="386.444" cy="298.655" rx="12.791" ry="13.612" fill="#fff"/>
        <path fill-rule="evenodd" clip-rule="evenodd" d="M385.926 312.256c-6.824-.289-12.273-6.268-12.273-13.601 0-.14.002-.279.006-.418 1.535-1.637 3.583-2.637 5.833-2.637 4.761 0 8.62 4.477 8.62 10 0 2.556-.826 4.888-2.186 6.656z" fill="#7A7A7A"/>
        <path d="M243.485 266.438c9.44-8.213 24.117 5.878 29.699 12.263-16.205-3.545-13.599 4.982-25.653 2.068-5.645-1.364-9.57-9.525-4.046-14.331zM446.321 236.451c-5.404-11.28-24.473-4.162-32.132-.514 16.282 3.168 10.504 9.963 22.726 12.065 5.724.985 12.567-4.951 9.406-11.551zM223.564 299.026c5.868-12.105 23.308-6.975 31.295-2.898-14.017 4.507-7.661 13.552-20.537 15.614-6.031.966-14.191-5.634-10.758-12.716z" fill="#ACDBF5"/>
        <path d="M246.75 301.566c2.1-3.596 6.375-4.995 8.25-5.244-5.625-1.124-9.737 2.609-15 7.867-7.5 7.492-10.5 5.244-13.875 4.87 0 0 2.475 2.997 7.875 2.997 6.75 0 10.125-5.994 12.75-10.49z" fill="#70C0EC"/>
        <path d="M363.741 322.941c0 3.64-3.765 7.604-9.776 7.604-6.011 0-9.776-3.964-9.776-7.604 0-3.639 3.765-7.603 9.776-7.603 6.011 0 9.776 3.964 9.776 7.603z" fill="#EEC169" stroke="#F39F70" stroke-width="7"/>
        <path d="m310.875 333.41 1.875 7.493c-9 13.785-28.25 15.983-36.75 15.359 15 0 29.75-13.986 34.875-22.852zM378.75 354.013l1.5-5.993c12.9 14.085 36 20.604 45.375 21.727-28.8 0-43.625-10.739-46.875-15.734zM424.875 321.797v-5.244c13.2 13.786 29.5 14.235 36 12.737-19.8 8.691-32.25-1.374-36-7.493z" fill="#E6AF5C"/>
        <path d="M55.692 447.117v-1.929c0-2.332 2.742-4.536 4.52-6.109 2.508-2.217 3.826-5.194 3.826-8.682 0-6.43-5.54-11.575-12.519-11.575a13.385 13.385 0 0 0-4.796.873 12.589 12.589 0 0 0-4.066 2.508 11.522 11.522 0 0 0-2.713 3.76 10.787 10.787 0 0 0-.944 4.434c0 3.363 1.374 6.543 3.825 8.682 1.77 1.544 4.521 3.753 4.521 6.109v1.929M48.737 454.834h5.564M47.346 450.975h8.346M51.52 447.117v-10.289" stroke="#F9DB71" stroke-width="3.11" stroke-linecap="round" stroke-linejoin="round"/>
        <path d="M54.823 435.541s-1.87 1.286-3.303 1.286c-1.434 0-3.304-1.286-3.304-1.286" stroke="#F9DB71" stroke-width="3.11" stroke-linecap="round" stroke-linejoin="round"/>
        <path d="M1100.25 167.08h62.25v61.165h-62.25V167.08z" fill="#fff" fill-opacity=".01"/>
        <path fill-rule="evenodd" clip-rule="evenodd" d="M1123.12 177.791c-8.07 0-14.61 6.545-14.61 14.629 0 4.786 2.29 9.034 5.85 11.707a3.063 3.063 0 0 1 .6 4.291 3.064 3.064 0 0 1-4.29.607c-5.04-3.783-8.3-9.814-8.3-16.605 0-11.46 9.29-20.758 20.75-20.758 8.42 0 15.66 5.012 18.92 12.208a14.8 14.8 0 0 1 3.48-.412c8.21 0 14.86 6.657 14.86 14.86 0 6.095-3.67 11.33-8.91 13.621a3.064 3.064 0 1 1-2.46-5.615 8.73 8.73 0 0 0 5.24-8.006 8.728 8.728 0 0 0-12.66-7.794 3.08 3.08 0 0 1-2.64.068 3.08 3.08 0 0 1-1.72-2.002c-1.68-6.226-7.37-10.799-14.11-10.799z" fill="#98DDB4"/>
        <path fill-rule="evenodd" clip-rule="evenodd" d="M1121 193.324a3.07 3.07 0 0 1 3.07 3.065v5.097a3.07 3.07 0 0 1-6.14 0v-5.097a3.07 3.07 0 0 1 3.07-3.065zM1131.38 198.422c1.69 0 3.06 1.372 3.06 3.064v5.097a3.064 3.064 0 1 1-6.13 0v-5.097a3.064 3.064 0 0 1 3.07-3.064zM1141.75 193.324a3.07 3.07 0 0 1 3.07 3.065v5.097a3.07 3.07 0 0 1-6.14 0v-5.097a3.07 3.07 0 0 1 3.07-3.065zM1121 207.342a3.07 3.07 0 0 1 3.07 3.064v5.097a3.07 3.07 0 0 1-6.14 0v-5.097a3.07 3.07 0 0 1 3.07-3.064zM1131.38 212.439c1.69 0 3.06 1.372 3.06 3.065v5.097a3.064 3.064 0 0 1-6.13 0v-5.097a3.064 3.064 0 0 1 3.07-3.065zM1141.75 207.342a3.07 3.07 0 0 1 3.07 3.064v5.097a3.07 3.07 0 0 1-6.14 0v-5.097a3.07 3.07 0 0 1 3.07-3.064z" fill="#98DDB4"/>
        <path d="M900.75 357.385h262.5l7.5 4.495v84.289l18 14.236H907.5l-6.75-5.62v-97.4z" fill="#5F5F5F"/>
        <path fill-rule="evenodd" clip-rule="evenodd" d="M1163.25 357.385h-262.5v97.026h280.5l-17.82-14.236-.18.158v-82.948z" fill="#FBF3AE"/>
        <path d="M1054.75 419.118v-.253c0-.869.08-1.562.23-2.079.15-.516.38-.933.67-1.251.29-.318.65-.606 1.06-.864.31-.199.58-.405.83-.619.24-.213.43-.449.58-.707.14-.264.22-.557.22-.88 0-.342-.09-.643-.25-.901a1.726 1.726 0 0 0-.66-.596 2.008 2.008 0 0 0-.91-.209c-.33 0-.63.073-.92.217-.29.139-.53.347-.71.625-.18.273-.28.614-.3 1.021h-3.04c.02-.993.26-1.813.71-2.458a4.182 4.182 0 0 1 1.8-1.453c.75-.323 1.57-.484 2.47-.484.99 0 1.86.163 2.63.491.76.323 1.35.792 1.79 1.408.43.616.64 1.359.64 2.228 0 .581-.09 1.097-.29 1.549-.19.447-.45.845-.79 1.192-.35.343-.75.653-1.22.931-.39.234-.72.477-.97.731-.25.253-.43.546-.56.879-.12.332-.18.742-.19 1.229v.253h-2.82zm1.47 4.768c-.49 0-.92-.174-1.27-.521a1.73 1.73 0 0 1-.52-1.267c0-.487.17-.904.52-1.251.35-.348.78-.522 1.27-.522.48 0 .89.174 1.25.522.36.347.54.764.54 1.251 0 .328-.09.628-.26.901-.16.269-.38.485-.65.649a1.67 1.67 0 0 1-.88.238zM1034.16 407.287h12.89v2.392h-12.89v-2.392zm0 4.825h12.94v2.35h-12.94v-2.35zm-.04 4.951h13.06v2.371h-13.06v-2.371zm-1.41-9.776h2.5v7.552c0 3.336-.42 8.056-3 10.867-.4-.482-1.43-1.321-1.98-1.636 2.29-2.538 2.48-6.294 2.48-9.252v-7.531zm13.46 0h2.5v15.335c0 1.343-.29 2.014-1.13 2.413-.88.399-2.14.441-4.06.42-.1-.672-.48-1.763-.81-2.413 1.19.084 2.58.063 2.96.063.4-.021.54-.147.54-.504v-15.314zm-6.99.944h2.56v17.098h-2.56v-17.098zM1013.45 423.085c3.36-.021 8.64-.105 13.55-.231l-.08 1.889c-4.77.167-9.87.335-13.3.398l-.17-2.056zm9.73-5.328 2.1 1.154c-2.31 1.992-5.34 4.195-7.71 5.538l-1.6-1.07c2.38-1.427 5.38-3.776 7.21-5.622zm-4.01-1.217 2.03 1.07c-1.17 1.091-2.47 2.245-3.52 2.979l-1.54-.923c1.01-.818 2.29-2.14 3.03-3.126zm-4.81 3.189 1.57-1.469c1.45.776 3.4 1.993 4.39 2.874l-1.7 1.637c-.88-.882-2.79-2.203-4.26-3.042zm8.78 1.573 1.97-.944c1.36 1.217 3.02 2.958 3.8 4.196l-2.12 1.07c-.71-1.196-2.29-3.021-3.65-4.322zm-9.18-10.51h6.55v1.72h-6.55v-1.72zm7.14 0h7.31v1.72h-7.31v-1.72zm-4.81-1.238h1.85v7.489h-1.85v-7.489zm2.54 3.441h1.39v3.104h-1.39v-3.104zm4.6-3.441h1.87v7.636h-1.87v-7.636zm-9.16 3.42h1.35v.86c0 1.174-.13 2.559-1.05 3.587-.25-.315-.82-.734-1.2-.944.78-.713.9-1.867.9-2.706v-.797zm7.1 0h1.39v.839c0 1.112-.15 2.475-1.12 3.461-.25-.314-.84-.755-1.21-.965.82-.671.94-1.783.94-2.58v-.755zm4.62-.021h1.47v2.874c.04.042.09.084.17.084h.19c.06 0 .15-.021.17-.042.06-.042.08-.126.12-.273.04-.168.07-.525.07-.965.27.21.75.461 1.11.566-.04.525-.09 1.091-.21 1.301a.938.938 0 0 1-.51.482c-.16.105-.44.126-.65.126h-.65c-.35 0-.75-.105-.96-.335-.23-.273-.32-.588-.32-1.511v-2.307zm-7.39-7.07h2.62v2.706h-2.62v-2.706zm-6.38 1.636h16.61v2.098h-16.61v-2.098zm-1.45 0h2.31v6.378c0 3.356-.28 8.517-1.91 11.769-.4-.42-1.43-1.196-1.94-1.448 1.43-2.958 1.54-7.258 1.54-10.321v-6.378zM993.987 419.035h2.478v3.294c0 .629.168.713 1.155.713h2.81c.78 0 .93-.252 1.03-1.972.49.377 1.54.734 2.23.881-.29 2.643-.99 3.315-3.05 3.315h-3.314c-2.73 0-3.339-.693-3.339-2.896v-3.335zm2.058-.609 1.743-1.426c1.239.713 2.792 1.825 3.512 2.706l-1.853 1.574c-.651-.882-2.142-2.077-3.402-2.854zm6.425 1.07 2.16-1.007c1.47 1.469 2.97 3.504 3.51 5.035l-2.33 1.112c-.48-1.447-1.89-3.587-3.34-5.14zm-11.423-.734 2.268.713c-.567 2.035-1.386 4.091-2.94 5.392l-2.1-1.406c1.365-1.091 2.31-2.874 2.772-4.699zm2.016-10.636h14.277v2.182h-14.277v-2.182zm4.305 3.252h8.782v1.972h-8.782v-1.972zm.021 3.146h9.321v2.077h-9.321v-2.077zm-1.155-5.643h2.541v8.895h-2.541v-8.895zm-2.898-3.063 2.646.672c-1.176 3.314-3.171 6.314-5.376 8.202-.462-.503-1.533-1.447-2.142-1.867 2.163-1.573 3.948-4.175 4.872-7.007zM975.339 408.484h11.802v2.287h-11.802v-2.287zm4.578-2.601h2.562v3.671h-2.562v-3.671zm3.675 5.58 2.247.986c-2.184 3.525-5.544 6.399-9.156 8.287-.357-.609-1.05-1.427-1.659-1.93 3.381-1.553 6.741-4.217 8.568-7.343zm1.05 4.385 2.331 1.028c-2.457 4.006-6.3 6.902-10.773 8.706a9.004 9.004 0 0 0-1.638-2.056c4.221-1.469 8.064-4.133 10.08-7.678zm-5.061-5.874 2.52.818c-1.071 1.531-2.331 3.126-3.339 4.196l-1.974-.777c.966-1.133 2.142-2.895 2.793-4.237zm-4.347 3.797 1.554-1.616c1.512.986 3.57 2.476 4.536 3.504l-1.68 1.825c-.903-1.049-2.877-2.643-4.41-3.713zm5.649 7.846 1.806-1.553c1.491 1.112 3.612 2.728 4.641 3.818l-1.974 1.742c-.903-1.091-2.961-2.811-4.473-4.007zm-12.558-9.294h6.153v1.888h-6.153v-1.888zm.063-5.79h6.027v1.909h-6.027v-1.909zm-.063 8.643h6.153v1.909h-6.153v-1.909zm-.966-5.811h7.665v1.993h-7.665v-1.993zm2.058 8.727h5.082v6.378h-5.082v-1.993h2.982v-2.392h-2.982v-1.993zm-1.134 0h2.058v7.217h-2.058v-7.217zM958.119 421.092h5.754v2.35h-5.754v-2.35zm-1.134-13.405h8.064v16.993h-2.562v-14.622h-3.066v14.915h-2.436v-17.286zm-6.552 1.972h2.541v4.049c0 3.566-.756 8.748-4.977 11.811-.315-.525-1.281-1.532-1.785-1.888 3.843-2.769 4.221-6.881 4.221-9.965v-4.007zm-1.722-1.112h7.203v2.329h-7.203v-2.329zm-2.184 5.643h9.912v2.392h-9.912v-2.392zm5.817 2.958c.861.756 3.633 3.923 4.284 4.7l-1.701 2.118c-.987-1.552-3.045-4.153-4.116-5.391l1.533-1.427zm-3.864-11.265 2.415.482c-.546 2.769-1.554 5.539-2.751 7.301-.441-.399-1.47-1.112-2.016-1.448 1.134-1.51 1.932-3.923 2.352-6.335zM926.094 407.287h18.312v2.58h-18.312v-2.58zm10.143 7.028 1.953-1.636c2.247 1.636 5.481 4.048 7.014 5.727l-2.142 1.93c-1.386-1.657-4.494-4.238-6.825-6.021zm-.84-6.084 2.814.986c-2.394 4.427-6.216 8.706-11.046 11.224-.399-.672-1.197-1.721-1.722-2.287 4.494-2.119 8.211-6.189 9.954-9.923zm-1.533 5.077 2.772-2.748v14.979h-2.772v-12.231zM1122.74 381.133h10.73v2.182h-10.73v-2.182zm-.72 4.028h12.08v2.224h-12.08v-2.224zm.05 4.007h11.88v2.203h-11.88v-2.203zm4.72-10.279h2.48v7.699h-2.48v-7.699zm2.67 8.37h2.46v8.685c0 1.217-.24 1.867-1.05 2.224-.84.378-1.98.42-3.55.42-.09-.693-.47-1.7-.8-2.35 1.03.042 2.18.042 2.5.021.33 0 .44-.063.44-.357v-8.643zm-6.55 5.518 2.01-1.154c.99 1.028 2.1 2.412 2.56 3.44l-2.16 1.259c-.4-.986-1.45-2.476-2.41-3.545zm-6.66-12.588h5.42v14.35h-5.42v-2.245h3.07v-9.86h-3.07v-2.245zm.13 5.958h4.07v2.203h-4.07v-2.203zm-1.31-5.958h2.33v16.217h-2.33v-16.217zM1100.92 395.106c1.7-.252 4.18-.672 6.61-1.112l.17 2.077c-2.16.482-4.45.965-6.28 1.342l-.5-2.307zm.4-7.637h5.73v2.14h-5.73v-2.14zm.02-4.594h11.53v2.287h-11.53v-2.287zm8.36-2.874 1.74-.881c.67.776 1.47 1.846 1.81 2.58l-1.81 1.007c-.31-.755-1.07-1.867-1.74-2.706zm-6.62 8.287h2.33v7.069l-2.33.42v-7.489zm4.27-9.378h2.39c-.11 9.147.4 16.489 1.47 16.573.27 0 .42-.944.5-2.538.38.545 1.39 1.259 1.77 1.51-.53 3.462-1.6 4.175-2.38 4.154-3.23-.084-3.67-7.552-3.75-19.699zm-13.02 6.441h6.21v1.888h-6.21v-1.888zm.06-5.791h6.03v1.91h-6.03v-1.91zm-.06 8.644h6.21v1.909h-6.21v-1.909zm-.97-5.811h7.66v1.993h-7.66v-1.993zm2.06 8.727h5.08v6.377h-5.08v-1.993h2.98v-2.391h-2.98v-1.993zm-1.14 0h2.06v7.216h-2.06v-7.216zM1072.99 384.805h18.37v2.119h-18.37v-2.119zm1.62-3.713h11.8v2.056h-11.8v-2.056zm4.87-2.182h2.5v6.944h-2.5v-6.944zm8.15 8.895 1.53 1.657c-2.79.756-6.78 1.175-10.16 1.385-.07-.504-.34-1.259-.55-1.699 3.23-.231 6.97-.735 9.18-1.343zm.86-8.056 2.03 1.112c-4.15 5.308-10.52 9.441-16.9 11.958-.34-.504-1.09-1.49-1.55-1.93 6.46-2.245 12.66-6.231 16.42-11.14zm-10.67 8.203 2.5.273c-.48 2.223-1.16 4.93-1.66 6.65l-2.52-.336c.57-1.72 1.26-4.468 1.68-6.587zm8.84 3.944h2.54s-.04.671-.12 1.028c-.49 2.874-1.01 4.3-1.73 4.951-.56.524-1.13.671-2.03.713-.7.063-1.89.063-3.17.021-.05-.713-.36-1.678-.78-2.329 1.2.105 2.54.147 3.09.147.39 0 .67-.042.9-.209.48-.357.94-1.595 1.28-4.028l.02-.294zm-8.46 0h9.05v2.035h-9.64l.59-2.035zM1057.41 395.567h13.75v2.329h-13.75v-2.329zm4.09-7.573v3.168h5.4v-3.168h-5.4zm0-5.413v3.084h5.4v-3.084h-5.4zm-2.6-2.328h10.75v13.237h-10.75v-13.237zm-2.88-1.259 2.46.776c-1.39 3.588-3.66 7.406-6.01 9.797-.23-.629-.94-2.056-1.38-2.706 1.95-1.888 3.84-4.867 4.93-7.867zm-2.12 5.79 2.5-2.475v16.279h-2.5v-13.804zM1033.8 399.616l-.67-1.678c1.77-.566 2.73-1.594 2.73-2.79l-.15-2.077 1.16 1.888c-.34.315-.78.462-1.24.462-1.05 0-2.02-.672-2.02-1.888 0-1.175.95-1.888 2.08-1.888 1.47 0 2.27 1.132 2.27 2.895 0 2.37-1.55 4.3-4.16 5.076zM1018.03 386.085h2.67v9.608c0 1.427-.36 2.119-1.41 2.497-1.03.377-2.54.419-4.55.419-.15-.734-.63-1.867-1.03-2.559 1.49.063 3.21.063 3.69.063.46 0 .63-.126.63-.483v-9.545zm-7.18-5.706h14.68v2.475h-14.68v-2.475zm13.73 0h.68l.61-.168 1.97 1.468c-1.89 2.308-4.66 4.972-7.25 6.588-.39-.546-1.21-1.385-1.72-1.783 2.19-1.385 4.66-3.902 5.71-5.497v-.608zM997.242 379.959h8.528v2.329h-8.528v-2.329zm-.714 7.301h11.592v2.37h-11.592v-2.37zm4.432-2.455h2.54v11.014c0 1.259-.25 1.93-1.07 2.329-.84.377-2 .461-3.55.44-.126-.692-.546-1.783-.882-2.454 1.071.042 2.162.063 2.522.042.33-.021.44-.105.44-.399v-10.972zm3.91-4.846h.6l.53-.126 1.64 1.238c-1.24 1.825-3.03 4.049-4.66 5.433-.34-.44-1.03-1.132-1.43-1.468 1.24-1.196 2.69-3.273 3.32-4.531v-.546zm-16.343 3.126h6.783v2.329h-6.783v-2.329zm2.814-4.175 2.373.252c-.798 4.468-2.016 10.091-3.003 13.867l-2.058-1.091c.903-3.315 2.037-8.853 2.688-13.028zm-1.596 12.671 1.386-1.762c2.184 1.364 4.956 3.399 6.174 4.972l-1.512 2.035c-1.176-1.594-3.843-3.797-6.048-5.245zm4.704-8.496h.399l.441-.063 1.491.252c-.483 8.181-2.52 12.818-6.678 15.398-.336-.608-1.008-1.51-1.512-1.993 3.57-1.867 5.439-6.503 5.859-13.133v-.461zM970.405 387.553h11.781v1.804h-9.219v9.273h-2.562v-11.077zm11.151 0h2.583v8.538c0 1.217-.294 1.804-1.176 2.161-.861.336-2.1.357-3.822.357-.105-.672-.462-1.595-.777-2.203 1.029.063 2.373.063 2.709.063.357-.021.483-.126.483-.42v-8.496zm-9.177 2.916h9.891v1.72h-9.891v-1.72zm-4.053-9.986h6.405v1.951h-6.405v-1.951zm-.483 3.986c1.743-.189 4.284-.545 6.825-.923l.084 1.825c-2.31.441-4.683.86-6.573 1.175l-.336-2.077zm4.536 8.895h9.933v1.72h-9.933v-1.72zm.777-14.475h2.52v8.181h-2.52v-8.181zm11.34.797 1.638 1.804c-1.911.692-4.368 1.301-6.426 1.699a9.925 9.925 0 0 0-.672-1.741c1.932-.461 4.095-1.154 5.46-1.762zm-6.615-.797h2.562v5.16c0 .672.147.756.945.756h2.331c.63 0 .777-.252.861-1.595.504.357 1.533.693 2.205.839-.273 2.224-.945 2.874-2.814 2.874h-2.961c-2.52 0-3.129-.692-3.129-2.874v-5.16zM960.724 380.295l1.68-1.385c.945.65 2.184 1.636 2.772 2.329l-1.764 1.51c-.546-.713-1.722-1.762-2.688-2.454zm-13.902 2.182h18.9v2.454h-18.9v-2.454zm.777 4.867h9.093v2.433h-9.093v-2.433zm3.192 1.384h2.52v7.112h-2.52v-7.112zm-3.99 6.755c2.541-.377 6.657-1.091 10.437-1.804l.189 2.245a1075.14 1075.14 0 0 1-9.912 2.098l-.714-2.539zm10.332-16.489h2.709c-.189 8.622 1.407 16.993 3.402 16.993.462 0 .693-1.154.819-3.797.567.587 1.491 1.195 2.205 1.447-.378 4.007-1.239 4.993-3.234 4.993-4.557 0-5.88-9.923-5.901-19.636zM933.15 386.567l3.024.734c-1.386 3.294-3.255 6.986-4.809 9.399l-2.331-.734c1.512-2.539 3.213-6.399 4.116-9.399zm-6.552 8.622c3.969-.125 10.122-.419 15.624-.692l-.063 2.455c-5.397.377-11.235.692-15.225.902l-.336-2.665zm10.626-3.985 2.457-1.133c1.848 2.265 3.822 5.244 4.83 7.258l-2.604 1.385c-.882-2.014-2.919-5.203-4.683-7.51zm-6.3-11.811 2.877.797c-1.344 3.314-3.549 6.566-5.691 8.58-.546-.524-1.764-1.448-2.457-1.867 2.184-1.72 4.179-4.594 5.271-7.51zm8.463.021c1.239 2.475 3.633 5.412 5.565 7.174-.693.525-1.659 1.532-2.142 2.203-1.974-2.119-4.389-5.433-5.943-8.349l2.52-1.028z" fill="#464646"/>
        <path fill="#ACDBF5" d="M926.25 436.43h210v4.495h-210z"/>
        <path d="M876.662 178.316c-3.806 0-7.008-1.133-9.606-3.4-2.537-2.267-3.806-5.459-3.806-9.575 0-4.175 1.299-7.426 3.897-9.753 2.658-2.326 5.86-3.49 9.605-3.49 3.565 0 6.525.955 8.881 2.864a37.39 37.39 0 0 1 6.344 6.353c1.389-2.565 3.322-4.743 5.799-6.532 2.538-1.849 5.528-2.744 8.972-2.685 3.806 0 7.008 1.134 9.605 3.401 2.598 2.267 3.897 5.458 3.897 9.574 0 4.176-1.359 7.427-4.078 9.753-2.658 2.327-5.92 3.49-9.787 3.49-3.443 0-6.343-.895-8.699-2.684a36.3 36.3 0 0 1-6.344-6.175c-1.45 2.446-3.413 4.564-5.89 6.354-2.417 1.729-5.347 2.565-8.79 2.505zm-7.069-12.975c0 2.327.665 4.176 1.994 5.548 1.39 1.313 3.232 1.969 5.528 1.969 2.296 0 4.41-.686 6.343-2.058 1.933-1.372 3.534-3.162 4.803-5.369-1.631-2.148-3.323-3.997-5.075-5.548-1.752-1.61-3.806-2.416-6.162-2.416-2.175 0-3.957.716-5.346 2.148-1.39 1.431-2.085 3.34-2.085 5.726zm36.792-7.784c-2.356 0-4.531.716-6.525 2.147-1.933 1.432-3.534 3.311-4.802 5.637 1.57 2.088 3.202 3.878 4.893 5.369 1.692 1.492 3.716 2.237 6.072 2.237 2.416 0 4.319-.716 5.709-2.147 1.45-1.432 2.175-3.311 2.175-5.638 0-2.326-.695-4.175-2.085-5.547-1.389-1.372-3.202-2.058-5.437-2.058z" fill="#CACDCE"/>
        <path d="M498.696 411.86v-4.294c-1.03-1.086-2.173-1.628-3.428-1.628-1.236 0-2.323.561-3.259 1.684-.918 1.104-1.377 2.423-1.377 3.958 0 1.515.29 2.779.871 3.789.581 1.011 1.377 1.516 2.388 1.516 1.031 0 1.977-.477 2.838-1.432.862-.954 1.518-2.152 1.967-3.593zm-.056-6.427c.037-.88.393-1.32 1.068-1.32.861 0 1.292.665 1.292 1.993 0 1.31-.187 3.153-.562 5.53.225 2.283.337 3.986.337 5.108 0 2.452-.58 4.417-1.742 5.895-1.142 1.497-2.753 2.246-4.833 2.246a7.61 7.61 0 0 1-3.287-.73c-1.03-.468-1.545-.945-1.545-1.432 0-.468.215-.702.646-.702.168 0 .646.169 1.433.506.805.355 1.723.533 2.753.533 1.499 0 2.679-.561 3.541-1.684.861-1.123 1.292-2.573 1.292-4.351 0-.73-.047-1.403-.14-2.021-.412 1.011-1.087 1.881-2.023 2.611-.918.729-1.873 1.094-2.866 1.094-.974 0-1.808-.215-2.501-.645a5.188 5.188 0 0 1-1.686-1.684c-.843-1.404-1.264-3.032-1.264-4.884 0-1.872.627-3.565 1.882-5.081 1.274-1.534 2.838-2.302 4.693-2.302 1.292 0 2.463.44 3.512 1.32zM482.581 415.369c.918-1.104 1.377-2.433 1.377-3.986 0-1.553-.44-2.872-1.32-3.958-.862-1.085-1.939-1.628-3.232-1.628-1.292 0-2.397.552-3.315 1.656-.899 1.104-1.349 2.433-1.349 3.986 0 1.553.431 2.873 1.293 3.958.88 1.085 1.966 1.628 3.259 1.628 1.292 0 2.388-.552 3.287-1.656zm-3.231-11.396c1.929 0 3.512.72 4.749 2.161 1.236 1.422 1.854 3.172 1.854 5.249 0 2.077-.627 3.845-1.882 5.305-1.256 1.441-2.838 2.161-4.749 2.161-1.911 0-3.484-.711-4.72-2.133-1.237-1.441-1.855-3.2-1.855-5.277s.618-3.836 1.855-5.277c1.255-1.46 2.837-2.189 4.748-2.189zM469.245 407.902l.14 9.404c0 .935-.355 1.403-1.067 1.403s-1.068-.468-1.068-1.403l.14-9.404-.14-9.403c0-.935.356-1.403 1.068-1.403.712 0 1.067.468 1.067 1.403l-.14 9.403z" fill="#B8B7F2"/>
        <path d="M428.625 243.876c-4.452-4.97-10.5-7.118-14.25-7.867 10.5-1.873 15.375 5.245 19.875 7.867 3.6 2.098 9.75 1.624 10.875.749-1.125 2.997-10.125 6.369-16.5-.749zM252 281.337c-7.2.6-10-3.996-10.5-6.368 1.5 2.622 2.614 4.121 9 4.121 5.625 0 8.25-2.623 12-2.997 3-.3 8 1.373 10.125 2.247-12-2.247-11.625 2.248-20.625 2.997z" fill="#70C0EC"/>
    </g>
    <defs>
        <linearGradient id="a84yvg0ufb" x1="790.125" y1="408.708" x2="714.75" y2="413.212" gradientUnits="userSpaceOnUse">
            <stop stop-color="#8DD1F6" stop-opacity="0"/>
            <stop offset="1" stop-color="#77BBE0"/>
        </linearGradient>
        <linearGradient id="btu7tebb4c" x1="840.376" y1="216.904" x2="869.949" y2="286.23" gradientUnits="userSpaceOnUse">
            <stop stop-color="#AEE1FD"/>
            <stop offset="1" stop-color="#8DD1F6"/>
        </linearGradient>
        <linearGradient id="dlz4wq3gad" x1="358.132" y1="229.641" x2="358.132" y2="384.009" gradientUnits="userSpaceOnUse">
            <stop stop-color="#FAD75E"/>
            <stop offset="1" stop-color="#F3CE4A"/>
        </linearGradient>
        <clipPath id="uo9hcob3xa">
            <path fill="#fff" d="M0 0h1200v490H0z"/>
        </clipPath>
    </defs>
</svg>
