<svg width="24" height="24" viewBox="0 0 24 24" fill="none" xmlns="http://www.w3.org/2000/svg">
    <path fill-rule="evenodd" clip-rule="evenodd" d="M7 4.6A1.6 1.6 0 0 1 8.6 3h6a1.6 1.6 0 0 1 1.6 1.6V7h2.4a1.6 1.6 0 0 1 1.6 1.6v6a1.6 1.6 0 0 1-1.6 1.6h-2.4v2.9a1.6 1.6 0 0 1-1.6 1.6h-6A1.6 1.6 0 0 1 7 19.1v-2.9H4.6A1.6 1.6 0 0 1 3 14.6v-6A1.6 1.6 0 0 1 4.6 7H7V4.6zm8 0V7H8.2V4.6c0-.22.18-.4.4-.4h6c.22 0 .4.18.4.4zM16.2 15h2.4a.4.4 0 0 0 .4-.4v-6a.4.4 0 0 0-.4-.4h-14a.4.4 0 0 0-.4.4v6c0 .22.18.4.4.4H7v-3h9.2v3zm-8 4.1c0 .22.18.4.4.4h6a.4.4 0 0 0 .4-.4v-5.9H8.2v5.9zm9.4-9.5h-2v1h2v-1zm-8.5 6a.5.5 0 0 1 .5-.5h4a.5.5 0 0 1 0 1h-4a.5.5 0 0 1-.5-.5zm.5 1.5a.5.5 0 0 0 0 1h4a.5.5 0 0 0 0-1h-4z" fill="#fff"/>
</svg>
