<svg width="32" height="32" viewBox="0 0 32 32" fill="none" xmlns="http://www.w3.org/2000/svg">
    <path fill-rule="evenodd" clip-rule="evenodd" d="M24.055 10.257c.397.113.715.447.821.866l.002.007c.191.736.306 2.016.363 3.247a48.34 48.34 0 0 1 .05 1.96v.323c-.002.105-.003.26-.007.451-.007.385-.021.916-.05 1.502-.059 1.223-.173 2.506-.359 3.254a1.206 1.206 0 0 1-.816.86c-.279.076-.913.161-1.848.232-.893.068-1.935.114-2.936.144a137.925 137.925 0 0 1-3.697.062h-.155a71.155 71.155 0 0 1-1.055-.008c-.694-.008-1.637-.024-2.634-.056-1-.032-2.04-.08-2.933-.15-.94-.074-1.577-.163-1.854-.242l-.002-.001a1.206 1.206 0 0 1-.82-.863c-.186-.735-.3-2.016-.36-3.244a51.25 51.25 0 0 1-.056-2.081v-.075a28.218 28.218 0 0 1 .007-.571c.007-.385.021-.916.05-1.503.059-1.222.173-2.505.359-3.253.108-.419.445-.769.82-.88.28-.076.913-.162 1.844-.232a68.599 68.599 0 0 1 2.936-.144 136.78 136.78 0 0 1 3.697-.062h.155a88.035 88.035 0 0 1 1.057.008c.696.008 1.64.024 2.639.056 1 .032 2.041.08 2.933.15.942.074 1.573.163 1.842.241l.007.002zm2.471 12.073C27 20.434 27 16.502 27 16.502s.019-3.951-.474-5.847c-.265-1.038-1.042-1.857-2.027-2.136C22.7 8 15.5 8 15.5 8s-7.198 0-8.998.499c-.966.28-1.762 1.118-2.027 2.155C4 12.552 4 16.483 4 16.483s0 3.951.474 5.827c.265 1.038 1.042 1.857 2.027 2.136 1.819.519 8.999.519 8.999.519s7.2 0 9-.499c.984-.28 1.761-1.098 2.026-2.136zm-7.332-5.847-5.986 3.632V12.85l5.986 3.633z" fill="#464646"/>
</svg>
